<?xml version="1.0" standalone="no"?>
<!DOCTYPE svg PUBLIC "-//W3C//DTD SVG 1.1//EN" "http://www.w3.org/Graphics/SVG/1.1/DTD/svg11.dtd" >
<svg>
<metadata>
Created by FontForge 20090914 at Tue Oct 14 14:01:17 2014
 By www-data
Copyright (c) 2014 Caveras / Cliff Modes
</metadata>
<defs>
<font id="Ishmeria" horiz-adv-x="512" >
  <font-face 
    font-family="Ishmeria"
    font-weight="400"
    font-stretch="normal"
    units-per-em="1024"
    panose-1="0 0 4 0 0 0 0 0 0 0"
    ascent="819"
    descent="-205"
    x-height="576"
    cap-height="832"
    bbox="0 -128 512 960"
    underline-thickness="51"
    underline-position="126"
    unicode-range="U+0020-U+FFE1"
  />
<missing-glyph 
d="M448 64v704h-320v-704h320zM64 0v832h448v-832h-448z" />
    <glyph glyph-name=".notdef" 
d="M448 64v704h-320v-704h320zM64 0v832h448v-832h-448z" />
    <glyph glyph-name="space" unicode=" " 
 />
    <glyph glyph-name="exclam" unicode="!" 
d="M192 0v128h128v-128h-128zM192 192v256h-64v320h64v64h128v-64h64v-320h-64v-256h-128z" />
    <glyph glyph-name="quotedbl" unicode="&#x22;" 
d="M64 576v64h64v-64h-64zM256 576v64h64v-64h-64zM128 640v64h-64v128h128v-192h-64zM320 640v64h-64v128h128v-192h-64z" />
    <glyph glyph-name="numbersign" unicode="#" 
d="M320 256v192h-128v-192h128zM128 0v192h-64v64h64v192h-64v64h64v128h64v-128h128v128h64v-128h64v-64h-64v-192h64v-64h-64v-192h-64v192h-128v-192h-64z" />
    <glyph glyph-name="dollar" unicode="$" 
d="M64 64v192h128v-128h-64v-64h-64zM320 512v128h64v64h64v-192h-128zM256 -64v64h-128v64h128v256h-64v64h-64v64h-64v256h64v-128h64v128h-64v64h64v64h64v-64h128v-64h-128v-256h64v-64h64v-64h64v-256h-64v128h-64v-128h64v-64h-64v-64h-64z" />
    <glyph glyph-name="percent" unicode="%" 
d="M384 128v64h-64v-64h64zM320 0v64h-64v192h64v64h64v-64h64v-192h-64v-64h-64zM192 640v64h-64v-64h64zM128 512v64h-64v192h64v64h64v-64h64v-192h-64v-64h-64zM64 0v192h64v128h64v128h64v128h64v128h64v128h64v-192h-64v-128h-64v-128h-64v-128h-64v-128h-64v-128h-64
z" />
    <glyph glyph-name="ampersand" unicode="&#x26;" 
d="M256 256v128h64v-128h-64zM384 0v64h-128v64h64v128h64v128h128v-64h-64v-128h-64v-64h64v-128h-64zM128 0v64h-64v320h64v128h64v64h64v64h64v128h64v-192h-64v-128h-64v-64h-64v-320h64v-64h-128zM128 576v192h64v64h128v-64h-64v-64h-64v-128h-64z" />
    <glyph glyph-name="quotesingle" unicode="'" 
d="M192 512v64h64v-64h-64zM256 576v128h-64v128h192v-192h-64v-64h-64z" />
    <glyph glyph-name="parenleft" unicode="(" 
d="M256 0v64h128v-64h-128zM192 64v64h-64v128h-64v320h64v128h64v64h64v-128h-64v-448h64v-128h-64zM256 768v64h128v-64h-128z" />
    <glyph glyph-name="parenright" unicode=")" 
d="M64 0v64h128v-64h-128zM192 64v128h64v448h-64v128h64v-64h64v-128h64v-320h-64v-128h-64v-64h-64zM64 768v64h128v-64h-128z" />
    <glyph glyph-name="asterisk" unicode="*" 
d="M0 192v128h128v-64h-64v-64h-64zM384 192v64h-64v64h128v-128h-64zM0 512v128h64v-64h64v-64h-128zM320 512v64h64v64h64v-128h-128zM192 128v192h-64v64h64v64h-64v64h64v192h64v-192h64v-64h-64v-64h64v-64h-64v-192h-64z" />
    <glyph glyph-name="plus" unicode="+" 
d="M256 0v320h-192v64h192v256h64v-256h192v-64h-192v-320h-64z" />
    <glyph glyph-name="comma" unicode="," 
d="M64 -128v64h64v-64h-64zM128 -64v128h-64v128h192v-192h-64v-64h-64z" />
    <glyph glyph-name="hyphen" unicode="-" 
d="M64 320v64h384v-64h-384z" />
    <glyph glyph-name="period" unicode="." 
d="M64 0v192h192v-192h-192z" />
    <glyph glyph-name="slash" unicode="/" 
d="M64 0v192h64v128h64v128h64v128h64v128h64v128h64v-192h-64v-128h-64v-128h-64v-128h-64v-128h-64v-128h-64z" />
    <glyph glyph-name="zero" unicode="0" 
d="M192 0v64h128v-64h-128zM128 64v64h-64v576h64v64h64v-704h-64zM320 64v704h64v-64h64v-576h-64v-64h-64zM192 768v64h128v-64h-128z" />
    <glyph glyph-name="one" unicode="1" 
d="M64 0v64h128v576h-128v64h64v64h128v64h64v-768h128v-64h-384z" />
    <glyph glyph-name="two" unicode="2" 
d="M64 0v128h64v128h64v128h64v128h64v256h-128v-64h-64v-64h64v-128h-128v256h64v64h256v-64h64v-256h-64v-64h-64v-128h-64v-128h-64v-64h192v128h64v-256h-384z" />
    <glyph glyph-name="three" unicode="3" 
d="M128 0v64h-64v256h128v-128h-64v-64h64v-64h64v64h64v192h-64v64h-64v64h64v64h64v192h-64v64h-64v-64h-64v-64h64v-128h-128v256h64v64h192v-64h64v-64h64v-192h-64v-64h-64v-64h64v-64h64v-192h-64v-64h-64v-64h-192z" />
    <glyph glyph-name="four" unicode="4" 
d="M64 384v128h64v-128h-64zM128 512v128h64v-128h-64zM192 0v64h64v192h-256v128h64v-64h192v320h-64v128h64v64h128v-512h64v-64h-64v-192h64v-64h-256z" />
    <glyph glyph-name="five" unicode="5" 
d="M128 0v64h192v-64h-192zM64 64v192h128v-128h-64v-64h-64zM320 64v448h64v-64h64v-320h-64v-64h-64zM192 512v64h128v-64h-128zM64 320v512h320v-64h-64v-64h-192v-192h64v-128h-64v-64h-64z" />
    <glyph glyph-name="six" unicode="6" 
d="M192 0v64h128v384h-64v64h128v-64h64v-384h-64v-64h-192zM128 64v64h-64v512h64v128h64v-320h64v-64h-64v-320h-64zM320 576v128h64v64h64v-192h-128zM192 768v64h192v-64h-192z" />
    <glyph glyph-name="seven" unicode="7" 
d="M128 0v256h64v192h64v64h64v128h64v64h-192v-64h-64v-128h-64v320h384v-256h-64v-128h-64v-192h-64v-256h-128z" />
    <glyph glyph-name="eight" unicode="8" 
d="M192 0v64h128v-64h-128zM128 64v64h-64v192h64v64h64v64h-64v64h-64v192h64v64h64v-192h64v-64h64v256h64v-64h64v-192h-64v-64h-64v-64h64v-64h64v-192h-64v-64h-64v192h-64v64h-64v-256h-64zM192 768v64h128v-64h-128z" />
    <glyph glyph-name="nine" unicode="9" 
d="M192 0v64h128v-64h-128zM128 64v64h64v-64h-64zM64 128v192h128v-128h-64v-64h-64zM64 448v256h64v64h64v-320h-128zM320 64v320h-128v64h128v320h64v-64h64v-576h-64v-64h-64zM192 768v64h128v-64h-128z" />
    <glyph glyph-name="colon" unicode=":" 
d="M64 0v192h192v-192h-192zM64 384v192h192v-192h-192z" />
    <glyph glyph-name="semicolon" unicode=";" 
d="M64 -128v64h64v-64h-64zM128 -64v128h-64v128h192v-192h-64v-64h-64zM64 384v192h192v-192h-192z" />
    <glyph glyph-name="less" unicode="&#x3c;" 
d="M384 64v64h64v-64h-64zM320 128v64h64v-64h-64zM256 192v64h64v-64h-64zM192 256v64h64v-64h-64zM128 320v64h64v-64h-64zM64 384v64h64v-64h-64zM128 448v64h64v-64h-64zM192 512v64h64v-64h-64zM256 576v64h64v-64h-64zM320 640v64h64v-64h-64zM384 704v64h64v-64h-64z
" />
    <glyph glyph-name="equal" unicode="=" 
d="M64 256v64h384v-64h-384zM64 576v64h384v-64h-384z" />
    <glyph glyph-name="greater" unicode="&#x3e;" 
d="M64 64v64h64v-64h-64zM128 128v64h64v-64h-64zM192 192v64h64v-64h-64zM256 256v64h64v-64h-64zM320 320v64h64v-64h-64zM384 384v64h64v-64h-64zM320 448v64h64v-64h-64zM256 512v64h64v-64h-64zM192 576v64h64v-64h-64zM128 640v64h64v-64h-64zM64 704v64h64v-64h-64z
" />
    <glyph glyph-name="question" unicode="?" 
d="M192 0v128h128v-128h-128zM192 192v192h64v128h64v256h-128v-64h-64v-64h64v-128h-128v256h64v64h256v-64h64v-320h-64v-64h-64v-64h-64v-128h-64z" />
    <glyph glyph-name="at" unicode="@" 
d="M192 0v64h192v-64h-192zM128 64v128h64v-128h-64zM64 192v512h64v-512h-64zM384 64v64h-64v128h-128v320h64v-256h64v256h-64v64h-64v64h128v-64h64v-448h64v-128h-64zM448 192v512h64v-512h-64zM128 704v64h64v-64h-64zM384 704v64h64v-64h-64zM192 768v64h192v-64h-192
z" />
    <glyph glyph-name="A" unicode="A" 
d="M0 0v64h64v256h64v-256h64v-64h-192zM256 0v64h64v256h-192v320h64v-256h64v256h-64v192h128v-192h64v-320h64v-256h64v-64h-256z" />
    <glyph glyph-name="B" unicode="B" 
d="M320 64v320h-128v-320h128zM320 448v256h-64v64h-64v-320h128zM0 0v64h64v704h-64v64h384v-64h64v-320h-64v-64h64v-320h-64v-64h-384z" />
    <glyph glyph-name="C" unicode="C" 
d="M192 0v64h-64v64h-64v576h64v64h64v64h128v-64h-64v-64h-64v-576h64v-64h64v64h64v128h64v-192h-64v-64h-192zM384 448v192h-64v128h64v64h64v-384h-64z" />
    <glyph glyph-name="D" unicode="D" 
d="M256 64v64h64v576h-64v64h-64v-704h64zM0 0v64h64v704h-64v64h320v-64h64v-64h64v-576h-64v-64h-64v-64h-320z" />
    <glyph glyph-name="E" unicode="E" 
d="M0 0v64h64v704h-64v64h448v-256h-64v128h-64v64h-128v-320h128v64h64v-192h-64v64h-128v-320h128v64h64v128h64v-256h-448z" />
    <glyph glyph-name="F" unicode="F" 
d="M0 0v64h64v704h-64v64h448v-256h-64v128h-64v64h-128v-320h128v64h64v-192h-64v64h-128v-320h64v-64h-256z" />
    <glyph glyph-name="G" unicode="G" 
d="M384 0v64h-64v256h-64v64h192v-384h-64zM192 0v64h-64v64h-64v576h64v64h64v64h192v-64h64v-320h-64v256h-64v64h-64v-64h-64v-576h64v-64h64v-64h-128z" />
    <glyph glyph-name="H" unicode="H" 
d="M320 64v320h-128v-320h128zM320 448v320h-128v-320h128zM0 0v64h64v704h-64v64h512v-64h-64v-704h64v-64h-512z" />
    <glyph glyph-name="I" unicode="I" 
d="M128 0v64h64v704h-64v64h256v-64h-64v-704h64v-64h-256z" />
    <glyph glyph-name="J" unicode="J" 
d="M64 64v192h128v-128h-64v-64h-64zM128 0v64h128v704h-64v64h256v-64h-64v-704h-64v-64h-192z" />
    <glyph glyph-name="K" unicode="K" 
d="M0 0v64h64v704h-64v64h256v-64h-64v-192h64v64h64v-128h-64v-128h64v-128h64v-128h64v-64h64v-64h-192v128h-64v128h-64v-192h64v-64h-256zM320 640v192h128v-64h-64v-128h-64z" />
    <glyph glyph-name="L" unicode="L" 
d="M128 0v768h-64v64h256v-64h-64v-704h64v64h64v192h64v-320h-320z" />
    <glyph glyph-name="M" unicode="M" 
d="M0 0v64h64v704h-64v64h128v-128h64v-256h64v256h64v128h192v-64h-64v-704h64v-64h-256v64h64v320h-64v-256h-64v256h-64v-320h64v-64h-192z" />
    <glyph glyph-name="N" unicode="N" 
d="M0 0v64h64v704h-64v64h192v-128h64v-128h64v-128h64v320h-64v64h192v-64h-64v-704h64v-64h-192v64h64v64h-64v128h-64v128h-64v128h-64v-448h64v-64h-192z" />
    <glyph glyph-name="O" unicode="O" 
d="M320 64v704h-128v-704h128zM128 0v64h-64v704h64v64h256v-64h64v-704h-64v-64h-256z" />
    <glyph glyph-name="P" unicode="P" 
d="M320 384v384h-128v-384h128zM0 0v64h64v704h-64v64h384v-64h64v-384h-64v-64h-192v-256h64v-64h-256z" />
    <glyph glyph-name="Q" unicode="Q" 
d="M256 64v64h-64v-64h64zM320 192v576h-128v-512h64v-64h64zM128 0v64h-64v704h64v64h256v-64h64v-640h-64v-64h64v-64h-320z" />
    <glyph glyph-name="R" unicode="R" 
d="M320 448v320h-128v-320h128zM0 0v64h64v704h-64v64h384v-64h64v-320h-64v-192h64v-192h64v-64h-128v128h-64v192h-64v64h-64v-320h64v-64h-256z" />
    <glyph glyph-name="S" unicode="S" 
d="M64 0v320h64v-192h64v-64h-64v-64h-64zM192 0v64h128v64h64v64h-64v64h-64v64h-64v64h-64v128h-64v256h64v64h192v-64h-128v-64h-64v-64h64v-64h64v-64h64v-64h64v-64h64v-320h-64v-64h-192zM384 512v192h-64v64h64v64h64v-320h-64z" />
    <glyph glyph-name="T" unicode="T" 
d="M128 0v64h64v704h-64v-256h-64v320h384v-320h-64v256h-64v-704h64v-64h-256z" />
    <glyph glyph-name="U" unicode="U" 
d="M128 0v64h-64v704h-64v64h256v-64h-64v-704h192v-64h-256zM384 64v704h-64v64h192v-64h-64v-704h-64z" />
    <glyph glyph-name="V" unicode="V" 
d="M320 256v256h64v-256h-64zM192 0v256h-64v256h-64v256h-64v64h192v-320h64v-256h64v-256h-128zM384 512v320h128v-64h-64v-256h-64z" />
    <glyph glyph-name="W" unicode="W" 
d="M128 0v256h-64v512h-64v64h128v-256h64v-320h64v-256h-128zM320 0v256h-64v320h-64v256h128v-320h64v320h128v-64h-64v-768h-128z" />
    <glyph glyph-name="X" unicode="X" 
d="M0 0v64h64v128h64v-128h64v-64h-192zM128 192v128h64v-128h-64zM320 512v128h64v-128h-64zM256 0v64h64v128h-64v128h-64v128h-64v192h-64v128h-64v64h256v-64h-64v-128h64v-128h64v-128h64v-192h64v-128h64v-64h-256zM384 640v192h128v-64h-64v-128h-64z" />
    <glyph glyph-name="Y" unicode="Y" 
d="M320 384v192h64v-192h-64zM128 0v64h64v320h-64v192h-64v192h-64v64h192v-256h64v-192h64v-320h64v-64h-256zM384 576v192h-64v64h192v-64h-64v-192h-64z" />
    <glyph glyph-name="Z" unicode="Z" 
d="M64 0v256h64v128h64v128h64v128h64v128h-128v-64h-64v-128h-64v256h384v-256h-64v-128h-64v-128h-64v-128h-64v-128h128v64h64v128h64v-256h-384z" />
    <glyph glyph-name="bracketleft" unicode="[" 
d="M64 0v832h256v-64h-192v-704h192v-64h-256z" />
    <glyph glyph-name="backslash" unicode="\" 
d="M384 0v128h-64v128h-64v128h-64v128h-64v128h-64v192h64v-128h64v-128h64v-128h64v-128h64v-128h64v-192h-64z" />
    <glyph glyph-name="bracketright" unicode="]" 
d="M128 0v64h192v704h-192v64h256v-832h-256z" />
    <glyph glyph-name="asciicircum" unicode="^" 
d="M64 0v192h64v-192h-64zM448 0v192h64v-192h-64zM128 192v192h64v-192h-64zM384 192v192h64v-192h-64zM192 384v192h64v-192h-64zM320 384v192h64v-192h-64zM256 576v64h64v-64h-64z" />
    <glyph glyph-name="underscore" unicode="_" 
d="M64 64v64h384v-64h-384z" />
    <glyph glyph-name="grave" unicode="`" 
d="M192 704v64h128v-64h-128zM64 768v64h128v-64h-128z" />
    <glyph glyph-name="a" unicode="a" 
d="M448 0v64h64v-64h-64zM320 64v192h-64v-64h-64v-128h128zM128 0v64h-64v128h64v64h64v64h128v192h-128v-64h-64v-64h64v-64h-128v192h64v64h256v-64h64v-448h-64v-64h-256z" />
    <glyph glyph-name="b" unicode="b" 
d="M384 128v320h-192v-320h192zM64 0v768h-64v64h192v-320h64v64h128v-64h64v-64h64v-320h-64v-64h-64v-64h-192v64h-64v-64h-64z" />
    <glyph glyph-name="c" unicode="c" 
d="M384 64v64h64v-64h-64zM384 384v128h64v-128h-64zM192 0v64h-64v64h-64v320h64v64h64v64h192v-64h-128v-64h-64v-320h64v-64h128v-64h-192z" />
    <glyph glyph-name="d" unicode="d" 
d="M320 128v320h-192v-320h192zM128 0v64h-64v64h-64v320h64v64h64v64h128v-64h64v256h-64v64h192v-832h-64v64h-64v-64h-192z" />
    <glyph glyph-name="e" unicode="e" 
d="M320 320v128h-64v64h-64v-64h-64v-128h192zM128 0v64h-64v64h-64v320h64v64h64v64h192v-64h64v-64h64v-192h-320v-128h64v-64h128v64h64v64h64v-128h-64v-64h-256z" />
    <glyph glyph-name="f" unicode="f" 
d="M320 640v64h64v64h64v-128h-128zM64 0v64h64v384h-128v64h128v256h64v64h192v-64h-128v-256h192v-64h-192v-384h64v-64h-256z" />
    <glyph glyph-name="g" unicode="g" 
d="M128 -128v64h192v128h-64v64h-64v-64h-64v-128h-64v192h64v64h-64v64h64v128h-64v128h128v-192h128v-64h-128v-64h192v-64h64v-192h-64v-64h-256zM320 320v192h128v-128h-64v-64h-64zM192 512v64h128v-64h-128zM448 512v64h64v-64h-64z" />
    <glyph glyph-name="h" unicode="h" 
d="M320 0v512h-64v64h128v-64h64v-448h64v-64h-192zM0 0v64h64v704h-64v64h192v-320h64v-64h-64v-384h64v-64h-256z" />
    <glyph glyph-name="i" unicode="i" 
d="M128 0v64h64v384h-64v64h192v-448h64v-64h-256zM192 576v128h128v-128h-128z" />
    <glyph glyph-name="j" unicode="j" 
d="M64 -64v128h128v-64h-64v-64h-64zM128 -128v64h128v512h-128v64h256v-576h-64v-64h-192zM192 576v128h128v-128h-128z" />
    <glyph glyph-name="k" unicode="k" 
d="M320 384v64h64v-64h-64zM384 448v128h128v-64h-64v-64h-64zM0 0v64h64v704h-64v64h192v-512h64v64h64v-192h64v-64h64v-64h64v-64h-128v64h-64v64h-64v64h-64v-128h64v-64h-256z" />
    <glyph glyph-name="l" unicode="l" 
d="M128 0v64h64v704h-64v64h192v-768h64v-64h-256z" />
    <glyph glyph-name="m" unicode="m" 
d="M192 0v512h64v-512h-64zM0 0v576h64v-64h64v-512h-128zM128 512v64h64v-64h-64zM320 0v512h-64v64h128v-64h64v-512h-128z" />
    <glyph glyph-name="n" unicode="n" 
d="M0 0v64h64v448h-64v64h192v-64h64v-64h-64v-448h-192zM320 0v512h-64v64h128v-64h64v-512h-128z" />
    <glyph glyph-name="o" unicode="o" 
d="M256 64v64h64v320h-64v64h-64v-64h-64v-320h64v-64h64zM128 0v64h-64v64h-64v320h64v64h64v64h192v-64h64v-64h64v-320h-64v-64h-64v-64h-192z" />
    <glyph glyph-name="p" unicode="p" 
d="M320 128v384h-64v-64h-64v-320h128zM0 -128v64h64v576h-64v64h128v-64h64v64h192v-64h64v-384h-64v-64h-64v-64h-64v64h-64v-128h64v-64h-256z" />
    <glyph glyph-name="q" unicode="q" 
d="M256 128v320h-64v64h-64v-384h128zM192 -128v64h64v128h-64v-64h-64v64h-64v64h-64v384h64v64h192v-64h64v64h128v-64h-64v-576h64v-64h-256z" />
    <glyph glyph-name="r" unicode="r" 
d="M0 0v64h64v448h-64v64h192v-192h64v-64h-64v-256h64v-64h-256zM256 384v128h64v64h64v-64h64v-128h-64v64h-64v-64h-64z" />
    <glyph glyph-name="s" unicode="s" 
d="M64 0v192h64v-64h64v-64h-64v-64h-64zM192 0v64h128v128h-128v64h-64v64h-64v192h64v64h192v-64h-128v-128h64v-64h128v-64h64v-192h-64v-64h-192zM384 384v64h-64v64h64v64h64v-192h-64z" />
    <glyph glyph-name="t" unicode="t" 
d="M384 64v192h64v-192h-64zM192 0v64h-64v384h-64v64h64v128h64v128h128v-64h-64v-192h192v-64h-192v-384h128v-64h-192z" />
    <glyph glyph-name="u" unicode="u" 
d="M128 0v64h-64v448h-64v64h192v-512h128v-64h-192zM384 0v64h-64v448h-64v64h192v-576h-64z" />
    <glyph glyph-name="v" unicode="v" 
d="M192 0v128h-64v192h-64v192h-64v64h192v-192h64v-192h64v192h64v128h-64v64h192v-64h-64v-192h-64v-192h-64v-128h-128z" />
    <glyph glyph-name="w" unicode="w" 
d="M128 0v192h-64v256h-64v128h128v-256h64v256h128v-128h-64v-64h64v-128h64v320h128v-128h-64v-256h-64v-192h-64v128h-64v128h-64v-128h64v-128h-128z" />
    <glyph glyph-name="x" unicode="x" 
d="M64 0v128h64v-128h-64zM128 128v64h64v-64h-64zM320 320v128h64v-128h-64zM320 0v128h-64v64h-64v128h-64v128h-64v128h128v-128h64v-128h64v-64h64v-128h64v-128h-128zM384 448v128h64v-128h-64z" />
    <glyph glyph-name="y" unicode="y" 
d="M128 -128v64h-64v128h128v-128h64v-64h-128zM256 -64v256h-64v128h-64v128h-64v64h-64v64h256v-64h-64v-64h64v-128h64v64h64v192h128v-64h-64v-192h-64v-192h-64v-192h-64z" />
    <glyph glyph-name="z" unicode="z" 
d="M64 0v192h64v64h64v64h64v64h64v64h64v64h-192v-64h-64v-64h-64v192h384v-256h-64v-64h-64v-64h-64v-64h-64v-64h128v64h64v64h64v-192h-384z" />
    <glyph glyph-name="braceleft" unicode="{" 
d="M256 0v64h-64v320h-64v64h64v320h64v64h128v-64h-64v-320h-64v-64h64v-320h64v-64h-128z" />
    <glyph glyph-name="bar" unicode="|" 
d="M256 0v832h64v-832h-64z" />
    <glyph glyph-name="braceright" unicode="}" 
d="M128 0v64h64v320h64v64h-64v320h-64v64h128v-64h64v-320h64v-64h-64v-320h-64v-64h-128z" />
    <glyph glyph-name="asciitilde" unicode="~" 
d="M64 192v128h64v-128h-64zM320 192v64h-128v64h-64v64h128v-64h128v-64h64v-64h-128zM448 256v128h64v-128h-64z" />
    <glyph glyph-name="uni007F" 
d="M448 64v704h-320v-704h320zM64 0v832h448v-832h-448z" />
    <glyph glyph-name="uni00A0" unicode="&#xa0;" 
 />
    <glyph glyph-name="exclamdown" unicode="&#xa1;" 
d="M192 0v64h-64v320h64v256h128v-256h64v-320h-64v-64h-128zM192 704v128h128v-128h-128z" />
    <glyph glyph-name="cent" unicode="&#xa2;" 
d="M384 64v64h64v-64h-64zM256 128v320h-64v-320h64zM384 384v128h64v-128h-64zM256 -64v64h-64v64h-64v64h-64v320h64v64h64v64h64v64h64v-64h64v-64h-64v-448h64v-64h-64v-64h-64z" />
    <glyph glyph-name="yen" unicode="&#xa5;" 
d="M256 0v256h-128v64h128v128h-128v64h128v64h64v-64h128v-64h-128v-128h128v-64h-128v-256h-64zM192 576v128h64v-128h-64zM320 576v128h64v-128h-64zM128 704v128h64v-128h-64zM384 704v128h64v-128h-64z" />
    <glyph glyph-name="brokenbar" unicode="&#xa6;" 
d="M256 0v384h64v-384h-64zM256 512v320h64v-320h-64z" />
    <glyph glyph-name="dieresis" unicode="&#xa8;" 
d="M64 704v128h128v-128h-128zM320 704v128h128v-128h-128z" />
    <glyph glyph-name="copyright" unicode="&#xa9;" 
d="M128 0v64h256v-64h-256zM64 64v64h64v-64h-64zM384 64v64h64v-64h-64zM0 128v256h64v-256h-64zM192 128v64h-64v128h64v64h192v-64h-128v-128h128v-64h-192zM448 128v256h64v-256h-64zM64 384v64h64v-64h-64zM384 384v64h64v-64h-64zM128 448v64h256v-64h-256z" />
    <glyph glyph-name="guillemotleft" unicode="&#xab;" 
d="M256 192v64h64v-64h-64zM448 192v64h64v-64h-64zM192 256v64h64v-64h-64zM384 256v64h64v-64h-64zM128 320v64h64v-64h-64zM320 320v64h64v-64h-64zM64 384v64h64v-64h-64zM256 384v64h64v-64h-64zM128 448v64h64v-64h-64zM320 448v64h64v-64h-64zM192 512v64h64v-64h-64
zM384 512v64h64v-64h-64zM256 576v64h64v-64h-64zM448 576v64h64v-64h-64z" />
    <glyph glyph-name="logicalnot" unicode="&#xac;" 
d="M384 192v128h-384v64h448v-192h-64z" />
    <glyph glyph-name="uni00AD" unicode="&#xad;" 
d="M64 320v64h384v-64h-384z" />
    <glyph glyph-name="registered" unicode="&#xae;" 
d="M128 0v64h256v-64h-256zM64 64v64h64v-64h-64zM384 64v64h64v-64h-64zM256 256v64h-64v-64h64zM0 128v256h64v-256h-64zM128 128v256h192v-64h64v-64h-64v-64h64v-64h-128v64h-64v-64h-64zM448 128v256h64v-256h-64zM64 384v64h64v-64h-64zM384 384v64h64v-64h-64z
M128 448v64h256v-64h-256z" />
    <glyph glyph-name="macron" unicode="&#xaf;" 
d="M64 768v64h256v-64h-256z" />
    <glyph glyph-name="degree" unicode="&#xb0;" 
d="M128 576v64h128v-64h-128zM64 640v128h64v-128h-64zM256 640v128h64v-128h-64zM128 768v64h128v-64h-128z" />
    <glyph glyph-name="plusminus" unicode="&#xb1;" 
d="M64 0v64h448v-64h-448zM256 128v192h-192v64h192v192h64v-192h192v-64h-192v-192h-64z" />
    <glyph glyph-name="twosuperior" unicode="&#xb2;" 
d="M64 448v128h64v64h192v128h-128v-64h-128v64h64v64h256v-64h64v-128h-64v-64h-192v-64h192v64h64v-128h-384z" />
    <glyph glyph-name="threesuperior" unicode="&#xb3;" 
d="M128 448v64h-64v64h128v-64h128v64h-64v128h64v64h-128v-64h-128v64h64v64h256v-64h64v-64h-64v-64h64v-128h-64v-64h-256z" />
    <glyph glyph-name="acute" unicode="&#xb4;" 
d="M64 704v64h128v-64h-128zM192 768v64h128v-64h-128z" />
    <glyph glyph-name="mu" unicode="&#xb5;" 
d="M0 -128v64h64v576h-64v64h192v-448h128v-64h-128v-192h-192zM384 64v64h-64v384h-64v64h192v-512h-64z" />
    <glyph glyph-name="paragraph" unicode="&#xb6;" 
d="M256 0v512h-128v64h-64v256h64v64h384v-896h-64v832h-128v-832h-64z" />
    <glyph glyph-name="periodcentered" unicode="&#xb7;" 
d="M192 320v64h128v-64h-128z" />
    <glyph glyph-name="cedilla" unicode="&#xb8;" 
d="M64 -128v64h128v-64h-128zM192 -64v64h64v-64h-64zM128 0v64h64v-64h-64z" />
    <glyph glyph-name="onesuperior" unicode="&#xb9;" 
d="M64 448v64h128v192h-128v64h128v64h128v-320h128v-64h-384z" />
    <glyph glyph-name="guillemotright" unicode="&#xbb;" 
d="M0 192v64h64v-64h-64zM192 192v64h64v-64h-64zM64 256v64h64v-64h-64zM256 256v64h64v-64h-64zM128 320v64h64v-64h-64zM320 320v64h64v-64h-64zM192 384v64h64v-64h-64zM384 384v64h64v-64h-64zM128 448v64h64v-64h-64zM320 448v64h64v-64h-64zM64 512v64h64v-64h-64z
M256 512v64h64v-64h-64zM0 576v64h64v-64h-64zM192 576v64h64v-64h-64z" />
    <glyph glyph-name="questiondown" unicode="&#xbf;" 
d="M128 0v64h-64v320h64v64h64v64h64v128h64v-192h-64v-128h-64v-256h128v64h64v64h-64v128h128v-256h-64v-64h-256zM192 704v128h128v-128h-128z" />
    <glyph glyph-name="Agrave" unicode="&#xc0;" 
d="M0 0v64h64v256h64v-256h64v-64h-192zM256 0v64h64v256h-192v256h64v-192h64v192h-64v192h128v-192h64v-256h64v-256h64v-64h-256zM256 832v64h128v-64h-128zM128 896v64h128v-64h-128z" />
    <glyph glyph-name="Aacute" unicode="&#xc1;" 
d="M0 0v64h64v256h64v-256h64v-64h-192zM256 0v64h64v256h-192v256h64v-192h64v192h-64v192h128v-192h64v-256h64v-256h64v-64h-256zM128 832v64h128v-64h-128zM256 896v64h128v-64h-128z" />
    <glyph glyph-name="Acircumflex" unicode="&#xc2;" 
d="M0 0v64h64v256h64v-256h64v-64h-192zM256 0v64h64v256h-192v256h64v-192h64v192h-64v192h128v-192h64v-256h64v-256h64v-64h-256zM128 832v64h64v-64h-64zM320 832v64h64v-64h-64zM192 896v64h128v-64h-128z" />
    <glyph glyph-name="Atilde" unicode="&#xc3;" 
d="M0 0v64h64v256h64v-256h64v-64h-192zM256 0v64h64v256h-192v256h64v-192h64v192h-64v192h128v-192h64v-256h64v-256h64v-64h-256zM64 832v64h64v-64h-64zM256 832v64h128v-64h-128zM128 896v64h128v-64h-128zM384 896v64h64v-64h-64z" />
    <glyph glyph-name="Adieresis" unicode="&#xc4;" 
d="M0 0v64h64v256h64v-256h64v-64h-192zM256 0v64h64v256h-192v256h64v-192h64v192h-64v192h128v-192h64v-256h64v-256h64v-64h-256zM64 832v128h128v-128h-128zM320 832v128h128v-128h-128z" />
    <glyph glyph-name="Aring" unicode="&#xc5;" 
d="M0 0v64h64v192h64v-192h64v-64h-192zM256 0v64h64v192h-192v256h64v-192h64v192h-64v192h128v-192h64v-256h64v-192h64v-64h-256zM192 768v64h128v-64h-128zM128 832v64h64v-64h-64zM320 832v64h64v-64h-64zM192 896v64h128v-64h-128z" />
    <glyph glyph-name="AE" unicode="&#xc6;" 
d="M0 0v64h64v256h64v-256h64v-64h-192zM256 0v320h-128v320h64v-256h64v256h-64v192h320v-192h-64v128h-64v-320h64v64h64v-192h-64v64h-64v-320h64v128h64v-192h-256z" />
    <glyph glyph-name="Ccedilla" unicode="&#xc7;" 
d="M192 -128v64h128v-64h-128zM320 -64v64h64v-64h-64zM256 0v64h-64v64h-64v64h-64v512h64v64h64v64h128v-64h-64v-64h-64v-512h64v-64h64v64h64v128h64v-192h-64v-64h-64v-64h-64zM384 512v128h-64v128h64v64h64v-320h-64z" />
    <glyph glyph-name="Egrave" unicode="&#xc8;" 
d="M0 0v64h64v640h-64v64h448v-192h-64v64h-64v64h-128v-256h128v64h64v-192h-64v64h-128v-320h128v64h64v128h64v-256h-448zM192 832v64h128v-64h-128zM64 896v64h128v-64h-128z" />
    <glyph glyph-name="Eacute" unicode="&#xc9;" 
d="M0 0v64h64v640h-64v64h448v-192h-64v64h-64v64h-128v-256h128v64h64v-192h-64v64h-128v-320h128v64h64v128h64v-256h-448zM128 832v64h128v-64h-128zM256 896v64h128v-64h-128z" />
    <glyph glyph-name="Ecircumflex" unicode="&#xca;" 
d="M0 0v64h64v640h-64v64h448v-192h-64v64h-64v64h-128v-256h128v64h64v-192h-64v64h-128v-320h128v64h64v128h64v-256h-448zM128 832v64h64v-64h-64zM256 832v64h64v-64h-64zM192 896v64h64v-64h-64z" />
    <glyph glyph-name="Edieresis" unicode="&#xcb;" 
d="M0 0v64h64v640h-64v64h448v-192h-64v64h-64v64h-128v-256h128v64h64v-192h-64v64h-128v-320h128v64h64v128h64v-256h-448zM64 832v128h128v-128h-128zM320 832v128h128v-128h-128z" />
    <glyph glyph-name="Igrave" unicode="&#xcc;" 
d="M128 0v64h64v640h-64v64h256v-64h-64v-640h64v-64h-256zM256 832v64h128v-64h-128zM128 896v64h128v-64h-128z" />
    <glyph glyph-name="Iacute" unicode="&#xcd;" 
d="M128 0v64h64v640h-64v64h256v-64h-64v-640h64v-64h-256zM128 832v64h128v-64h-128zM256 896v64h128v-64h-128z" />
    <glyph glyph-name="Icircumflex" unicode="&#xce;" 
d="M128 0v64h64v640h-64v64h256v-64h-64v-640h64v-64h-256zM128 832v64h64v-64h-64zM320 832v64h64v-64h-64zM192 896v64h128v-64h-128z" />
    <glyph glyph-name="Idieresis" unicode="&#xcf;" 
d="M128 0v64h64v640h-64v64h256v-64h-64v-640h64v-64h-256zM64 832v128h128v-128h-128zM320 832v128h128v-128h-128z" />
    <glyph glyph-name="Eth" unicode="&#xd0;" 
d="M256 64v64h64v576h-64v64h-64v-256h64v-64h-64v-384h64zM0 0v64h64v384h-64v64h64v256h-64v64h320v-64h64v-64h64v-576h-64v-64h-64v-64h-320z" />
    <glyph glyph-name="Ntilde" unicode="&#xd1;" 
d="M0 0v64h64v640h-64v64h192v-128h64v-128h64v-128h64v320h-64v64h192v-64h-64v-640h64v-64h-192v64h64v64h-64v128h-64v64h-64v128h-64v-384h64v-64h-192zM64 832v64h64v-64h-64zM256 832v64h128v-64h-128zM128 896v64h128v-64h-128zM384 896v64h64v-64h-64z" />
    <glyph glyph-name="Ograve" unicode="&#xd2;" 
d="M320 64v640h-128v-640h128zM128 0v64h-64v640h64v64h256v-64h64v-640h-64v-64h-256zM256 832v64h128v-64h-128zM128 896v64h128v-64h-128z" />
    <glyph glyph-name="Oacute" unicode="&#xd3;" 
d="M320 64v640h-128v-640h128zM128 0v64h-64v640h64v64h256v-64h64v-640h-64v-64h-256zM128 832v64h128v-64h-128zM256 896v64h128v-64h-128z" />
    <glyph glyph-name="Ocircumflex" unicode="&#xd4;" 
d="M320 64v640h-128v-640h128zM128 0v64h-64v640h64v64h256v-64h64v-640h-64v-64h-256zM128 832v64h64v-64h-64zM320 832v64h64v-64h-64zM192 896v64h128v-64h-128z" />
    <glyph glyph-name="Otilde" unicode="&#xd5;" 
d="M320 64v640h-128v-640h128zM128 0v64h-64v640h64v64h256v-64h64v-640h-64v-64h-256zM64 832v64h64v-64h-64zM256 832v64h128v-64h-128zM128 896v64h128v-64h-128zM384 896v64h64v-64h-64z" />
    <glyph glyph-name="Odieresis" unicode="&#xd6;" 
d="M320 64v640h-128v-640h128zM128 0v64h-64v640h64v64h256v-64h64v-640h-64v-64h-256zM64 832v128h128v-128h-128zM320 832v128h128v-128h-128z" />
    <glyph glyph-name="multiply" unicode="&#xd7;" 
d="M0 128v64h64v-64h-64zM384 128v64h64v-64h-64zM64 192v64h64v-64h-64zM320 192v64h64v-64h-64zM128 256v64h64v-64h-64zM256 256v64h64v-64h-64zM192 320v64h64v-64h-64zM128 384v64h64v-64h-64zM256 384v64h64v-64h-64zM64 448v64h64v-64h-64zM320 448v64h64v-64h-64z
M0 512v64h64v-64h-64zM384 512v64h64v-64h-64z" />
    <glyph glyph-name="Oslash" unicode="&#xd8;" 
d="M320 128v256h-64v-128h-64v-128h128zM256 448v128h64v128h-128v-256h64zM64 0v704h64v64h256v64h64v-704h-64v-64h-256v-64h-64z" />
    <glyph glyph-name="Ugrave" unicode="&#xd9;" 
d="M128 0v64h-64v640h-64v64h256v-64h-64v-640h192v-64h-256zM384 64v640h-64v64h192v-64h-64v-640h-64zM256 832v64h128v-64h-128zM128 896v64h128v-64h-128z" />
    <glyph glyph-name="Uacute" unicode="&#xda;" 
d="M128 0v64h-64v640h-64v64h256v-64h-64v-640h192v-64h-256zM384 64v640h-64v64h192v-64h-64v-640h-64zM128 832v64h128v-64h-128zM256 896v64h128v-64h-128z" />
    <glyph glyph-name="Ucircumflex" unicode="&#xdb;" 
d="M128 0v64h-64v640h-64v64h256v-64h-64v-640h192v-64h-256zM384 64v640h-64v64h192v-64h-64v-640h-64zM128 832v64h64v-64h-64zM320 832v64h64v-64h-64zM192 896v64h128v-64h-128z" />
    <glyph glyph-name="Udieresis" unicode="&#xdc;" 
d="M128 0v64h-64v640h-64v64h256v-64h-64v-640h192v-64h-256zM384 64v640h-64v64h192v-64h-64v-640h-64zM64 832v128h128v-128h-128zM320 832v128h128v-128h-128z" />
    <glyph glyph-name="Yacute" unicode="&#xdd;" 
d="M320 384v192h64v-192h-64zM128 0v64h64v320h-64v192h-64v128h-64v64h192v-192h64v-192h64v-320h64v-64h-256zM384 576v128h-64v64h192v-64h-64v-128h-64zM128 832v64h128v-64h-128zM256 896v64h128v-64h-128z" />
    <glyph glyph-name="Thorn" unicode="&#xde;" 
d="M320 256v384h-128v-384h128zM0 0v64h64v704h-64v64h192v-128h192v-64h64v-384h-64v-64h-192v-128h64v-64h-256z" />
    <glyph glyph-name="germandbls" unicode="&#xdf;" 
d="M256 448v320h-64v-320h64zM0 0v64h64v704h64v64h192v-64h64v-320h64v-384h-64v-64h-128v64h64v256h-64v64h-64v-256h64v-64h-64v-64h-192z" />
    <glyph glyph-name="agrave" unicode="&#xe0;" 
d="M448 0v64h64v-64h-64zM320 64v192h-64v-64h-64v-128h128zM128 0v64h-64v128h64v64h64v64h128v192h-128v-64h-64v-64h64v-64h-128v192h64v64h256v-64h64v-448h-64v-64h-256zM256 640v64h128v-64h-128zM128 704v64h128v-64h-128z" />
    <glyph glyph-name="aacute" unicode="&#xe1;" 
d="M448 0v64h64v-64h-64zM320 64v192h-64v-64h-64v-128h128zM128 0v64h-64v128h64v64h64v64h128v192h-128v-64h-64v-64h64v-64h-128v192h64v64h256v-64h64v-448h-64v-64h-256zM128 640v64h128v-64h-128zM256 704v64h128v-64h-128z" />
    <glyph glyph-name="acircumflex" unicode="&#xe2;" 
d="M448 0v64h64v-64h-64zM320 64v192h-64v-64h-64v-128h128zM128 0v64h-64v128h64v64h64v64h128v192h-128v-64h-64v-64h64v-64h-128v192h64v64h256v-64h64v-448h-64v-64h-256zM192 640v64h64v-64h-64zM320 640v64h64v-64h-64zM256 704v64h64v-64h-64z" />
    <glyph glyph-name="atilde" unicode="&#xe3;" 
d="M448 0v64h64v-64h-64zM320 64v192h-64v-64h-64v-128h128zM128 0v64h-64v128h64v64h64v64h128v192h-128v-64h-64v-64h64v-64h-128v192h64v64h256v-64h64v-448h-64v-64h-256zM64 640v64h64v-64h-64zM256 640v64h128v-64h-128zM128 704v64h128v-64h-128zM384 704v64h64v-64
h-64z" />
    <glyph glyph-name="adieresis" unicode="&#xe4;" 
d="M448 0v64h64v-64h-64zM320 64v192h-64v-64h-64v-128h128zM128 0v64h-64v128h64v64h64v64h128v192h-128v-64h-64v-64h64v-64h-128v192h64v64h256v-64h64v-448h-64v-64h-256zM64 640v128h128v-128h-128zM320 640v128h128v-128h-128z" />
    <glyph glyph-name="aring" unicode="&#xe5;" 
d="M448 0v64h64v-64h-64zM320 64v192h-64v-64h-64v-128h128zM128 0v64h-64v128h64v64h64v64h128v192h-128v-64h-64v-64h64v-64h-128v192h64v64h256v-64h64v-448h-64v-64h-256zM192 640v64h128v-64h-128zM128 704v64h64v-64h-64zM320 704v64h64v-64h-64zM192 768v64h128v-64
h-128z" />
    <glyph glyph-name="ae" unicode="&#xe6;" 
d="M192 64v128h-64v-128h64zM448 320v128h-128v-128h128zM64 0v64h-64v128h64v64h64v64h64v192h-64v-64h-64v-64h64v-64h-128v192h64v64h192v-64h64v64h128v-64h64v-256h-192v-128h128v64h64v-128h-64v-64h-128v64h-64v-64h-192z" />
    <glyph glyph-name="ccedilla" unicode="&#xe7;" 
d="M192 -128v64h128v-64h-128zM320 -64v64h64v-64h-64zM384 128v64h64v-64h-64zM384 448v128h64v-128h-64zM256 0v64h-64v64h-64v64h-64v320h64v64h64v64h192v-64h-128v-64h-64v-320h64v-64h128v-64h-64v-64h-64z" />
    <glyph glyph-name="egrave" unicode="&#xe8;" 
d="M320 320v128h-64v64h-64v-64h-64v-128h192zM128 0v64h-64v64h-64v320h64v64h64v64h192v-64h64v-64h64v-192h-320v-128h64v-64h128v64h64v64h64v-128h-64v-64h-256zM256 640v64h128v-64h-128zM128 704v64h128v-64h-128z" />
    <glyph glyph-name="eacute" unicode="&#xe9;" 
d="M320 320v128h-64v64h-64v-64h-64v-128h192zM128 0v64h-64v64h-64v320h64v64h64v64h192v-64h64v-64h64v-192h-320v-128h64v-64h128v64h64v64h64v-128h-64v-64h-256zM128 640v64h128v-64h-128zM256 704v64h128v-64h-128z" />
    <glyph glyph-name="ecircumflex" unicode="&#xea;" 
d="M320 320v128h-64v64h-64v-64h-64v-128h192zM128 0v64h-64v64h-64v320h64v64h64v64h192v-64h64v-64h64v-192h-320v-128h64v-64h128v64h64v64h64v-128h-64v-64h-256zM128 640v64h64v-64h-64zM256 640v64h64v-64h-64zM192 704v64h64v-64h-64z" />
    <glyph glyph-name="edieresis" unicode="&#xeb;" 
d="M320 320v128h-64v64h-64v-64h-64v-128h192zM128 0v64h-64v64h-64v320h64v64h64v64h192v-64h64v-64h64v-192h-320v-128h64v-64h128v64h64v64h64v-128h-64v-64h-256zM64 640v128h128v-128h-128zM320 640v128h128v-128h-128z" />
    <glyph glyph-name="igrave" unicode="&#xec;" 
d="M128 0v64h64v384h-64v64h192v-448h64v-64h-256zM256 576v64h128v-64h-128zM128 640v64h128v-64h-128z" />
    <glyph glyph-name="iacute" unicode="&#xed;" 
d="M128 0v64h64v384h-64v64h192v-448h64v-64h-256zM128 576v64h128v-64h-128zM256 640v64h128v-64h-128z" />
    <glyph glyph-name="icircumflex" unicode="&#xee;" 
d="M128 0v64h64v384h-64v64h192v-448h64v-64h-256zM128 576v64h64v-64h-64zM256 576v64h64v-64h-64zM192 640v64h64v-64h-64z" />
    <glyph glyph-name="idieresis" unicode="&#xef;" 
d="M128 0v64h64v384h-64v64h192v-448h64v-64h-256zM64 576v128h128v-128h-128zM320 576v128h128v-128h-128z" />
    <glyph glyph-name="eth" unicode="&#xf0;" 
d="M320 128v256h-192v-256h192zM0 576v64h64v-64h-64zM64 640v64h64v-64h-64zM128 0v64h-64v64h-64v256h64v64h64v64h128v-64h64v64h-64v128h-64v64h-64v64h-128v64h192v-64h64v-64h64v-64h64v-128h64v-512h-64v64h-64v-64h-192zM256 768v64h128v-64h-128z" />
    <glyph glyph-name="ntilde" unicode="&#xf1;" 
d="M0 0v64h64v448h-64v64h192v-64h64v-64h-64v-448h-192zM320 0v512h-64v64h128v-64h64v-512h-128zM64 640v64h64v-64h-64zM256 640v64h128v-64h-128zM128 704v64h128v-64h-128zM384 704v64h64v-64h-64z" />
    <glyph glyph-name="ograve" unicode="&#xf2;" 
d="M256 64v64h64v320h-64v64h-64v-64h-64v-320h64v-64h64zM128 0v64h-64v64h-64v320h64v64h64v64h192v-64h64v-64h64v-320h-64v-64h-64v-64h-192zM256 640v64h128v-64h-128zM128 704v64h128v-64h-128z" />
    <glyph glyph-name="oacute" unicode="&#xf3;" 
d="M256 64v64h64v320h-64v64h-64v-64h-64v-320h64v-64h64zM128 0v64h-64v64h-64v320h64v64h64v64h192v-64h64v-64h64v-320h-64v-64h-64v-64h-192zM128 640v64h128v-64h-128zM256 704v64h128v-64h-128z" />
    <glyph glyph-name="ocircumflex" unicode="&#xf4;" 
d="M256 64v64h64v320h-64v64h-64v-64h-64v-320h64v-64h64zM128 0v64h-64v64h-64v320h64v64h64v64h192v-64h64v-64h64v-320h-64v-64h-64v-64h-192zM128 640v64h64v-64h-64zM256 640v64h64v-64h-64zM192 704v64h64v-64h-64z" />
    <glyph glyph-name="otilde" unicode="&#xf5;" 
d="M256 64v64h64v320h-64v64h-64v-64h-64v-320h64v-64h64zM128 0v64h-64v64h-64v320h64v64h64v64h192v-64h64v-64h64v-320h-64v-64h-64v-64h-192zM64 640v64h64v-64h-64zM256 640v64h128v-64h-128zM128 704v64h128v-64h-128zM384 704v64h64v-64h-64z" />
    <glyph glyph-name="odieresis" unicode="&#xf6;" 
d="M256 64v64h64v320h-64v64h-64v-64h-64v-320h64v-64h64zM128 0v64h-64v64h-64v320h64v64h64v64h192v-64h64v-64h64v-320h-64v-64h-64v-64h-192zM64 640v128h128v-128h-128zM320 640v128h128v-128h-128z" />
    <glyph glyph-name="divide" unicode="&#xf7;" 
d="M192 128v128h128v-128h-128zM64 320v64h384v-64h-384zM192 448v128h128v-128h-128z" />
    <glyph glyph-name="oslash" unicode="&#xf8;" 
d="M320 128v192h-64v-128h-64v-64h128zM256 384v128h64v64h-128v-192h64zM64 0v576h64v64h256v64h64v-576h-64v-64h-256v-64h-64z" />
    <glyph glyph-name="ugrave" unicode="&#xf9;" 
d="M128 0v64h-64v448h-64v64h192v-512h128v-64h-192zM384 0v64h-64v448h-64v64h192v-576h-64zM256 640v64h128v-64h-128zM128 704v64h128v-64h-128z" />
    <glyph glyph-name="uacute" unicode="&#xfa;" 
d="M128 0v64h-64v448h-64v64h192v-512h128v-64h-192zM384 0v64h-64v448h-64v64h192v-576h-64zM128 640v64h128v-64h-128zM256 704v64h128v-64h-128z" />
    <glyph glyph-name="ucircumflex" unicode="&#xfb;" 
d="M128 0v64h-64v448h-64v64h192v-512h128v-64h-192zM384 0v64h-64v448h-64v64h192v-576h-64zM128 640v64h64v-64h-64zM256 640v64h64v-64h-64zM192 704v64h64v-64h-64z" />
    <glyph glyph-name="udieresis" unicode="&#xfc;" 
d="M128 0v64h-64v448h-64v64h192v-512h128v-64h-192zM384 0v64h-64v448h-64v64h192v-576h-64zM64 640v128h128v-128h-128zM320 640v128h128v-128h-128z" />
    <glyph glyph-name="yacute" unicode="&#xfd;" 
d="M128 -128v64h-64v128h128v-128h64v-64h-128zM256 -64v256h-64v128h-64v128h-64v64h-64v64h256v-64h-64v-64h64v-128h64v64h64v192h128v-64h-64v-192h-64v-192h-64v-192h-64zM128 640v64h128v-64h-128zM256 704v64h128v-64h-128z" />
    <glyph glyph-name="thorn" unicode="&#xfe;" 
d="M320 192v384h-64v-64h-64v-320h128zM0 -128v64h64v832h-64v64h192v-192h192v-64h64v-384h-64v-64h-64v-64h-64v64h-64v-192h64v-64h-256z" />
    <glyph glyph-name="ydieresis" unicode="&#xff;" 
d="M128 -128v64h-64v128h128v-128h64v-64h-128zM256 -64v256h-64v128h-64v128h-64v64h-64v64h256v-64h-64v-64h64v-128h64v64h64v192h128v-64h-64v-192h-64v-192h-64v-192h-64zM64 640v128h128v-128h-128zM320 640v128h128v-128h-128z" />
    <glyph glyph-name="Amacron" unicode="&#x100;" 
d="M0 0v64h64v256h64v-256h64v-64h-192zM256 0v64h64v256h-192v320h64v-256h64v256h-64v192h128v-192h64v-320h64v-256h64v-64h-256zM128 896v64h256v-64h-256z" />
    <glyph glyph-name="amacron" unicode="&#x101;" 
d="M448 0v64h64v-64h-64zM320 64v192h-64v-64h-64v-128h128zM128 0v64h-64v128h64v64h64v64h128v192h-128v-64h-64v-64h64v-64h-128v192h64v64h256v-64h64v-448h-64v-64h-256zM128 640v64h256v-64h-256z" />
    <glyph glyph-name="Cacute" unicode="&#x106;" 
d="M192 0v64h-64v64h-64v512h64v64h64v64h128v-64h-64v-64h-64v-512h64v-64h64v64h64v128h64v-192h-64v-64h-192zM384 448v128h-64v128h64v64h64v-320h-64zM128 832v64h128v-64h-128zM256 896v64h128v-64h-128z" />
    <glyph glyph-name="cacute" unicode="&#x107;" 
d="M384 64v64h64v-64h-64zM384 384v128h64v-128h-64zM192 0v64h-64v64h-64v320h64v64h64v64h192v-64h-128v-64h-64v-320h64v-64h128v-64h-192zM128 640v64h128v-64h-128zM256 704v64h128v-64h-128z" />
    <glyph glyph-name="Ccircumflex" unicode="&#x108;" 
d="M192 0v64h-64v64h-64v512h64v64h64v64h128v-64h-64v-64h-64v-512h64v-64h64v64h64v128h64v-192h-64v-64h-192zM384 448v128h-64v128h64v64h64v-320h-64zM192 832v64h64v-64h-64zM320 832v64h64v-64h-64zM256 896v64h64v-64h-64z" />
    <glyph glyph-name="ccircumflex" unicode="&#x109;" 
d="M384 64v64h64v-64h-64zM384 384v128h64v-128h-64zM192 0v64h-64v64h-64v320h64v64h64v64h192v-64h-128v-64h-64v-320h64v-64h128v-64h-192zM192 640v64h64v-64h-64zM320 640v64h64v-64h-64zM256 704v64h64v-64h-64z" />
    <glyph glyph-name="Cdotaccent" unicode="&#x10a;" 
d="M192 0v64h-64v64h-64v512h64v64h64v64h128v-64h-64v-64h-64v-512h64v-64h64v64h64v128h64v-192h-64v-64h-192zM384 448v128h-64v128h64v64h64v-320h-64zM192 832v128h128v-128h-128z" />
    <glyph glyph-name="cdotaccent" unicode="&#x10b;" 
d="M384 64v64h64v-64h-64zM384 384v128h64v-128h-64zM192 0v64h-64v64h-64v320h64v64h64v64h192v-64h-128v-64h-64v-320h64v-64h128v-64h-192zM256 640v128h128v-128h-128z" />
    <glyph glyph-name="Ccaron" unicode="&#x10c;" 
d="M192 0v64h-64v64h-64v512h64v64h64v64h128v-64h-64v-64h-64v-512h64v-64h64v64h64v128h64v-192h-64v-64h-192zM384 448v128h-64v128h64v64h64v-320h-64zM256 832v64h64v-64h-64zM192 896v64h64v-64h-64zM320 896v64h64v-64h-64z" />
    <glyph glyph-name="ccaron" unicode="&#x10d;" 
d="M384 64v64h64v-64h-64zM384 384v128h64v-128h-64zM192 0v64h-64v64h-64v320h64v64h64v64h192v-64h-128v-64h-64v-320h64v-64h128v-64h-192zM256 640v64h64v-64h-64zM192 704v64h64v-64h-64zM320 704v64h64v-64h-64z" />
    <glyph glyph-name="Dcaron" unicode="&#x10e;" 
d="M256 64v64h64v512h-64v64h-64v-640h64zM0 0v64h64v640h-64v64h320v-64h64v-64h64v-512h-64v-64h-64v-64h-320zM192 832v64h64v-64h-64zM128 896v64h64v-64h-64zM256 896v64h64v-64h-64z" />
    <glyph glyph-name="Dcroat" unicode="&#x110;" 
d="M256 64v64h64v576h-64v64h-64v-256h64v-64h-64v-384h64zM0 0v64h64v384h-64v64h64v256h-64v64h320v-64h64v-64h64v-576h-64v-64h-64v-64h-320z" />
    <glyph glyph-name="dcroat" unicode="&#x111;" 
d="M320 128v320h-192v-320h192zM128 0v64h-64v64h-64v320h64v64h64v64h128v-64h64v128h-128v64h128v64h-64v64h192v-128h64v-64h-64v-640h-64v64h-64v-64h-192z" />
    <glyph glyph-name="Emacron" unicode="&#x112;" 
d="M0 0v64h64v704h-64v64h448v-256h-64v128h-64v64h-128v-320h128v64h64v-192h-64v64h-128v-320h128v64h64v128h64v-256h-448zM64 896v64h320v-64h-320z" />
    <glyph glyph-name="emacron" unicode="&#x113;" 
d="M320 320v128h-64v64h-64v-64h-64v-128h192zM128 0v64h-64v64h-64v320h64v64h64v64h192v-64h64v-64h64v-192h-320v-128h64v-64h128v64h64v64h64v-128h-64v-64h-256zM64 640v64h320v-64h-320z" />
    <glyph glyph-name="Edotaccent" unicode="&#x116;" 
d="M0 0v64h64v640h-64v64h448v-192h-64v64h-64v64h-128v-256h128v64h64v-192h-64v64h-128v-320h128v64h64v128h64v-256h-448zM192 832v128h128v-128h-128z" />
    <glyph glyph-name="edotaccent" unicode="&#x117;" 
d="M320 320v128h-64v64h-64v-64h-64v-128h192zM128 0v64h-64v64h-64v320h64v64h64v64h192v-64h64v-64h64v-192h-320v-128h64v-64h128v64h64v64h64v-128h-64v-64h-256zM192 640v128h128v-128h-128z" />
    <glyph glyph-name="Ecaron" unicode="&#x11a;" 
d="M0 0v64h64v640h-64v64h448v-192h-64v64h-64v64h-128v-256h128v64h64v-192h-64v64h-128v-320h128v64h64v128h64v-256h-448zM192 832v64h64v-64h-64zM128 896v64h64v-64h-64zM256 896v64h64v-64h-64z" />
    <glyph glyph-name="ecaron" unicode="&#x11b;" 
d="M320 320v128h-64v64h-64v-64h-64v-128h192zM128 0v64h-64v64h-64v320h64v64h64v64h192v-64h64v-64h64v-192h-320v-128h64v-64h128v64h64v64h64v-128h-64v-64h-256zM192 640v64h64v-64h-64zM128 704v64h64v-64h-64zM256 704v64h64v-64h-64z" />
    <glyph glyph-name="Gcircumflex" unicode="&#x11c;" 
d="M384 0v64h-64v256h-64v64h192v-384h-64zM192 0v64h-64v64h-64v512h64v64h64v64h192v-64h64v-256h-64v192h-64v64h-64v-64h-64v-512h64v-64h64v-64h-128zM192 832v64h64v-64h-64zM320 832v64h64v-64h-64zM256 896v64h64v-64h-64z" />
    <glyph glyph-name="gcircumflex" unicode="&#x11d;" 
d="M128 -128v64h192v128h-64v64h-64v-64h-64v-128h-64v192h64v64h-64v64h64v128h-64v128h128v-192h128v-64h-128v-64h192v-64h64v-192h-64v-64h-256zM320 320v192h128v-128h-64v-64h-64zM192 512v64h128v-64h-128zM448 512v64h64v-64h-64zM128 640v64h64v-64h-64zM320 640
v64h64v-64h-64zM192 704v64h128v-64h-128z" />
    <glyph glyph-name="Gdotaccent" unicode="&#x120;" 
d="M384 0v64h-64v256h-64v64h192v-384h-64zM192 0v64h-64v64h-64v512h64v64h64v64h192v-64h64v-256h-64v192h-64v64h-64v-64h-64v-512h64v-64h64v-64h-128zM192 832v128h128v-128h-128z" />
    <glyph glyph-name="gdotaccent" unicode="&#x121;" 
d="M128 -128v64h192v128h-64v64h-64v-64h-64v-128h-64v192h64v64h-64v64h64v128h-64v128h128v-192h128v-64h-128v-64h192v-64h64v-192h-64v-64h-256zM320 320v192h128v-128h-64v-64h-64zM192 512v64h128v-64h-128zM448 512v64h64v-64h-64zM192 640v128h128v-128h-128z" />
    <glyph glyph-name="uni0122" unicode="&#x122;" 
d="M192 -128v64h128v-64h-128zM320 -64v64h64v-64h-64zM384 64v64h-64v256h-64v64h192v-384h-64zM256 0v64h-64v64h-64v64h-64v512h64v64h64v64h192v-64h64v-256h-64v192h-64v64h-64v-64h-64v-512h64v-64h64v-128h-64z" />
    <glyph glyph-name="Hcircumflex" unicode="&#x124;" 
d="M320 64v320h-128v-320h128zM320 448v256h-128v-256h128zM0 0v64h64v640h-64v64h512v-64h-64v-640h64v-64h-512zM128 832v64h64v-64h-64zM320 832v64h64v-64h-64zM192 896v64h128v-64h-128z" />
    <glyph glyph-name="hcircumflex" unicode="&#x125;" 
d="M320 0v448h-64v64h128v-64h64v-384h64v-64h-192zM0 0v64h64v640h-64v64h192v-320h64v-64h-64v-320h64v-64h-256zM0 832v64h64v-64h-64zM128 832v64h64v-64h-64zM64 896v64h64v-64h-64z" />
    <glyph glyph-name="Hbar" unicode="&#x126;" 
d="M320 64v320h-128v-320h128zM320 448v128h-128v-128h128zM320 640v128h-128v-128h128zM0 0v64h64v512h-64v64h64v128h-64v64h512v-64h-64v-128h64v-64h-64v-512h64v-64h-512z" />
    <glyph glyph-name="hbar" unicode="&#x127;" 
d="M320 0v512h-64v64h128v-64h64v-448h64v-64h-192zM0 0v64h64v576h-64v64h64v64h-64v64h192v-128h192v-64h-192v-128h64v-64h-64v-384h64v-64h-256z" />
    <glyph glyph-name="Itilde" unicode="&#x128;" 
d="M128 0v64h64v640h-64v64h256v-64h-64v-640h64v-64h-256zM64 832v64h64v-64h-64zM256 832v64h128v-64h-128zM128 896v64h128v-64h-128zM384 896v64h64v-64h-64z" />
    <glyph glyph-name="itilde" unicode="&#x129;" 
d="M128 0v64h64v384h-64v64h192v-448h64v-64h-256zM64 576v64h64v-64h-64zM256 576v64h128v-64h-128zM128 640v64h128v-64h-128zM384 640v64h64v-64h-64z" />
    <glyph glyph-name="Imacron" unicode="&#x12a;" 
d="M128 0v64h64v704h-64v64h256v-64h-64v-704h64v-64h-256zM128 896v64h256v-64h-256z" />
    <glyph glyph-name="imacron" unicode="&#x12b;" 
d="M128 0v64h64v384h-64v64h192v-448h64v-64h-256zM128 576v64h256v-64h-256z" />
    <glyph glyph-name="Idotaccent" unicode="&#x130;" 
d="M128 0v64h64v640h-64v64h256v-64h-64v-640h64v-64h-256zM192 832v128h128v-128h-128z" />
    <glyph glyph-name="dotlessi" unicode="&#x131;" 
d="M128 0v64h64v384h-64v64h192v-448h64v-64h-256z" />
    <glyph glyph-name="Jcircumflex" unicode="&#x134;" 
d="M64 64v192h128v-128h-64v-64h-64zM128 0v64h128v640h-64v64h256v-64h-64v-640h-64v-64h-192zM192 832v64h64v-64h-64zM384 832v64h64v-64h-64zM256 896v64h128v-64h-128z" />
    <glyph glyph-name="jcircumflex" unicode="&#x135;" 
d="M64 -64v128h128v-64h-64v-64h-64zM128 -128v64h128v512h-128v64h256v-576h-64v-64h-192zM128 576v64h64v-64h-64zM320 576v64h64v-64h-64zM192 640v64h128v-64h-128z" />
    <glyph glyph-name="uni0136" unicode="&#x136;" 
d="M192 -128v64h128v-64h-128zM320 -64v64h64v-64h-64zM256 0v64h64v-64h-64zM0 64v64h64v640h-64v64h256v-64h-64v-192h64v64h64v-128h-64v-64h64v-128h64v-128h64v-64h64v-64h-192v128h-64v128h-64v-192h64v-64h-256zM320 640v192h128v-64h-64v-128h-64z" />
    <glyph glyph-name="uni0137" unicode="&#x137;" 
d="M192 -128v64h128v-64h-128zM320 -64v64h64v-64h-64zM256 0v64h64v-64h-64zM320 448v64h64v-64h-64zM384 512v128h128v-64h-64v-64h-64zM0 64v64h64v640h-64v64h192v-448h64v64h64v-192h64v-64h64v-64h64v-64h-128v64h-64v64h-64v64h-64v-128h64v-64h-256z" />
    <glyph glyph-name="Lacute" unicode="&#x139;" 
d="M128 0v704h-64v64h256v-64h-64v-640h64v64h64v192h64v-320h-320zM128 832v64h128v-64h-128zM256 896v64h128v-64h-128z" />
    <glyph glyph-name="lacute" unicode="&#x13a;" 
d="M128 0v64h64v640h-64v64h192v-704h64v-64h-256zM128 832v64h128v-64h-128zM256 896v64h128v-64h-128z" />
    <glyph glyph-name="uni013B" unicode="&#x13b;" 
d="M192 -128v64h128v-64h-128zM320 -64v64h64v-64h-64zM256 0v64h-128v704h-64v64h256v-64h-64v-640h64v64h64v192h64v-320h-128v-64h-64z" />
    <glyph glyph-name="uni013C" unicode="&#x13c;" 
d="M192 -128v64h128v-64h-128zM320 -64v64h64v-64h-64zM256 0v64h-128v64h64v640h-64v64h192v-704h64v-64h-64v-64h-64z" />
    <glyph glyph-name="Lslash" unicode="&#x141;" 
d="M0 320v64h64v-64h-64zM320 512v64h64v-64h-64zM128 0v384h-64v64h64v320h-64v64h256v-64h-64v-256h64v-64h-64v-384h64v64h64v192h64v-320h-320z" />
    <glyph glyph-name="lslash" unicode="&#x142;" 
d="M64 320v64h64v-64h-64zM384 512v64h64v-64h-64zM128 0v64h64v320h-64v64h64v320h-64v64h192v-320h64v-64h-64v-384h64v-64h-256z" />
    <glyph glyph-name="Nacute" unicode="&#x143;" 
d="M0 0v64h64v640h-64v64h192v-128h64v-128h64v-128h64v320h-64v64h192v-64h-64v-640h64v-64h-192v64h64v64h-64v128h-64v64h-64v128h-64v-384h64v-64h-192zM128 832v64h128v-64h-128zM256 896v64h128v-64h-128z" />
    <glyph glyph-name="nacute" unicode="&#x144;" 
d="M0 0v64h64v448h-64v64h192v-64h64v-64h-64v-448h-192zM320 0v512h-64v64h128v-64h64v-512h-128zM128 640v64h128v-64h-128zM256 704v64h128v-64h-128z" />
    <glyph glyph-name="uni0145" unicode="&#x145;" 
d="M192 -128v64h128v-64h-128zM320 -64v64h64v-64h-64zM256 0v64h64v-64h-64zM0 64v64h64v640h-64v64h192v-128h64v-128h64v-128h64v320h-64v64h192v-64h-64v-640h64v-64h-192v64h64v64h-64v128h-64v64h-64v128h-64v-384h64v-64h-192z" />
    <glyph glyph-name="uni0146" unicode="&#x146;" 
d="M192 -128v64h128v-64h-128zM320 -64v64h64v-64h-64zM256 0v64h64v-64h-64zM0 64v64h64v448h-64v64h192v-64h64v-64h-64v-448h-192zM320 64v512h-64v64h128v-64h64v-512h-128z" />
    <glyph glyph-name="Ncaron" unicode="&#x147;" 
d="M0 0v64h64v640h-64v64h192v-128h64v-128h64v-128h64v320h-64v64h192v-64h-64v-640h64v-64h-192v64h64v64h-64v128h-64v64h-64v128h-64v-384h64v-64h-192zM192 832v64h128v-64h-128zM128 896v64h64v-64h-64zM320 896v64h64v-64h-64z" />
    <glyph glyph-name="ncaron" unicode="&#x148;" 
d="M0 0v64h64v448h-64v64h192v-64h64v-64h-64v-448h-192zM320 0v512h-64v64h128v-64h64v-512h-128zM192 640v64h64v-64h-64zM128 704v64h64v-64h-64zM256 704v64h64v-64h-64z" />
    <glyph glyph-name="Omacron" unicode="&#x14c;" 
d="M320 64v704h-128v-704h128zM128 0v64h-64v704h64v64h256v-64h64v-704h-64v-64h-256zM128 896v64h256v-64h-256z" />
    <glyph glyph-name="omacron" unicode="&#x14d;" 
d="M256 64v64h64v320h-64v64h-64v-64h-64v-320h64v-64h64zM128 0v64h-64v64h-64v320h64v64h64v64h192v-64h64v-64h64v-320h-64v-64h-64v-64h-192zM64 640v64h320v-64h-320z" />
    <glyph glyph-name="OE" unicode="&#x152;" 
d="M192 64v704h-64v-704h64zM64 0v64h-64v704h64v64h384v-192h-64v128h-64v-320h64v64h64v-192h-64v64h-64v-320h64v128h64v-192h-384z" />
    <glyph glyph-name="oe" unicode="&#x153;" 
d="M448 320v128h-128v-128h128zM256 64v448h-64v-64h-64v-320h64v-64h64zM128 0v64h-64v64h-64v320h64v64h64v64h320v-64h64v-256h-192v-128h128v64h64v-128h-64v-64h-320z" />
    <glyph glyph-name="Racute" unicode="&#x154;" 
d="M320 384v320h-128v-320h128zM0 0v64h64v640h-64v64h384v-64h64v-320h-64v-128h64v-192h64v-64h-128v128h-64v128h-64v64h-64v-256h64v-64h-256zM128 832v64h128v-64h-128zM256 896v64h128v-64h-128z" />
    <glyph glyph-name="racute" unicode="&#x155;" 
d="M0 0v64h64v448h-64v64h192v-192h64v-64h-64v-256h64v-64h-256zM256 384v128h64v64h64v-64h64v-128h-64v64h-64v-64h-64zM128 640v64h128v-64h-128zM256 704v64h128v-64h-128z" />
    <glyph glyph-name="uni0156" unicode="&#x156;" 
d="M128 -128v64h128v-64h-128zM256 -64v64h64v-64h-64zM320 448v320h-128v-320h128zM192 0v64h-192v64h64v640h-64v64h384v-64h64v-320h-64v-128h64v-192h64v-64h-128v128h-64v128h-64v64h-64v-256h64v-128h-64z" />
    <glyph glyph-name="uni0157" unicode="&#x157;" 
d="M128 -128v64h128v-64h-128zM256 -64v64h64v-64h-64zM192 0v64h-192v64h64v448h-64v64h192v-192h64v-64h-64v-256h64v-128h-64zM256 448v128h64v64h64v-64h64v-128h-64v64h-64v-64h-64z" />
    <glyph glyph-name="Rcaron" unicode="&#x158;" 
d="M320 384v320h-128v-320h128zM0 0v64h64v640h-64v64h384v-64h64v-320h-64v-128h64v-192h64v-64h-128v128h-64v128h-64v64h-64v-256h64v-64h-256zM192 832v64h64v-64h-64zM128 896v64h64v-64h-64zM256 896v64h64v-64h-64z" />
    <glyph glyph-name="rcaron" unicode="&#x159;" 
d="M0 0v64h64v448h-64v64h192v-192h64v-64h-64v-256h64v-64h-256zM256 384v128h64v64h64v-64h64v-128h-64v64h-64v-64h-64zM192 640v64h64v-64h-64zM128 704v64h64v-64h-64zM256 704v64h64v-64h-64z" />
    <glyph glyph-name="Sacute" unicode="&#x15a;" 
d="M64 0v256h64v-128h64v-64h-64v-64h-64zM192 0v64h128v64h64v64h-64v64h-64v64h-64v64h-64v64h-64v256h64v64h192v-64h-128v-64h-64v-64h64v-64h64v-64h64v-64h64v-64h64v-256h-64v-64h-192zM384 512v128h-64v64h64v64h64v-256h-64zM128 832v64h128v-64h-128zM256 896v64
h128v-64h-128z" />
    <glyph glyph-name="sacute" unicode="&#x15b;" 
d="M64 0v192h64v-64h64v-64h-64v-64h-64zM192 0v64h128v128h-128v64h-64v64h-64v192h64v64h192v-64h-128v-128h64v-64h128v-64h64v-192h-64v-64h-192zM384 384v64h-64v64h64v64h64v-192h-64zM128 640v64h128v-64h-128zM256 704v64h128v-64h-128z" />
    <glyph glyph-name="Scircumflex" unicode="&#x15c;" 
d="M64 0v256h64v-128h64v-64h-64v-64h-64zM192 0v64h128v64h64v64h-64v64h-64v64h-64v64h-64v64h-64v256h64v64h192v-64h-128v-64h-64v-64h64v-64h64v-64h64v-64h64v-64h64v-256h-64v-64h-192zM384 512v128h-64v64h64v64h64v-256h-64zM128 832v64h64v-64h-64zM320 832v64h64
v-64h-64zM192 896v64h128v-64h-128z" />
    <glyph glyph-name="scircumflex" unicode="&#x15d;" 
d="M64 0v192h64v-64h64v-64h-64v-64h-64zM192 0v64h128v128h-128v64h-64v64h-64v192h64v64h192v-64h-128v-128h64v-64h128v-64h64v-192h-64v-64h-192zM384 384v64h-64v64h64v64h64v-192h-64zM128 640v64h64v-64h-64zM320 640v64h64v-64h-64zM192 704v64h128v-64h-128z" />
    <glyph glyph-name="Scedilla" unicode="&#x15e;" 
d="M192 -128v64h128v-64h-128zM320 -64v64h64v-64h-64zM64 64v256h64v-128h64v-64h-64v-64h-64zM256 0v64h-64v64h128v64h64v64h-64v64h-64v64h-64v64h-64v64h-64v256h64v64h192v-64h-128v-64h-64v-64h64v-64h64v-64h64v-64h64v-64h64v-256h-64v-64h-64v-64h-64zM384 576
v128h-64v64h64v64h64v-256h-64z" />
    <glyph glyph-name="scedilla" unicode="&#x15f;" 
d="M192 -128v64h128v-64h-128zM320 -64v64h64v-64h-64zM64 64v192h64v-64h64v-64h-64v-64h-64zM256 0v64h-64v64h128v128h-128v64h-64v64h-64v192h64v64h192v-64h-128v-128h64v-64h128v-64h64v-192h-64v-64h-64v-64h-64zM384 448v64h-64v64h64v64h64v-192h-64z" />
    <glyph glyph-name="Scaron" unicode="&#x160;" 
d="M64 0v256h64v-128h64v-64h-64v-64h-64zM192 0v64h128v64h64v64h-64v64h-64v64h-64v64h-64v64h-64v256h64v64h192v-64h-128v-64h-64v-64h64v-64h64v-64h64v-64h64v-64h64v-256h-64v-64h-192zM384 512v128h-64v64h64v64h64v-256h-64zM192 832v64h128v-64h-128zM128 896v64
h64v-64h-64zM320 896v64h64v-64h-64z" />
    <glyph glyph-name="scaron" unicode="&#x161;" 
d="M64 0v192h64v-64h64v-64h-64v-64h-64zM192 0v64h128v128h-128v64h-64v64h-64v192h64v64h192v-64h-128v-128h64v-64h128v-64h64v-192h-64v-64h-192zM384 384v64h-64v64h64v64h64v-192h-64zM256 640v64h64v-64h-64zM192 704v64h64v-64h-64zM320 704v64h64v-64h-64z" />
    <glyph glyph-name="uni0162" unicode="&#x162;" 
d="M192 -128v64h128v-64h-128zM320 -64v64h64v-64h-64zM256 0v64h-128v64h64v640h-64v-256h-64v320h384v-320h-64v256h-64v-640h64v-64h-64v-64h-64z" />
    <glyph glyph-name="uni0163" unicode="&#x163;" 
d="M192 -128v64h128v-64h-128zM320 -64v64h64v-64h-64zM384 128v192h64v-192h-64zM256 0v64h-64v64h-64v384h-64v64h64v128h64v128h128v-64h-64v-192h192v-64h-192v-384h128v-64h-64v-64h-64z" />
    <glyph glyph-name="Tcaron" unicode="&#x164;" 
d="M128 0v64h64v640h-64v-192h-64v256h384v-256h-64v192h-64v-640h64v-64h-256zM192 832v64h128v-64h-128zM128 896v64h64v-64h-64zM320 896v64h64v-64h-64z" />
    <glyph glyph-name="tbar" unicode="&#x167;" 
d="M384 64v192h64v-192h-64zM192 0v64h-64v256h-64v64h64v64h-64v64h64v128h64v128h128v-64h-64v-192h192v-64h-192v-64h192v-64h-192v-256h128v-64h-192z" />
    <glyph glyph-name="Utilde" unicode="&#x168;" 
d="M128 0v64h-64v640h-64v64h256v-64h-64v-640h192v-64h-256zM384 64v640h-64v64h192v-64h-64v-640h-64zM64 832v64h64v-64h-64zM256 832v64h128v-64h-128zM128 896v64h128v-64h-128zM384 896v64h64v-64h-64z" />
    <glyph glyph-name="utilde" unicode="&#x169;" 
d="M128 0v64h-64v448h-64v64h192v-512h128v-64h-192zM384 0v64h-64v448h-64v64h192v-576h-64zM64 640v64h64v-64h-64zM256 640v64h128v-64h-128zM128 704v64h128v-64h-128zM384 704v64h64v-64h-64z" />
    <glyph glyph-name="Umacron" unicode="&#x16a;" 
d="M128 0v64h-64v704h-64v64h256v-64h-64v-704h192v-64h-256zM384 64v704h-64v64h192v-64h-64v-704h-64zM128 896v64h256v-64h-256z" />
    <glyph glyph-name="umacron" unicode="&#x16b;" 
d="M128 0v64h-64v448h-64v64h192v-512h128v-64h-192zM384 0v64h-64v448h-64v64h192v-576h-64zM64 640v64h320v-64h-320z" />
    <glyph glyph-name="Uring" unicode="&#x16e;" 
d="M128 0v64h-64v576h-64v64h256v-64h-64v-576h192v-64h-256zM384 64v576h-64v64h192v-64h-64v-576h-64zM192 768v64h128v-64h-128zM128 832v64h64v-64h-64zM320 832v64h64v-64h-64zM192 896v64h128v-64h-128z" />
    <glyph glyph-name="uring" unicode="&#x16f;" 
d="M128 0v64h-64v448h-64v64h192v-512h128v-64h-192zM384 0v64h-64v448h-64v64h192v-576h-64zM192 640v64h128v-64h-128zM128 704v64h64v-64h-64zM320 704v64h64v-64h-64zM192 768v64h128v-64h-128z" />
    <glyph glyph-name="Wcircumflex" unicode="&#x174;" 
d="M128 0v256h-64v448h-64v64h128v-256h64v-256h64v-256h-128zM320 0v256h-64v256h-64v256h128v-320h64v320h128v-64h-64v-704h-128zM128 832v64h64v-64h-64zM320 832v64h64v-64h-64zM192 896v64h128v-64h-128z" />
    <glyph glyph-name="wcircumflex" unicode="&#x175;" 
d="M128 0v192h-64v256h-64v128h128v-256h64v256h128v-128h-64v-64h64v-128h64v320h128v-128h-64v-256h-64v-192h-64v128h-64v128h-64v-128h64v-128h-128zM128 640v64h64v-64h-64zM320 640v64h64v-64h-64zM192 704v64h128v-64h-128z" />
    <glyph glyph-name="Ycircumflex" unicode="&#x176;" 
d="M320 384v192h64v-192h-64zM128 0v64h64v320h-64v192h-64v128h-64v64h192v-192h64v-192h64v-320h64v-64h-256zM384 576v128h-64v64h192v-64h-64v-128h-64zM128 832v64h64v-64h-64zM320 832v64h64v-64h-64zM192 896v64h128v-64h-128z" />
    <glyph glyph-name="ycircumflex" unicode="&#x177;" 
d="M128 -128v64h-64v128h128v-128h64v-64h-128zM256 -64v256h-64v128h-64v128h-64v64h-64v64h256v-64h-64v-64h64v-128h64v64h64v192h128v-64h-64v-192h-64v-192h-64v-192h-64zM128 640v64h64v-64h-64zM320 640v64h64v-64h-64zM192 704v64h128v-64h-128z" />
    <glyph glyph-name="Ydieresis" unicode="&#x178;" 
d="M320 384v192h64v-192h-64zM128 0v64h64v320h-64v192h-64v128h-64v64h192v-192h64v-192h64v-320h64v-64h-256zM384 576v128h-64v64h192v-64h-64v-128h-64zM64 832v128h128v-128h-128zM320 832v128h128v-128h-128z" />
    <glyph glyph-name="Zacute" unicode="&#x179;" 
d="M64 0v256h64v128h64v64h64v128h64v128h-128v-64h-64v-128h-64v256h384v-256h-64v-128h-64v-64h-64v-128h-64v-128h128v64h64v128h64v-256h-384zM128 832v64h128v-64h-128zM256 896v64h128v-64h-128z" />
    <glyph glyph-name="zacute" unicode="&#x17a;" 
d="M64 0v192h64v64h64v64h64v64h64v64h64v64h-192v-64h-64v-64h-64v192h384v-256h-64v-64h-64v-64h-64v-64h-64v-64h128v64h64v64h64v-192h-384zM128 640v64h128v-64h-128zM256 704v64h128v-64h-128z" />
    <glyph glyph-name="Zdotaccent" unicode="&#x17b;" 
d="M64 0v256h64v128h64v64h64v128h64v128h-128v-64h-64v-128h-64v256h384v-256h-64v-128h-64v-64h-64v-128h-64v-128h128v64h64v128h64v-256h-384zM192 832v128h128v-128h-128z" />
    <glyph glyph-name="zdotaccent" unicode="&#x17c;" 
d="M64 0v192h64v64h64v64h64v64h64v64h64v64h-192v-64h-64v-64h-64v192h384v-256h-64v-64h-64v-64h-64v-64h-64v-64h128v64h64v64h64v-192h-384zM192 640v128h128v-128h-128z" />
    <glyph glyph-name="Zcaron" unicode="&#x17d;" 
d="M64 0v256h64v128h64v64h64v128h64v128h-128v-64h-64v-128h-64v256h384v-256h-64v-128h-64v-64h-64v-128h-64v-128h128v64h64v128h64v-256h-384zM192 832v64h128v-64h-128zM128 896v64h64v-64h-64zM320 896v64h64v-64h-64z" />
    <glyph glyph-name="zcaron" unicode="&#x17e;" 
d="M64 0v192h64v64h64v64h64v64h64v64h64v64h-192v-64h-64v-64h-64v192h384v-256h-64v-64h-64v-64h-64v-64h-64v-64h128v64h64v64h64v-192h-384zM192 640v64h128v-64h-128zM128 704v64h64v-64h-64zM320 704v64h64v-64h-64z" />
    <glyph glyph-name="longs" unicode="&#x17f;" 
d="M320 640v64h64v64h64v-128h-128zM64 -128v64h64v512h-128v64h128v256h64v64h192v-64h-128v-832h64v-64h-256z" />
    <glyph glyph-name="uni01CD" unicode="&#x1cd;" 
d="M0 0v64h64v256h64v-256h64v-64h-192zM256 0v64h64v256h-192v256h64v-192h64v192h-64v192h128v-192h64v-256h64v-256h64v-64h-256zM192 832v64h128v-64h-128zM128 896v64h64v-64h-64zM320 896v64h64v-64h-64z" />
    <glyph glyph-name="uni01CE" unicode="&#x1ce;" 
d="M448 0v64h64v-64h-64zM320 64v192h-64v-64h-64v-128h128zM128 0v64h-64v128h64v64h64v64h128v192h-128v-64h-64v-64h64v-64h-128v192h64v64h256v-64h64v-448h-64v-64h-256zM192 640v64h128v-64h-128zM128 704v64h64v-64h-64zM320 704v64h64v-64h-64z" />
    <glyph glyph-name="uni01CF" unicode="&#x1cf;" 
d="M128 0v64h64v640h-64v64h256v-64h-64v-640h64v-64h-256zM192 832v64h128v-64h-128zM128 896v64h64v-64h-64zM320 896v64h64v-64h-64z" />
    <glyph glyph-name="uni01D0" unicode="&#x1d0;" 
d="M128 0v64h64v384h-64v64h192v-448h64v-64h-256zM192 576v64h64v-64h-64zM128 640v64h64v-64h-64zM256 640v64h64v-64h-64z" />
    <glyph glyph-name="uni01D1" unicode="&#x1d1;" 
d="M320 64v640h-128v-640h128zM128 0v64h-64v640h64v64h256v-64h64v-640h-64v-64h-256zM192 832v64h128v-64h-128zM128 896v64h64v-64h-64zM320 896v64h64v-64h-64z" />
    <glyph glyph-name="uni01D2" unicode="&#x1d2;" 
d="M256 64v64h64v320h-64v64h-64v-64h-64v-320h64v-64h64zM128 0v64h-64v64h-64v320h64v64h64v64h192v-64h64v-64h64v-320h-64v-64h-64v-64h-192zM192 640v64h64v-64h-64zM128 704v64h64v-64h-64zM256 704v64h64v-64h-64z" />
    <glyph glyph-name="uni01D3" unicode="&#x1d3;" 
d="M128 0v64h-64v640h-64v64h256v-64h-64v-640h192v-64h-256zM384 64v640h-64v64h192v-64h-64v-640h-64zM192 832v64h128v-64h-128zM128 896v64h64v-64h-64zM320 896v64h64v-64h-64z" />
    <glyph glyph-name="uni01D4" unicode="&#x1d4;" 
d="M128 0v64h-64v448h-64v64h192v-512h128v-64h-192zM384 0v64h-64v448h-64v64h192v-576h-64zM192 640v64h64v-64h-64zM128 704v64h64v-64h-64zM256 704v64h64v-64h-64z" />
    <glyph glyph-name="uni01DD" unicode="&#x1dd;" 
d="M256 64v64h64v128h-192v-128h64v-64h64zM128 0v64h-64v64h-64v192h320v128h-64v64h-128v-64h-64v-64h-64v128h64v64h256v-64h64v-64h64v-320h-64v-64h-64v-64h-192z" />
    <glyph glyph-name="uni01E2" unicode="&#x1e2;" 
d="M0 0v64h64v256h64v-256h64v-64h-192zM256 0v320h-128v320h64v-256h64v256h-64v192h320v-192h-64v128h-64v-320h64v64h64v-192h-64v64h-64v-320h64v128h64v-192h-256zM192 896v64h256v-64h-256z" />
    <glyph glyph-name="uni01E3" unicode="&#x1e3;" 
d="M192 64v128h-64v-128h64zM448 320v128h-128v-128h128zM64 0v64h-64v128h64v64h64v64h64v192h-64v-64h-64v-64h64v-64h-128v192h64v64h192v-64h64v64h128v-64h64v-256h-192v-128h128v64h64v-128h-64v-64h-128v64h-64v-64h-192zM128 640v64h256v-64h-256z" />
    <glyph glyph-name="uni01E4" unicode="&#x1e4;" 
d="M384 0v64h-64v128h-64v64h64v64h-64v64h192v-128h64v-64h-64v-192h-64zM192 0v64h-64v64h-64v576h64v64h64v64h192v-64h64v-320h-64v256h-64v64h-64v-64h-64v-576h64v-64h64v-64h-128z" />
    <glyph glyph-name="uni01E5" unicode="&#x1e5;" 
d="M128 -128v64h192v128h-64v64h-64v-64h-64v-128h-64v192h64v64h-64v64h64v128h-64v128h128v-192h128v-64h-128v-64h192v-64h64v-192h-64v-64h-256zM320 320v64h-64v64h64v64h128v-64h64v-64h-128v-64h-64zM192 512v64h128v-64h-128zM448 512v64h64v-64h-64z" />
    <glyph glyph-name="Gcaron" unicode="&#x1e6;" 
d="M384 0v64h-64v256h-64v64h192v-384h-64zM192 0v64h-64v64h-64v512h64v64h64v64h192v-64h64v-256h-64v192h-64v64h-64v-64h-64v-512h64v-64h64v-64h-128zM256 832v64h64v-64h-64zM192 896v64h64v-64h-64zM320 896v64h64v-64h-64z" />
    <glyph glyph-name="gcaron" unicode="&#x1e7;" 
d="M128 -128v64h192v128h-64v64h-64v-64h-64v-128h-64v192h64v64h-64v64h64v128h-64v128h128v-192h128v-64h-128v-64h192v-64h64v-192h-64v-64h-256zM320 320v192h128v-128h-64v-64h-64zM192 512v64h128v-64h-128zM448 512v64h64v-64h-64zM256 640v64h64v-64h-64zM192 704
v64h64v-64h-64zM320 704v64h64v-64h-64z" />
    <glyph glyph-name="uni01E8" unicode="&#x1e8;" 
d="M0 0v64h64v640h-64v64h256v-64h-64v-192h64v64h64v-128h-64v-64h64v-128h64v-128h64v-64h64v-64h-192v128h-64v128h-64v-192h64v-64h-256zM320 576v192h128v-64h-64v-128h-64zM192 832v64h128v-64h-128zM128 896v64h64v-64h-64zM320 896v64h64v-64h-64z" />
    <glyph glyph-name="uni01E9" unicode="&#x1e9;" 
d="M320 384v64h64v-64h-64zM384 448v128h128v-64h-64v-64h-64zM0 0v64h64v704h-64v64h192v-512h64v64h64v-192h64v-64h64v-64h64v-64h-128v64h-64v64h-64v64h-64v-128h64v-64h-256zM256 832v64h64v-64h-64zM192 896v64h64v-64h-64zM320 896v64h64v-64h-64z" />
    <glyph glyph-name="uni01F0" unicode="&#x1f0;" 
d="M64 -64v128h128v-64h-64v-64h-64zM128 -128v64h128v512h-128v64h256v-576h-64v-64h-192zM192 576v64h128v-64h-128zM128 640v64h64v-64h-64zM320 640v64h64v-64h-64z" />
    <glyph glyph-name="uni01F4" unicode="&#x1f4;" 
d="M384 0v64h-64v256h-64v64h192v-384h-64zM192 0v64h-64v64h-64v512h64v64h64v64h192v-64h64v-256h-64v192h-64v64h-64v-64h-64v-512h64v-64h64v-64h-128zM128 832v64h128v-64h-128zM256 896v64h128v-64h-128z" />
    <glyph glyph-name="uni01F5" unicode="&#x1f5;" 
d="M128 -128v64h192v128h-64v64h-64v-64h-64v-128h-64v192h64v64h-64v64h64v128h-64v128h128v-192h128v-64h-128v-64h192v-64h64v-192h-64v-64h-256zM320 320v192h128v-128h-64v-64h-64zM192 512v64h128v-64h-128zM448 512v64h64v-64h-64zM128 640v64h128v-64h-128zM256 704
v64h128v-64h-128z" />
    <glyph glyph-name="uni01F8" unicode="&#x1f8;" 
d="M0 0v64h64v640h-64v64h192v-128h64v-128h64v-128h64v320h-64v64h192v-64h-64v-640h64v-64h-192v64h64v64h-64v128h-64v64h-64v128h-64v-384h64v-64h-192zM256 832v64h128v-64h-128zM128 896v64h128v-64h-128z" />
    <glyph glyph-name="uni01F9" unicode="&#x1f9;" 
d="M0 0v64h64v448h-64v64h192v-64h64v-64h-64v-448h-192zM320 0v512h-64v64h128v-64h64v-512h-128zM256 640v64h128v-64h-128zM128 704v64h128v-64h-128z" />
    <glyph glyph-name="AEacute" unicode="&#x1fc;" 
d="M0 0v64h64v256h64v-256h64v-64h-192zM256 0v320h-128v256h64v-192h64v192h-64v192h320v-128h-64v64h-64v-256h64v64h64v-192h-64v64h-64v-320h64v128h64v-192h-256zM192 832v64h128v-64h-128zM320 896v64h128v-64h-128z" />
    <glyph glyph-name="aeacute" unicode="&#x1fd;" 
d="M192 64v128h-64v-128h64zM448 320v128h-128v-128h128zM64 0v64h-64v128h64v64h64v64h64v192h-64v-64h-64v-64h64v-64h-128v192h64v64h192v-64h64v64h128v-64h64v-256h-192v-128h128v64h64v-128h-64v-64h-128v64h-64v-64h-192zM128 640v64h128v-64h-128zM256 704v64h128
v-64h-128z" />
    <glyph glyph-name="uni0218" unicode="&#x218;" 
d="M192 -128v64h64v-64h-64zM64 64v256h64v-128h64v-64h-64v-64h-64zM256 -64v64h-64v128h128v64h64v64h-64v64h-64v64h-64v64h-64v64h-64v256h64v64h192v-64h-128v-64h-64v-64h64v-64h64v-64h64v-64h64v-64h64v-256h-64v-64h-64v-128h-64zM384 576v128h-64v64h64v64h64
v-256h-64z" />
    <glyph glyph-name="uni0219" unicode="&#x219;" 
d="M192 -128v64h64v-64h-64zM64 64v192h64v-64h64v-64h-64v-64h-64zM256 -64v64h-64v128h128v128h-128v64h-64v64h-64v192h64v64h192v-64h-128v-128h64v-64h128v-64h64v-192h-64v-64h-64v-128h-64zM384 448v64h-64v64h64v64h64v-192h-64z" />
    <glyph glyph-name="uni021A" unicode="&#x21a;" 
d="M192 -128v64h64v-64h-64zM256 -64v64h-64v64h-64v64h64v640h-64v-192h-64v256h384v-256h-64v192h-64v-640h64v-64h-64v-128h-64z" />
    <glyph glyph-name="uni021B" unicode="&#x21b;" 
d="M192 -128v64h64v-64h-64zM384 128v192h64v-192h-64zM256 -64v64h-64v128h-64v384h-64v64h64v128h64v128h128v-64h-64v-192h192v-64h-192v-384h128v-64h-64v-128h-64z" />
    <glyph glyph-name="uni021E" unicode="&#x21e;" 
d="M320 64v320h-128v-320h128zM320 448v256h-128v-256h128zM0 0v64h64v640h-64v64h512v-64h-64v-640h64v-64h-512zM192 832v64h128v-64h-128zM128 896v64h64v-64h-64zM320 896v64h64v-64h-64z" />
    <glyph glyph-name="uni021F" unicode="&#x21f;" 
d="M320 0v448h-64v64h128v-64h64v-384h64v-64h-192zM0 0v64h64v640h-64v64h192v-320h64v-64h-64v-320h64v-64h-256zM64 832v64h64v-64h-64zM0 896v64h64v-64h-64zM128 896v64h64v-64h-64z" />
    <glyph glyph-name="uni0226" unicode="&#x226;" 
d="M0 0v64h64v256h64v-256h64v-64h-192zM256 0v64h64v256h-192v256h64v-192h64v192h-64v192h128v-192h64v-256h64v-256h64v-64h-256zM192 832v128h128v-128h-128z" />
    <glyph glyph-name="uni0227" unicode="&#x227;" 
d="M448 0v64h64v-64h-64zM320 64v192h-64v-64h-64v-128h128zM128 0v64h-64v128h64v64h64v64h128v192h-128v-64h-64v-64h64v-64h-128v192h64v64h256v-64h64v-448h-64v-64h-256zM192 640v128h128v-128h-128z" />
    <glyph glyph-name="uni0228" unicode="&#x228;" 
d="M128 -128v64h128v-64h-128zM256 -64v64h64v-64h-64zM192 0v64h-192v64h64v640h-64v64h448v-192h-64v64h-64v64h-128v-256h128v64h64v-192h-64v64h-128v-320h128v64h64v128h64v-256h-192v-64h-64z" />
    <glyph glyph-name="uni0229" unicode="&#x229;" 
d="M128 -128v64h128v-64h-128zM256 -64v64h64v-64h-64zM320 384v128h-64v64h-64v-64h-64v-128h192zM192 0v64h-64v64h-64v64h-64v320h64v64h64v64h192v-64h64v-64h64v-192h-320v-128h64v-64h128v64h64v64h64v-128h-64v-64h-128v-64h-64z" />
    <glyph glyph-name="uni022E" unicode="&#x22e;" 
d="M320 64v640h-128v-640h128zM128 0v64h-64v640h64v64h256v-64h64v-640h-64v-64h-256zM192 832v128h128v-128h-128z" />
    <glyph glyph-name="uni022F" unicode="&#x22f;" 
d="M256 64v64h64v320h-64v64h-64v-64h-64v-320h64v-64h64zM128 0v64h-64v64h-64v320h64v64h64v64h192v-64h64v-64h64v-320h-64v-64h-64v-64h-192zM192 640v128h128v-128h-128z" />
    <glyph glyph-name="uni0232" unicode="&#x232;" 
d="M320 384v192h64v-192h-64zM128 0v64h64v320h-64v192h-64v192h-64v64h192v-256h64v-192h64v-320h64v-64h-256zM384 576v192h-64v64h192v-64h-64v-192h-64zM128 896v64h256v-64h-256z" />
    <glyph glyph-name="uni0233" unicode="&#x233;" 
d="M128 -128v64h-64v128h128v-128h64v-64h-128zM256 -64v256h-64v128h-64v128h-64v64h-64v64h256v-64h-64v-64h64v-128h64v64h64v192h128v-64h-64v-192h-64v-192h-64v-192h-64zM128 640v64h256v-64h-256z" />
    <glyph glyph-name="uni0241" unicode="&#x241;" 
d="M128 0v64h64v384h64v64h64v256h-128v-128h-128v128h64v64h256v-64h64v-320h-64v-64h-64v-320h64v-64h-256z" />
    <glyph glyph-name="uni0242" unicode="&#x242;" 
d="M128 0v64h64v192h64v64h64v192h-128v-128h-128v128h64v64h256v-64h64v-256h-64v-64h-64v-128h64v-64h-256z" />
    <glyph glyph-name="uni0245" unicode="&#x245;" 
d="M0 0v64h64v256h64v-320h-128zM128 320v256h64v-256h-64zM320 0v320h-64v256h-64v256h128v-256h64v-256h64v-256h64v-64h-192z" />
    <glyph glyph-name="tilde" unicode="&#x2dc;" 
d="M64 192v128h64v-128h-64zM320 192v64h-128v64h-64v64h128v-64h128v-64h64v-64h-128zM448 256v128h64v-128h-64z" />
    <glyph glyph-name="uni03BC" unicode="&#x3bc;" 
d="M0 -128v64h64v576h-64v64h192v-448h128v-64h-128v-192h-192zM384 64v64h-64v384h-64v64h192v-512h-64z" />
    <glyph glyph-name="pi" unicode="&#x3c0;" 
d="M64 0v512h-64v64h448v-128h-64v-384h64v-64h-192v448h-64v-448h-128z" />
    <glyph glyph-name="uni0418" unicode="&#x418;" 
d="M0 0v64h64v704h-64v64h192v-64h-64v-320h64v128h64v128h64v128h192v-64h-64v-704h64v-64h-192v64h64v448h-64v-128h-64v-128h-64v-128h-64v-64h64v-64h-192z" />
    <glyph glyph-name="uni042F" unicode="&#x42f;" 
d="M320 448v320h-128v-320h128zM0 0v64h64v192h64v192h-64v320h64v64h384v-64h-64v-704h64v-64h-256v64h64v320h-64v-64h-64v-192h-64v-128h-128z" />
    <glyph glyph-name="uni1EBC" unicode="&#x1ebc;" 
d="M0 0v64h64v640h-64v64h448v-192h-64v64h-64v64h-128v-256h128v64h64v-192h-64v64h-128v-320h128v64h64v128h64v-256h-448zM64 832v64h64v-64h-64zM256 832v64h128v-64h-128zM128 896v64h128v-64h-128zM384 896v64h64v-64h-64z" />
    <glyph glyph-name="uni1EBD" unicode="&#x1ebd;" 
d="M320 320v128h-64v64h-64v-64h-64v-128h192zM128 0v64h-64v64h-64v320h64v64h64v64h192v-64h64v-64h64v-192h-320v-128h64v-64h128v64h64v64h64v-128h-64v-64h-256zM64 640v64h64v-64h-64zM256 640v64h128v-64h-128zM128 704v64h128v-64h-128zM384 704v64h64v-64h-64z" />
    <glyph glyph-name="Ygrave" unicode="&#x1ef2;" 
d="M320 384v192h64v-192h-64zM128 0v64h64v320h-64v192h-64v128h-64v64h192v-192h64v-192h64v-320h64v-64h-256zM384 576v128h-64v64h192v-64h-64v-128h-64zM256 832v64h128v-64h-128zM128 896v64h128v-64h-128z" />
    <glyph glyph-name="ygrave" unicode="&#x1ef3;" 
d="M128 -128v64h-64v128h128v-128h64v-64h-128zM256 -64v256h-64v128h-64v128h-64v64h-64v64h256v-64h-64v-64h64v-128h64v64h64v192h128v-64h-64v-192h-64v-192h-64v-192h-64zM256 640v64h128v-64h-128zM128 704v64h128v-64h-128z" />
    <glyph glyph-name="uni1EF8" unicode="&#x1ef8;" 
d="M320 384v192h64v-192h-64zM128 0v64h64v320h-64v192h-64v128h-64v64h192v-192h64v-192h64v-320h64v-64h-256zM384 576v128h-64v64h192v-64h-64v-128h-64zM64 832v64h64v-64h-64zM256 832v64h128v-64h-128zM128 896v64h128v-64h-128zM384 896v64h64v-64h-64z" />
    <glyph glyph-name="uni1EF9" unicode="&#x1ef9;" 
d="M128 -128v64h-64v128h128v-128h64v-64h-128zM256 -64v256h-64v128h-64v128h-64v64h-64v64h256v-64h-64v-64h64v-128h64v64h64v192h128v-64h-64v-192h-64v-192h-64v-192h-64zM64 640v64h64v-64h-64zM256 640v64h128v-64h-128zM128 704v64h128v-64h-128zM384 704v64h64v-64
h-64z" />
    <glyph glyph-name="uni2010" unicode="&#x2010;" 
d="M64 320v64h384v-64h-384z" />
    <glyph glyph-name="uni2011" unicode="&#x2011;" 
d="M64 320v64h384v-64h-384z" />
    <glyph glyph-name="figuredash" unicode="&#x2012;" 
d="M64 320v64h384v-64h-384z" />
    <glyph glyph-name="endash" unicode="&#x2013;" 
d="M64 320v64h448v-64h-448z" />
    <glyph glyph-name="emdash" unicode="&#x2014;" 
d="M0 320v64h512v-64h-512z" />
    <glyph glyph-name="uni2015" unicode="&#x2015;" 
d="M0 320v128h512v-128h-512z" />
    <glyph glyph-name="uni2016" unicode="&#x2016;" 
d="M128 0v832h64v-832h-64zM320 0v832h64v-832h-64z" />
    <glyph glyph-name="underscoredbl" unicode="&#x2017;" 
d="M64 -64v64h384v-64h-384zM64 64v64h384v-64h-384z" />
    <glyph glyph-name="quoteleft" unicode="&#x2018;" 
d="M192 576v192h64v-64h64v-128h-128zM256 768v64h64v-64h-64z" />
    <glyph glyph-name="quoteright" unicode="&#x2019;" 
d="M192 576v64h64v-64h-64zM256 640v64h-64v128h128v-192h-64z" />
    <glyph glyph-name="quotesinglbase" unicode="&#x201a;" 
d="M192 -128v64h64v-64h-64zM256 -64v64h-64v128h128v-192h-64z" />
    <glyph glyph-name="quotereversed" unicode="&#x201b;" 
d="M256 576v64h64v-64h-64zM192 640v192h128v-128h-64v-64h-64z" />
    <glyph glyph-name="quotedblleft" unicode="&#x201c;" 
d="M64 576v192h64v-64h64v-128h-128zM256 576v192h64v-64h64v-128h-128zM128 768v64h64v-64h-64zM320 768v64h64v-64h-64z" />
    <glyph glyph-name="quotedblright" unicode="&#x201d;" 
d="M64 576v64h64v-64h-64zM256 576v64h64v-64h-64zM128 640v64h-64v128h128v-192h-64zM320 640v64h-64v128h128v-192h-64z" />
    <glyph glyph-name="quotedblbase" unicode="&#x201e;" 
d="M64 -128v64h64v-64h-64zM256 -128v64h64v-64h-64zM128 -64v64h-64v128h128v-192h-64zM320 -64v64h-64v128h128v-192h-64z" />
    <glyph glyph-name="uni201F" unicode="&#x201f;" 
d="M128 576v64h64v-64h-64zM320 576v64h64v-64h-64zM64 640v192h128v-128h-64v-64h-64zM256 640v192h128v-128h-64v-64h-64z" />
    <glyph glyph-name="dagger" unicode="&#x2020;" 
d="M128 -64v64h64v576h-128v-64h-64v192h64v-64h128v192h-64v64h256v-64h-64v-192h128v64h64v-192h-64v64h-128v-576h64v-64h-256z" />
    <glyph glyph-name="daggerdbl" unicode="&#x2021;" 
d="M128 -64v64h64v192h-128v-64h-64v192h64v-64h128v320h-128v-64h-64v192h64v-64h128v192h-64v64h256v-64h-64v-192h128v64h64v-192h-64v64h-128v-320h128v64h64v-192h-64v64h-128v-192h64v-64h-256z" />
    <glyph glyph-name="bullet" unicode="&#x2022;" 
d="M128 384v128h128v-128h-128z" />
    <glyph glyph-name="uni2023" unicode="&#x2023;" 
d="M128 256v320h64v-64h64v-64h64v-64h-64v-64h-64v-64h-64z" />
    <glyph glyph-name="onedotenleader" unicode="&#x2024;" 
d="M128 384v128h128v-128h-128z" />
    <glyph glyph-name="twodotenleader" unicode="&#x2025;" 
d="M64 384v128h128v-128h-128zM320 384v128h128v-128h-128z" />
    <glyph glyph-name="uni2027" unicode="&#x2027;" 
d="M192 320v128h128v-128h-128z" />
    <glyph glyph-name="uni2038" unicode="&#x2038;" 
d="M192 384v64h64v-64h-64zM128 448v192h64v-192h-64zM256 448v192h64v-192h-64zM64 640v192h64v-192h-64zM320 640v192h64v-192h-64z" />
    <glyph glyph-name="guilsinglleft" unicode="&#x2039;" 
d="M256 128v64h64v-64h-64zM192 192v64h64v-64h-64zM128 256v64h64v-64h-64zM64 320v64h64v-64h-64zM128 384v64h64v-64h-64zM192 448v64h64v-64h-64zM256 512v64h64v-64h-64z" />
    <glyph glyph-name="guilsinglright" unicode="&#x203a;" 
d="M192 128v64h64v-64h-64zM256 192v64h64v-64h-64zM320 256v64h64v-64h-64zM384 320v64h64v-64h-64zM320 384v64h64v-64h-64zM256 448v64h64v-64h-64zM192 512v64h64v-64h-64z" />
    <glyph glyph-name="uni203B" unicode="&#x203b;" 
d="M0 128v64h64v-64h-64zM448 128v64h64v-64h-64zM64 192v64h64v-64h-64zM192 128v128h128v-128h-128zM384 192v64h64v-64h-64zM128 256v64h64v-64h-64zM320 256v64h64v-64h-64zM0 320v128h128v-128h-128zM192 320v128h128v-128h-128zM384 320v128h128v-128h-128zM128 448
v64h64v-64h-64zM320 448v64h64v-64h-64zM64 512v64h64v-64h-64zM384 512v64h64v-64h-64zM0 576v64h64v-64h-64zM192 512v128h128v-128h-128zM448 576v64h64v-64h-64z" />
    <glyph glyph-name="uni203D" unicode="&#x203d;" 
d="M192 0v128h128v-128h-128zM320 512v256h-128v-64h64v-192h64zM192 192v256h-64v64h-64v256h64v64h256v-64h64v-320h-64v-64h-64v-192h-128z" />
    <glyph glyph-name="uni203E" unicode="&#x203e;" 
d="M64 704v64h384v-64h-384z" />
    <glyph glyph-name="uni2043" unicode="&#x2043;" 
d="M192 320v128h128v-128h-128z" />
    <glyph glyph-name="fraction" unicode="&#x2044;" 
d="M64 0v192h64v128h64v128h64v128h64v128h64v128h64v-192h-64v-128h-64v-128h-64v-128h-64v-128h-64v-128h-64z" />
    <glyph glyph-name="uni204B" unicode="&#x204b;" 
d="M64 0v896h384v-64h64v-256h-64v-64h-128v-512h-64v832h-128v-832h-64z" />
    <glyph glyph-name="uni2070" unicode="&#x2070;" 
d="M320 512v256h-128v-256h128zM128 448v64h-64v256h64v64h256v-64h64v-256h-64v-64h-256z" />
    <glyph glyph-name="uni2071" unicode="&#x2071;" 
d="M128 448v64h64v128h-64v64h192v-192h64v-64h-256zM192 768v64h128v-64h-128z" />
    <glyph glyph-name="uni2074" unicode="&#x2074;" 
d="M256 448v64h-192v192h64v64h64v-192h64v192h-64v64h192v-256h64v-64h-64v-64h-128z" />
    <glyph glyph-name="uni2075" unicode="&#x2075;" 
d="M128 448v64h-64v64h128v-64h128v128h-256v192h384v-64h-256v-64h192v-64h64v-128h-64v-64h-256z" />
    <glyph glyph-name="uni2076" unicode="&#x2076;" 
d="M320 512v128h-128v-128h128zM384 704v64h64v-64h-64zM128 448v64h-64v256h64v64h256v-64h-192v-64h192v-64h64v-128h-64v-64h-256z" />
    <glyph glyph-name="uni2077" unicode="&#x2077;" 
d="M192 448v192h64v64h64v64h-128v-64h-128v128h384v-128h-64v-64h-64v-192h-128z" />
    <glyph glyph-name="uni2078" unicode="&#x2078;" 
d="M320 512v128h-128v-128h128zM320 704v64h-128v-64h128zM128 448v64h-64v128h64v64h-64v64h64v64h256v-64h64v-64h-64v-64h64v-128h-64v-64h-256z" />
    <glyph glyph-name="uni2079" unicode="&#x2079;" 
d="M64 512v64h64v-64h-64zM320 640v128h-128v-128h128zM128 448v64h192v64h-192v64h-64v128h64v64h256v-64h64v-256h-64v-64h-256z" />
    <glyph glyph-name="uni207A" unicode="&#x207a;" 
d="M256 448v128h-128v64h128v128h64v-128h128v-64h-128v-128h-64z" />
    <glyph glyph-name="uni207B" unicode="&#x207b;" 
d="M128 576v64h320v-64h-320z" />
    <glyph glyph-name="uni207C" unicode="&#x207c;" 
d="M128 512v64h256v-64h-256zM128 640v64h256v-64h-256z" />
    <glyph glyph-name="uni207D" unicode="&#x207d;" 
d="M320 448v64h-64v256h64v64h128v-64h-64v-64h-64v-128h64v-64h64v-64h-128z" />
    <glyph glyph-name="uni207E" unicode="&#x207e;" 
d="M64 448v64h64v64h64v128h-64v64h-64v64h128v-64h64v-256h-64v-64h-128z" />
    <glyph glyph-name="uni207F" unicode="&#x207f;" 
d="M64 448v64h64v192h-64v64h128v-64h64v64h128v-64h64v-256h-128v192h-64v-192h-192z" />
    <glyph glyph-name="uni2081" unicode="&#x2081;" 
d="M64 0v64h128v192h-128v64h128v64h128v-320h128v-64h-384z" />
    <glyph glyph-name="uni2082" unicode="&#x2082;" 
d="M64 0v128h64v64h128v128h-64v-64h-128v64h64v64h192v-64h64v-128h-64v-64h-128v-64h128v64h64v-128h-320z" />
    <glyph glyph-name="uni2083" unicode="&#x2083;" 
d="M128 0v64h-64v64h128v-64h128v64h-64v128h64v64h-128v-64h-128v64h64v64h256v-64h64v-64h-64v-64h64v-128h-64v-64h-256z" />
    <glyph glyph-name="uni2084" unicode="&#x2084;" 
d="M256 0v64h-192v192h64v64h64v-192h64v192h-64v64h192v-256h64v-64h-64v-64h-128z" />
    <glyph glyph-name="uni2085" unicode="&#x2085;" 
d="M128 0v64h-64v64h128v-64h128v128h-256v192h384v-64h-256v-64h192v-64h64v-128h-64v-64h-256z" />
    <glyph glyph-name="uni2086" unicode="&#x2086;" 
d="M320 64v128h-128v-128h128zM384 256v64h64v-64h-64zM128 0v64h-64v256h64v64h256v-64h-192v-64h192v-64h64v-128h-64v-64h-256z" />
    <glyph glyph-name="uni2087" unicode="&#x2087;" 
d="M192 0v192h64v64h64v64h-128v-64h-128v128h384v-128h-64v-64h-64v-192h-128z" />
    <glyph glyph-name="uni2088" unicode="&#x2088;" 
d="M320 64v128h-128v-128h128zM320 256v64h-128v-64h128zM128 0v64h-64v128h64v64h-64v64h64v64h256v-64h64v-64h-64v-64h64v-128h-64v-64h-256z" />
    <glyph glyph-name="uni2089" unicode="&#x2089;" 
d="M64 64v64h64v-64h-64zM320 192v128h-128v-128h128zM128 0v64h192v64h-192v64h-64v128h64v64h256v-64h64v-256h-64v-64h-256z" />
    <glyph glyph-name="uni208A" unicode="&#x208a;" 
d="M256 0v128h-128v64h128v128h64v-128h128v-64h-128v-128h-64z" />
    <glyph glyph-name="uni208B" unicode="&#x208b;" 
d="M128 128v64h320v-64h-320z" />
    <glyph glyph-name="uni208C" unicode="&#x208c;" 
d="M128 64v64h256v-64h-256zM128 192v64h256v-64h-256z" />
    <glyph glyph-name="uni208D" unicode="&#x208d;" 
d="M320 0v64h-64v256h64v64h128v-64h-64v-64h-64v-128h64v-64h64v-64h-128z" />
    <glyph glyph-name="uni208E" unicode="&#x208e;" 
d="M256 0v64h64v64h64v128h-64v64h-64v64h128v-64h64v-256h-64v-64h-128z" />
    <glyph glyph-name="uni2099" unicode="&#x2099;" 
d="M64 0v64h64v192h-64v64h128v-64h64v64h128v-64h64v-256h-128v192h-64v-192h-192z" />
    <glyph glyph-name="franc" unicode="&#x20a3;" 
d="M0 0v64h64v128h-64v64h64v512h-64v64h448v-256h-64v128h-64v64h-128v-320h128v64h64v-192h-64v64h-128v-128h128v-64h-128v-128h64v-64h-256z" />
    <glyph glyph-name="Euro" unicode="&#x20ac;" 
d="M192 0v64h-64v64h-64v128h-64v64h64v128h-64v64h64v128h64v64h64v64h192v-64h64v-128h-64v64h-64v64h-64v-64h-64v-128h128v-64h-128v-128h128v-64h-128v-128h64v-64h64v64h64v64h64v-128h-64v-64h-192z" />
    <glyph glyph-name="trademark" unicode="&#x2122;" 
d="M128 512v192h-64v64h256v-64h64v64h64v-256h-64v128h-64v-128h-64v192h-64v-192h-64z" />
    <glyph glyph-name="arrowleft" unicode="&#x2190;" 
d="M256 192v64h64v-64h-64zM192 256v64h64v-64h-64zM128 320v64h-64v64h64v64h64v-64h320v-64h-320v-64h-64zM192 512v64h64v-64h-64zM256 576v64h64v-64h-64z" />
    <glyph glyph-name="arrowup" unicode="&#x2191;" 
d="M64 384v64h64v-64h-64zM448 384v64h64v-64h-64zM128 448v64h64v-64h-64zM384 448v64h64v-64h-64zM256 192v320h-64v64h64v64h64v-64h64v-64h-64v-320h-64z" />
    <glyph glyph-name="arrowright" unicode="&#x2192;" 
d="M256 192v64h64v-64h-64zM320 256v64h64v-64h-64zM384 320v64h-320v64h320v64h64v-64h64v-64h-64v-64h-64zM320 512v64h64v-64h-64zM256 576v64h64v-64h-64z" />
    <glyph glyph-name="arrowdown" unicode="&#x2193;" 
d="M128 320v64h64v-64h-64zM384 320v64h64v-64h-64zM64 384v64h64v-64h-64zM448 384v64h64v-64h-64zM256 192v64h-64v64h64v320h64v-320h64v-64h-64v-64h-64z" />
    <glyph glyph-name="uni2196" unicode="&#x2196;" 
d="M384 256v64h64v-64h-64zM320 320v64h64v-64h-64zM256 384v64h64v-64h-64zM192 448v64h64v-64h-64zM64 384v256h256v-64h-128v-64h-64v-128h-64z" />
    <glyph glyph-name="uni2197" unicode="&#x2197;" 
d="M64 256v64h64v-64h-64zM128 320v64h64v-64h-64zM192 384v64h64v-64h-64zM256 448v64h64v-64h-64zM384 384v128h-64v64h-128v64h256v-256h-64z" />
    <glyph glyph-name="uni2198" unicode="&#x2198;" 
d="M256 384v64h64v-64h-64zM192 448v64h64v-64h-64zM192 256v64h128v64h64v128h64v-256h-256zM128 512v64h64v-64h-64zM64 576v64h64v-64h-64z" />
    <glyph glyph-name="uni2199" unicode="&#x2199;" 
d="M192 384v64h64v-64h-64zM64 256v256h64v-128h64v-64h128v-64h-256zM256 448v64h64v-64h-64zM320 512v64h64v-64h-64zM384 576v64h64v-64h-64z" />
    <glyph glyph-name="upblock" unicode="&#x2580;" 
d="M0 256v256h512v-256h-512z" />
    <glyph glyph-name="uni2581" unicode="&#x2581;" 
d="M0 0v64h512v-64h-512z" />
    <glyph glyph-name="uni2582" unicode="&#x2582;" 
d="M0 0v128h512v-128h-512z" />
    <glyph glyph-name="uni2583" unicode="&#x2583;" 
d="M0 0v192h512v-192h-512z" />
    <glyph glyph-name="dnblock" unicode="&#x2584;" 
d="M0 0v256h512v-256h-512z" />
    <glyph glyph-name="uni2585" unicode="&#x2585;" 
d="M0 0v320h512v-320h-512z" />
    <glyph glyph-name="uni2586" unicode="&#x2586;" 
d="M0 0v384h512v-384h-512z" />
    <glyph glyph-name="uni2587" unicode="&#x2587;" 
d="M0 0v448h512v-448h-512z" />
    <glyph glyph-name="block" unicode="&#x2588;" 
d="M0 0v512h512v-512h-512z" />
    <glyph glyph-name="uni2589" unicode="&#x2589;" 
d="M0 0v512h448v-512h-448z" />
    <glyph glyph-name="uni258A" unicode="&#x258a;" 
d="M0 0v512h384v-512h-384z" />
    <glyph glyph-name="uni258B" unicode="&#x258b;" 
d="M0 0v512h320v-512h-320z" />
    <glyph glyph-name="lfblock" unicode="&#x258c;" 
d="M0 0v512h256v-512h-256z" />
    <glyph glyph-name="uni258D" unicode="&#x258d;" 
d="M0 0v512h192v-512h-192z" />
    <glyph glyph-name="uni258E" unicode="&#x258e;" 
d="M0 0v512h128v-512h-128z" />
    <glyph glyph-name="uni258F" unicode="&#x258f;" 
d="M0 0v512h64v-512h-64z" />
    <glyph glyph-name="rtblock" unicode="&#x2590;" 
d="M256 0v512h256v-512h-256z" />
    <glyph glyph-name="uni2594" unicode="&#x2594;" 
d="M0 448v64h512v-64h-512z" />
    <glyph glyph-name="uni2595" unicode="&#x2595;" 
d="M448 0v512h64v-512h-64z" />
    <glyph glyph-name="uni2596" unicode="&#x2596;" 
d="M0 0v256h256v-256h-256z" />
    <glyph glyph-name="uni2597" unicode="&#x2597;" 
d="M256 0v256h256v-256h-256z" />
    <glyph glyph-name="uni2598" unicode="&#x2598;" 
d="M0 256v256h256v-256h-256z" />
    <glyph glyph-name="uni2599" unicode="&#x2599;" 
d="M0 0v512h256v-256h256v-256h-512z" />
    <glyph glyph-name="uni259A" unicode="&#x259a;" 
d="M256 0v256h256v-256h-256zM0 256v256h256v-256h-256z" />
    <glyph glyph-name="uni259B" unicode="&#x259b;" 
d="M0 0v512h512v-256h-256v-256h-256z" />
    <glyph glyph-name="uni259C" unicode="&#x259c;" 
d="M256 0v256h-256v256h512v-512h-256z" />
    <glyph glyph-name="uni259D" unicode="&#x259d;" 
d="M256 256v256h256v-256h-256z" />
    <glyph glyph-name="uni259E" unicode="&#x259e;" 
d="M0 0v256h256v-256h-256zM256 256v256h256v-256h-256z" />
    <glyph glyph-name="uni259F" unicode="&#x259f;" 
d="M0 0v256h256v256h256v-512h-512z" />
    <glyph glyph-name="filledbox" unicode="&#x25a0;" 
d="M0 0v512h512v-512h-512z" />
    <glyph glyph-name="H22073" unicode="&#x25a1;" 
d="M448 64v384h-384v-384h384zM0 0v512h512v-512h-512z" />
    <glyph glyph-name="uni25A2" unicode="&#x25a2;" 
d="M64 0v64h384v-64h-384zM0 64v384h64v-384h-64zM448 64v384h64v-384h-64zM64 448v64h384v-64h-384z" />
    <glyph glyph-name="uni25A3" unicode="&#x25a3;" 
d="M128 128v256h256v-256h-256zM448 64v384h-384v-384h384zM0 0v512h512v-512h-512z" />
    <glyph glyph-name="uni25A4" unicode="&#x25a4;" 
d="M448 128v64h-384v-64h384zM448 320v64h-384v-64h384zM0 0v512h512v-512h-512z" />
    <glyph glyph-name="uni25A5" unicode="&#x25a5;" 
d="M192 64v384h-64v-384h64zM384 64v384h-64v-384h64zM0 0v512h512v-512h-512z" />
    <glyph glyph-name="uni25A6" unicode="&#x25a6;" 
d="M128 64v64h-64v-64h64zM320 64v64h-128v-64h128zM448 64v64h-64v-64h64zM128 192v128h-64v-128h64zM320 192v128h-128v-128h128zM448 192v128h-64v-128h64zM128 384v64h-64v-64h64zM320 384v64h-128v-64h128zM448 384v64h-64v-64h64zM0 0v512h512v-512h-512z" />
    <glyph glyph-name="uni25A7" unicode="&#x25a7;" 
d="M128 64v64h-64v-64h64zM320 64v64h-64v64h-64v64h-64v64h-64v-64h64v-64h64v-64h64v-64h64zM448 192v64h-64v64h-64v64h-64v64h-64v-64h64v-64h64v-64h64v-64h64zM448 384v64h-64v-64h64zM0 0v512h512v-512h-512z" />
    <glyph glyph-name="uni25A8" unicode="&#x25a8;" 
d="M448 64v64h-64v-64h64zM256 64v64h64v64h64v64h64v64h-64v-64h-64v-64h-64v-64h-64v-64h64zM128 384v64h-64v-64h64zM128 192v64h64v64h64v64h64v64h-64v-64h-64v-64h-64v-64h-64v-64h64zM0 0v512h512v-512h-512z" />
    <glyph glyph-name="uni25A9" unicode="&#x25a9;" 
d="M192 64v64h-64v64h-64v-64h64v-64h64zM384 64v64h64v64h-64v-64h-64v-64h64zM320 192v128h-128v-128h128zM128 320v64h64v64h-64v-64h-64v-64h64zM448 320v64h-64v64h-64v-64h64v-64h64zM0 0v512h512v-512h-512z" />
    <glyph glyph-name="H18543" unicode="&#x25aa;" 
d="M0 0v256h256v-256h-256z" />
    <glyph glyph-name="H18551" unicode="&#x25ab;" 
d="M192 64v128h-128v-128h128zM0 0v256h256v-256h-256z" />
    <glyph glyph-name="filledrect" unicode="&#x25ac;" 
d="M0 0v256h512v-256h-512z" />
    <glyph glyph-name="uni25AD" unicode="&#x25ad;" 
d="M448 64v128h-384v-128h384zM0 0v256h512v-256h-512z" />
    <glyph glyph-name="uni25AE" unicode="&#x25ae;" 
d="M0 0v512h256v-512h-256z" />
    <glyph glyph-name="uni25AF" unicode="&#x25af;" 
d="M192 64v384h-128v-384h128zM0 0v512h256v-512h-256z" />
    <glyph glyph-name="triagup" unicode="&#x25b2;" 
d="M0 128v128h64v64h64v64h64v64h128v-64h64v-64h64v-64h64v-128h-512z" />
    <glyph glyph-name="uni25B3" unicode="&#x25b3;" 
d="M0 128v128h64v-64h384v64h64v-128h-512zM64 256v64h64v-64h-64zM384 256v64h64v-64h-64zM128 320v64h64v-64h-64zM320 320v64h64v-64h-64zM192 384v64h128v-64h-128z" />
    <glyph glyph-name="uni25B4" unicode="&#x25b4;" 
d="M0 128v320h64v64h64v64h64v64h128v-64h64v-64h64v-64h64v-320h-128v64h-64v64h-128v-64h-64v-64h-128z" />
    <glyph glyph-name="uni25B5" unicode="&#x25b5;" 
d="M128 192v64h64v-64h-64zM320 192v64h64v-64h-64zM192 256v64h128v-64h-128zM0 128v320h64v-256h64v-64h-128zM384 128v64h64v256h64v-320h-128zM64 448v64h64v-64h-64zM384 448v64h64v-64h-64zM128 512v64h64v-64h-64zM320 512v64h64v-64h-64zM192 576v64h128v-64h-128z
" />
    <glyph glyph-name="uni25B6" unicode="&#x25b6;" 
d="M64 0v64h-64v832h64v64h64v-64h64v-64h64v-64h64v-64h64v-64h64v-64h64v-192h-64v-64h-64v-64h-64v-64h-64v-64h-64v-64h-64v-64h-64z" />
    <glyph glyph-name="uni25B7" unicode="&#x25b7;" 
d="M64 0v64h64v-64h-64zM128 64v64h64v-64h-64zM192 128v64h64v-64h-64zM256 192v64h64v-64h-64zM320 256v64h64v-64h-64zM384 320v64h64v-64h-64zM448 384v192h64v-192h-64zM384 576v64h64v-64h-64zM320 640v64h64v-64h-64zM256 704v64h64v-64h-64zM192 768v64h64v-64h-64z
M0 64v832h64v-832h-64zM128 832v64h64v-64h-64zM64 896v64h64v-64h-64z" />
    <glyph glyph-name="uni25B8" unicode="&#x25b8;" 
d="M0 128v128h64v64h64v128h-64v64h-64v128h320v-64h64v-64h64v-64h64v-128h-64v-64h-64v-64h-64v-64h-320z" />
    <glyph glyph-name="uni25B9" unicode="&#x25b9;" 
d="M0 128v128h64v-64h256v-64h-320zM320 192v64h64v-64h-64zM64 256v64h64v-64h-64zM384 256v64h64v-64h-64zM128 320v128h64v-128h-64zM448 320v128h64v-128h-64zM64 448v64h64v-64h-64zM384 448v64h64v-64h-64zM320 512v64h64v-64h-64zM0 512v128h320v-64h-256v-64h-64z
" />
    <glyph glyph-name="triagrt" unicode="&#x25ba;" 
d="M64 128v512h128v-64h64v-64h64v-64h64v-128h-64v-64h-64v-64h-64v-64h-128z" />
    <glyph glyph-name="uni25BB" unicode="&#x25bb;" 
d="M192 192v64h64v-64h-64zM256 256v64h64v-64h-64zM320 320v128h64v-128h-64zM256 448v64h64v-64h-64zM192 512v64h64v-64h-64zM64 128v512h128v-64h-64v-384h64v-64h-128z" />
    <glyph glyph-name="triagdn" unicode="&#x25bc;" 
d="M192 128v64h-64v64h-64v64h-64v128h512v-128h-64v-64h-64v-64h-64v-64h-128z" />
    <glyph glyph-name="uni25BD" unicode="&#x25bd;" 
d="M192 128v64h128v-64h-128zM128 192v64h64v-64h-64zM320 192v64h64v-64h-64zM64 256v64h64v-64h-64zM384 256v64h64v-64h-64zM0 320v128h512v-128h-64v64h-384v-64h-64z" />
    <glyph glyph-name="uni25BE" unicode="&#x25be;" 
d="M192 128v64h-64v64h-64v64h-64v320h128v-64h64v-64h128v64h64v64h128v-320h-64v-64h-64v-64h-64v-64h-128z" />
    <glyph glyph-name="uni25BF" unicode="&#x25bf;" 
d="M192 128v64h128v-64h-128zM128 192v64h64v-64h-64zM320 192v64h64v-64h-64zM64 256v64h64v-64h-64zM384 256v64h64v-64h-64zM192 448v64h128v-64h-128zM128 512v64h64v-64h-64zM320 512v64h64v-64h-64zM0 320v320h128v-64h-64v-256h-64zM448 320v256h-64v64h128v-320h-64
z" />
    <glyph glyph-name="uni25C0" unicode="&#x25c0;" 
d="M384 0v64h-64v64h-64v64h-64v64h-64v64h-64v64h-64v192h64v64h64v64h64v64h64v64h64v64h64v64h64v-64h64v-832h-64v-64h-64z" />
    <glyph glyph-name="uni25C1" unicode="&#x25c1;" 
d="M384 0v64h64v-64h-64zM320 64v64h64v-64h-64zM256 128v64h64v-64h-64zM192 192v64h64v-64h-64zM128 256v64h64v-64h-64zM64 320v64h64v-64h-64zM0 384v192h64v-192h-64zM64 576v64h64v-64h-64zM128 640v64h64v-64h-64zM192 704v64h64v-64h-64zM256 768v64h64v-64h-64z
M320 832v64h64v-64h-64zM448 64v832h64v-832h-64zM384 896v64h64v-64h-64z" />
    <glyph glyph-name="uni25C2" unicode="&#x25c2;" 
d="M192 128v64h-64v64h-64v64h-64v128h64v64h64v64h64v64h320v-128h-64v-64h-64v-128h64v-64h64v-128h-320z" />
    <glyph glyph-name="uni25C3" unicode="&#x25c3;" 
d="M128 192v64h64v-64h-64zM192 128v64h256v64h64v-128h-320zM64 256v64h64v-64h-64zM384 256v64h64v-64h-64zM0 320v128h64v-128h-64zM320 320v128h64v-128h-64zM64 448v64h64v-64h-64zM384 448v64h64v-64h-64zM128 512v64h64v-64h-64zM448 512v64h-256v64h320v-128h-64z
" />
    <glyph glyph-name="triaglf" unicode="&#x25c4;" 
d="M320 128v64h-64v64h-64v64h-64v128h64v64h64v64h64v64h128v-512h-128z" />
    <glyph glyph-name="uni25C5" unicode="&#x25c5;" 
d="M256 192v64h64v-64h-64zM192 256v64h64v-64h-64zM128 320v128h64v-128h-64zM192 448v64h64v-64h-64zM256 512v64h64v-64h-64zM320 128v64h64v384h-64v64h128v-512h-128z" />
    <glyph glyph-name="uni25C6" unicode="&#x25c6;" 
d="M192 0v64h-64v64h-64v64h-64v128h64v64h64v64h64v64h128v-64h64v-64h64v-64h64v-128h-64v-64h-64v-64h-64v-64h-128z" />
    <glyph glyph-name="uni25C7" unicode="&#x25c7;" 
d="M192 0v64h128v-64h-128zM128 64v64h64v-64h-64zM320 64v64h64v-64h-64zM64 128v64h64v-64h-64zM384 128v64h64v-64h-64zM0 192v128h64v-128h-64zM448 192v128h64v-128h-64zM64 320v64h64v-64h-64zM384 320v64h64v-64h-64zM128 384v64h64v-64h-64zM320 384v64h64v-64h-64z
M192 448v64h128v-64h-128z" />
    <glyph glyph-name="uni25C8" unicode="&#x25c8;" 
d="M192 0v64h128v-64h-128zM128 64v64h64v-64h-64zM320 64v64h64v-64h-64zM64 128v64h64v-64h-64zM384 128v64h64v-64h-64zM0 192v128h64v-128h-64zM192 192v128h128v-128h-128zM448 192v128h64v-128h-64zM64 320v64h64v-64h-64zM384 320v64h64v-64h-64zM128 384v64h64v-64
h-64zM320 384v64h64v-64h-64zM192 448v64h128v-64h-128z" />
    <glyph glyph-name="uni25C9" unicode="&#x25c9;" 
d="M192 0v64h128v-64h-128zM128 64v64h64v-64h-64zM320 64v64h64v-64h-64zM64 128v64h64v-64h-64zM384 128v64h64v-64h-64zM0 192v128h64v-128h-64zM448 192v128h64v-128h-64zM64 320v64h64v-64h-64zM192 128v64h-64v128h64v64h128v-64h64v-128h-64v-64h-128zM384 320v64h64
v-64h-64zM128 384v64h64v-64h-64zM320 384v64h64v-64h-64zM192 448v64h128v-64h-128z" />
    <glyph glyph-name="lozenge" unicode="&#x25ca;" 
d="M192 0v64h128v-64h-128zM128 64v128h64v-128h-64zM320 64v128h64v-128h-64zM64 192v128h64v-128h-64zM384 192v128h64v-128h-64zM0 320v128h64v-128h-64zM448 320v128h64v-128h-64zM64 448v128h64v-128h-64zM384 448v128h64v-128h-64zM128 576v128h64v-128h-64zM320 576
v128h64v-128h-64zM192 704v64h128v-64h-128z" />
    <glyph glyph-name="circle" unicode="&#x25cb;" 
d="M128 0v64h256v-64h-256zM64 64v64h64v-64h-64zM384 64v64h64v-64h-64zM0 128v256h64v-256h-64zM448 128v256h64v-256h-64zM64 384v64h64v-64h-64zM384 384v64h64v-64h-64zM128 448v64h256v-64h-256z" />
    <glyph glyph-name="uni25CC" unicode="&#x25cc;" 
d="M192 0v64h128v-64h-128zM64 64v64h64v-64h-64zM384 64v64h64v-64h-64zM0 192v128h64v-128h-64zM448 192v128h64v-128h-64zM64 384v64h64v-64h-64zM384 384v64h64v-64h-64zM192 448v64h128v-64h-128z" />
    <glyph glyph-name="uni25CD" unicode="&#x25cd;" 
d="M64 64v64h-64v256h64v64h64v-384h-64zM384 64v384h64v-64h64v-256h-64v-64h-64zM128 0v64h64v384h-64v64h256v-64h-64v-384h64v-64h-256z" />
    <glyph glyph-name="uni25CE" unicode="&#x25ce;" 
d="M128 0v64h256v-64h-256zM64 64v64h64v-64h-64zM384 64v64h64v-64h-64zM192 128v64h128v-64h-128zM128 192v128h64v-128h-64zM320 192v128h64v-128h-64zM0 128v256h64v-256h-64zM192 320v64h128v-64h-128zM448 128v256h64v-256h-64zM64 384v64h64v-64h-64zM384 384v64h64
v-64h-64zM128 448v64h256v-64h-256z" />
    <glyph glyph-name="H18533" unicode="&#x25cf;" 
d="M128 0v64h-64v64h-64v256h64v64h64v64h256v-64h64v-64h64v-256h-64v-64h-64v-64h-256z" />
    <glyph glyph-name="uni25D0" unicode="&#x25d0;" 
d="M384 64v64h64v-64h-64zM448 128v256h64v-256h-64zM384 384v64h64v-64h-64zM128 0v64h-64v64h-64v256h64v64h64v64h256v-64h-128v-384h128v-64h-256z" />
    <glyph glyph-name="uni25D1" unicode="&#x25d1;" 
d="M64 64v64h64v-64h-64zM0 128v256h64v-256h-64zM64 384v64h64v-64h-64zM128 0v64h128v384h-128v64h256v-64h64v-64h64v-256h-64v-64h-64v-64h-256z" />
    <glyph glyph-name="uni25D2" unicode="&#x25d2;" 
d="M128 0v64h-64v64h-64v256h64v-128h384v128h64v-256h-64v-64h-64v-64h-256zM64 384v64h64v-64h-64zM384 384v64h64v-64h-64zM128 448v64h256v-64h-256z" />
    <glyph glyph-name="uni25D3" unicode="&#x25d3;" 
d="M128 0v64h256v-64h-256zM64 64v64h64v-64h-64zM384 64v64h64v-64h-64zM0 128v256h64v64h64v64h256v-64h64v-64h64v-256h-64v128h-384v-128h-64z" />
    <glyph glyph-name="uni25D4" unicode="&#x25d4;" 
d="M128 0v64h256v-64h-256zM64 64v64h64v-64h-64zM384 64v64h64v-64h-64zM0 128v256h64v-256h-64zM64 384v64h64v-64h-64zM448 128v128h-192v192h-128v64h256v-64h64v-64h64v-256h-64z" />
    <glyph glyph-name="uni25D5" unicode="&#x25d5;" 
d="M64 384v64h64v-64h-64zM128 0v64h-64v64h-64v256h64v-128h192v192h-128v64h256v-64h64v-64h64v-256h-64v-64h-64v-64h-256z" />
    <glyph glyph-name="uni25D6" unicode="&#x25d6;" 
d="M128 0v64h-64v64h-64v256h64v64h64v64h128v-512h-128z" />
    <glyph glyph-name="uni25D7" unicode="&#x25d7;" 
d="M0 0v512h128v-64h64v-64h64v-256h-64v-64h-64v-64h-128z" />
    <glyph glyph-name="uni25DC" unicode="&#x25dc;" 
d="M0 0v128h64v64h64v64h128v-256h-256z" />
    <glyph glyph-name="uni25DD" unicode="&#x25dd;" 
d="M0 0v256h128v-64h64v-64h64v-128h-256z" />
    <glyph glyph-name="uni25DE" unicode="&#x25de;" 
d="M0 0v256h256v-128h-64v-64h-64v-64h-128z" />
    <glyph glyph-name="uni25DF" unicode="&#x25df;" 
d="M128 0v64h-64v64h-64v128h256v-256h-128z" />
    <glyph glyph-name="uni25E0" unicode="&#x25e0;" 
d="M0 0v128h64v64h64v64h256v-64h64v-64h64v-128h-512z" />
    <glyph glyph-name="uni25E1" unicode="&#x25e1;" 
d="M128 0v64h-64v64h-64v128h512v-128h-64v-64h-64v-64h-256z" />
    <glyph glyph-name="uni25E2" unicode="&#x25e2;" 
d="M0 0v64h64v64h64v64h64v64h64v-256h-256z" />
    <glyph glyph-name="uni25E3" unicode="&#x25e3;" 
d="M0 0v256h64v-64h64v-64h64v-64h64v-64h-256z" />
    <glyph glyph-name="uni25E4" unicode="&#x25e4;" 
d="M0 0v256h256v-64h-64v-64h-64v-64h-64v-64h-64z" />
    <glyph glyph-name="uni25E5" unicode="&#x25e5;" 
d="M192 0v64h-64v64h-64v64h-64v64h256v-256h-64z" />
    <glyph glyph-name="openbullet" unicode="&#x25e6;" 
d="M192 320v64h128v-64h-128zM128 384v128h64v-128h-64zM320 384v128h64v-128h-64zM192 512v64h128v-64h-128z" />
    <glyph glyph-name="uni25E7" unicode="&#x25e7;" 
d="M448 64v384h-192v-384h192zM0 0v512h512v-512h-512z" />
    <glyph glyph-name="uni25E8" unicode="&#x25e8;" 
d="M256 64v384h-192v-384h192zM0 0v512h512v-512h-512z" />
    <glyph glyph-name="uni25E9" unicode="&#x25e9;" 
d="M448 64v320h-64v-64h-64v-64h-64v-64h-64v-64h-64v-64h320zM0 0v512h512v-512h-512z" />
    <glyph glyph-name="uni25EA" unicode="&#x25ea;" 
d="M128 128v64h64v64h64v64h64v64h64v64h-320v-320h64zM0 0v512h512v-512h-512z" />
    <glyph glyph-name="uni25EB" unicode="&#x25eb;" 
d="M192 64v384h-128v-384h128zM448 64v384h-128v-384h128zM0 0v512h512v-512h-512z" />
    <glyph glyph-name="uni25F0" unicode="&#x25f0;" 
d="M448 64v384h-192v-192h-192v-192h384zM0 0v512h512v-512h-512z" />
    <glyph glyph-name="uni25F1" unicode="&#x25f1;" 
d="M448 64v384h-384v-192h192v-192h192zM0 0v512h512v-512h-512z" />
    <glyph glyph-name="uni25F2" unicode="&#x25f2;" 
d="M256 64v192h192v192h-384v-384h192zM0 0v512h512v-512h-512z" />
    <glyph glyph-name="uni25F3" unicode="&#x25f3;" 
d="M448 64v192h-192v192h-192v-384h384zM0 0v512h512v-512h-512z" />
    <glyph glyph-name="uni25F4" unicode="&#x25f4;" 
d="M128 0v64h256v-64h-256zM64 64v64h64v-64h-64zM384 64v64h64v-64h-64zM448 128v256h64v-256h-64zM384 384v64h64v-64h-64zM0 128v256h64v64h64v64h256v-64h-128v-192h-192v-128h-64z" />
    <glyph glyph-name="uni25F5" unicode="&#x25f5;" 
d="M384 64v64h64v-64h-64zM128 0v64h-64v64h-64v256h64v-128h192v-192h128v-64h-256zM448 128v256h64v-256h-64zM64 384v64h64v-64h-64zM384 384v64h64v-64h-64zM128 448v64h256v-64h-256z" />
    <glyph glyph-name="uni25F6" unicode="&#x25f6;" 
d="M64 64v64h64v-64h-64zM0 128v256h64v-256h-64zM128 0v64h128v192h192v128h64v-256h-64v-64h-64v-64h-256zM64 384v64h64v-64h-64zM384 384v64h64v-64h-64zM128 448v64h256v-64h-256z" />
    <glyph glyph-name="uni25F7" unicode="&#x25f7;" 
d="M128 0v64h256v-64h-256zM64 64v64h64v-64h-64zM384 64v64h64v-64h-64zM0 128v256h64v-256h-64zM64 384v64h64v-64h-64zM448 128v128h-192v192h-128v64h256v-64h64v-64h64v-256h-64z" />
    <glyph glyph-name="uni25F8" unicode="&#x25f8;" 
d="M0 0v256h256v-64h-64v-64h-64v64h-64v-64h64v-64h-64v-64h-64z" />
    <glyph glyph-name="uni25F9" unicode="&#x25f9;" 
d="M192 0v64h-64v64h64v64h-64v-64h-64v64h-64v64h256v-256h-64z" />
    <glyph glyph-name="uni25FB" unicode="&#x25fb;" 
d="M320 64v256h-256v-256h256zM0 0v384h384v-384h-384z" />
    <glyph glyph-name="uni25FC" unicode="&#x25fc;" 
d="M0 0v384h384v-384h-384z" />
    <glyph glyph-name="uni25FD" unicode="&#x25fd;" 
d="M256 64v192h-192v-192h192zM0 0v320h320v-320h-320z" />
    <glyph glyph-name="uni25FE" unicode="&#x25fe;" 
d="M0 0v320h320v-320h-320z" />
    <glyph glyph-name="uni25FF" unicode="&#x25ff;" 
d="M0 0v64h64v64h64v-64h64v64h-64v64h64v64h64v-256h-256z" />
    <glyph glyph-name="uni2661" unicode="&#x2661;" 
d="M192 64v64h128v-64h-128zM128 128v64h64v-64h-64zM320 128v64h64v-64h-64zM64 192v64h64v-64h-64zM384 192v64h64v-64h-64zM0 256v192h64v-192h-64zM192 384v64h128v-64h-128zM448 256v192h64v-192h-64zM64 448v64h128v-64h-128zM320 448v64h128v-64h-128z" />
    <glyph glyph-name="heart" unicode="&#x2665;" 
d="M192 64v64h-64v64h-64v64h-64v192h64v64h128v-64h128v64h128v-64h64v-192h-64v-64h-64v-64h-64v-64h-128z" />
    <glyph glyph-name="uni3001" unicode="&#x3001;" 
d="M256 0v64h64v-64h-64zM192 64v64h64v-64h-64zM128 128v64h64v-64h-64z" />
    <glyph glyph-name="uni3002" unicode="&#x3002;" 
d="M128 0v64h64v-64h-64zM64 64v128h64v-128h-64zM192 64v128h64v-128h-64zM128 192v64h64v-64h-64z" />
    <glyph glyph-name="uni3008" unicode="&#x3008;" 
d="M320 0v128h64v-128h-64zM256 128v128h64v-128h-64zM192 256v128h64v-128h-64zM128 384v128h64v-128h-64zM192 512v128h64v-128h-64zM256 640v128h64v-128h-64zM320 768v128h64v-128h-64z" />
    <glyph glyph-name="uni3009" unicode="&#x3009;" 
d="M128 0v128h64v-128h-64zM192 128v128h64v-128h-64zM256 256v128h64v-128h-64zM320 384v128h64v-128h-64zM256 512v128h64v-128h-64zM192 640v128h64v-128h-64zM128 768v128h64v-128h-64z" />
    <glyph glyph-name="uni300A" unicode="&#x300a;" 
d="M256 0v128h64v-128h-64zM384 0v128h64v-128h-64zM192 128v128h64v-128h-64zM320 128v128h64v-128h-64zM128 256v128h64v-128h-64zM256 256v128h64v-128h-64zM64 384v128h64v-128h-64zM192 384v128h64v-128h-64zM128 512v128h64v-128h-64zM256 512v128h64v-128h-64z
M192 640v128h64v-128h-64zM320 640v128h64v-128h-64zM256 768v128h64v-128h-64zM384 768v128h64v-128h-64z" />
    <glyph glyph-name="uni300B" unicode="&#x300b;" 
d="M64 0v128h64v-128h-64zM192 0v128h64v-128h-64zM128 128v128h64v-128h-64zM256 128v128h64v-128h-64zM192 256v128h64v-128h-64zM320 256v128h64v-128h-64zM256 384v128h64v-128h-64zM384 384v128h64v-128h-64zM192 512v128h64v-128h-64zM320 512v128h64v-128h-64z
M128 640v128h64v-128h-64zM256 640v128h64v-128h-64zM64 768v128h64v-128h-64zM192 768v128h64v-128h-64z" />
    <glyph glyph-name="uni300C" unicode="&#x300c;" 
d="M128 512v384h320v-64h-256v-320h-64z" />
    <glyph glyph-name="uni300D" unicode="&#x300d;" 
d="M64 0v64h256v320h64v-384h-320z" />
    <glyph glyph-name="uni300E" unicode="&#x300e;" 
d="M256 512v256h128v64h-192v-320h64zM128 448v448h320v-192h-128v-256h-192z" />
    <glyph glyph-name="uni300F" unicode="&#x300f;" 
d="M320 64v320h-64v-256h-128v-64h192zM64 0v192h128v256h192v-448h-320z" />
    <glyph glyph-name="uni301C" unicode="&#x301c;" 
d="M0 256v128h64v64h192v-64h64v-64h64v64h64v64h64v-128h-64v-64h-192v64h-64v64h-64v-64h-64v-64h-64z" />
    <glyph glyph-name="uni3041" unicode="&#x3041;" 
d="M64 0v64h64v-64h-64zM256 0v64h64v-64h-64zM128 64v64h64v-64h-64zM0 64v192h64v-192h-64zM320 64v192h64v-192h-64zM320 448v64h64v-64h-64zM192 128v64h-64v64h-64v64h64v64h-128v64h128v128h64v-128h128v-64h-128v-64h128v-64h-64v-128h-64z" />
    <glyph glyph-name="uni3042" unicode="&#x3042;" 
d="M64 0v64h64v-64h-64zM256 0v64h64v-64h-64zM320 64v64h64v-64h-64zM128 64v128h64v-128h-64zM0 64v256h64v-256h-64zM192 192v128h64v-128h-64zM256 320v128h64v-128h-64zM384 128v320h64v-320h-64zM320 448v64h64v-64h-64zM320 768v64h64v-64h-64zM64 320v128h64v256
h-128v64h128v128h64v-128h128v-64h-128v-128h128v-64h-128v-192h-128z" />
    <glyph glyph-name="uni3043" unicode="&#x3043;" 
d="M64 64v64h64v-64h-64zM128 128v128h64v-128h-64zM320 128v64h-64v64h64v128h64v-256h-64zM256 384v64h64v-64h-64zM0 128v384h64v-384h-64z" />
    <glyph glyph-name="uni3044" unicode="&#x3044;" 
d="M128 256v128h64v-128h-64zM384 192v128h-64v64h64v192h64v-384h-64zM320 576v128h64v-128h-64zM64 64v128h-64v640h64v-576h64v-192h-64z" />
    <glyph glyph-name="uni3045" unicode="&#x3045;" 
d="M128 0v64h128v-64h-128zM256 64v64h64v-64h-64zM64 256v64h64v-64h-64zM320 128v192h64v-192h-64zM128 320v64h192v-64h-192zM192 448v64h128v-64h-128zM128 512v64h64v-64h-64z" />
    <glyph glyph-name="uni3046" unicode="&#x3046;" 
d="M128 0v64h64v-64h-64zM192 64v64h64v-64h-64zM256 128v128h64v-128h-64zM64 448v64h64v-64h-64zM128 512v64h64v-64h-64zM320 256v320h64v-320h-64zM192 576v64h128v-64h-128zM192 768v64h128v-64h-128zM128 832v64h64v-64h-64z" />
    <glyph glyph-name="uni3047" unicode="&#x3047;" 
d="M0 0v64h64v-64h-64zM256 0v64h128v-64h-128zM64 64v64h64v-64h-64zM192 64v64h64v-64h-64zM128 128v64h64v-64h-64zM192 192v64h64v-64h-64zM64 256v64h64v-64h-64zM256 256v64h-128v64h192v-128h-64zM128 448v64h128v-64h-128zM64 512v64h64v-64h-64z" />
    <glyph glyph-name="uni3048" unicode="&#x3048;" 
d="M320 0v64h128v-64h-128zM0 0v128h64v-128h-64zM64 128v128h64v-128h-64zM256 64v256h64v-256h-64zM128 256v128h64v128h64v-192h-64v-64h-64zM64 576v64h128v-64h-128zM256 512v128h-64v64h128v-192h-64zM192 768v64h128v-64h-128zM128 832v64h64v-64h-64z" />
    <glyph glyph-name="uni3049" unicode="&#x3049;" 
d="M64 0v64h64v-64h-64zM256 0v64h64v-64h-64zM0 64v128h64v-128h-64zM320 64v192h64v-192h-64zM320 384v128h64v-128h-64zM128 64v128h-64v64h64v64h-128v64h128v192h64v-128h64v-64h-64v-64h128v-64h-128v-192h-64zM256 512v64h64v-64h-64z" />
    <glyph glyph-name="uni304A" unicode="&#x304a;" 
d="M64 0v64h64v-64h-64zM256 0v64h64v-64h-64zM320 64v64h64v-64h-64zM0 64v192h64v-192h-64zM384 128v256h64v-256h-64zM384 576v128h64v-128h-64zM320 704v64h64v-64h-64zM128 64v192h-64v128h64v192h-128v64h128v256h64v-192h64v-64h-64v-192h192v-64h-192v-320h-64z" />
    <glyph glyph-name="uni304B" unicode="&#x304b;" 
d="M192 0v128h64v-128h-64zM128 128v64h64v-64h-64zM0 64v192h64v-192h-64zM64 256v256h64v-256h-64zM256 128v512h64v-512h-64zM384 320v320h64v-320h-64zM320 640v128h64v-128h-64zM128 512v64h-128v64h128v192h64v-128h64v-64h-64v-128h-64zM256 768v64h64v-64h-64z
M64 832v64h64v-64h-64z" />
    <glyph glyph-name="uni304C" unicode="&#x304c;" 
d="M192 0v128h64v-128h-64zM128 128v64h64v-64h-64zM0 64v192h64v-192h-64zM64 256v256h64v-256h-64zM256 128v512h64v-512h-64zM384 320v320h64v-320h-64zM128 512v64h-128v64h128v192h64v-128h64v-64h-64v-128h-64zM64 832v64h64v-64h-64zM256 832v64h64v-64h-64zM320 640
v192h64v64h64v-128h-64v-128h-64zM320 896v64h64v-64h-64z" />
    <glyph glyph-name="uni304D" unicode="&#x304d;" 
d="M64 0v64h256v-64h-256zM0 64v192h64v-192h-64zM320 192v64h64v-64h-64zM64 256v64h192v64h64v-128h-256zM192 384v64h-192v64h192v64h128v-64h-64v-128h-64zM320 576v64h64v-64h-64zM128 576v64h-128v64h128v128h64v-64h64v-64h-64v-128h-64zM256 768v64h64v-64h-64z
M64 832v64h64v-64h-64z" />
    <glyph glyph-name="uni304E" unicode="&#x304e;" 
d="M64 0v64h256v-64h-256zM0 64v192h64v-192h-64zM320 192v64h64v-64h-64zM64 256v64h192v64h64v-128h-256zM192 384v64h-192v64h192v64h128v-64h-64v-128h-64zM320 640v128h64v-128h-64zM128 576v64h-128v64h128v128h64v-64h64v-64h-64v-128h-64zM256 768v64h64v-64h-64z
M64 832v64h64v-64h-64zM384 768v128h64v-128h-64zM320 896v64h64v-64h-64z" />
    <glyph glyph-name="uni304F" unicode="&#x304f;" 
d="M256 0v128h64v-128h-64zM192 128v128h64v-128h-64zM128 256v64h64v-64h-64zM64 320v64h64v-64h-64zM0 384v128h64v-128h-64zM64 512v64h64v-64h-64zM128 576v128h64v-128h-64zM192 704v128h64v-128h-64z" />
    <glyph glyph-name="uni3050" unicode="&#x3050;" 
d="M256 0v128h64v-128h-64zM192 128v128h64v-128h-64zM128 256v64h64v-64h-64zM64 320v64h64v-64h-64zM0 384v128h64v-128h-64zM320 384v128h64v-128h-64zM64 512v64h64v-64h-64zM256 512v64h64v-64h-64zM384 512v128h64v-128h-64zM128 576v128h64v-128h-64zM320 640v64h64
v-64h-64zM192 704v128h64v-128h-64zM256 832v64h64v-64h-64z" />
    <glyph glyph-name="uni3051" unicode="&#x3051;" 
d="M128 0v64h64v-64h-64zM192 64v64h64v-64h-64zM128 576v64h64v-64h-64zM384 640v64h64v-64h-64zM0 128v640h64v-448h64v-64h-64v-128h-64zM256 128v384h-64v64h64v320h64v-256h64v-64h-64v-448h-64z" />
    <glyph glyph-name="uni3052" unicode="&#x3052;" 
d="M128 0v64h64v-64h-64zM192 64v64h64v-64h-64zM128 576v64h64v-64h-64zM384 640v64h64v-64h-64zM0 128v640h64v-448h64v-64h-64v-128h-64zM256 128v384h-64v64h64v320h64v-128h64v-64h-64v-64h64v-64h-64v-448h-64zM384 768v128h64v-128h-64zM320 896v64h64v-64h-64z" />
    <glyph glyph-name="uni3053" unicode="&#x3053;" 
d="M128 0v64h256v-64h-256zM64 64v64h64v-64h-64zM384 64v64h64v-64h-64zM0 128v192h64v-192h-64zM64 320v64h64v-64h-64zM192 576v64h64v-64h-64zM256 640v64h-128v64h256v-64h-64v-64h-64zM64 768v64h64v-64h-64z" />
    <glyph glyph-name="uni3054" unicode="&#x3054;" 
d="M128 0v64h256v-64h-256zM64 64v64h64v-64h-64zM384 64v64h64v-64h-64zM0 128v192h64v-192h-64zM64 320v64h64v-64h-64zM192 576v64h64v-64h-64zM64 768v64h64v-64h-64zM256 832v64h64v-64h-64zM256 640v64h-128v64h192v64h64v64h64v-128h-64v-64h-64v-64h-64zM320 896v64
h64v-64h-64z" />
    <glyph glyph-name="uni3055" unicode="&#x3055;" 
d="M192 0v64h128v-64h-128zM128 64v64h64v-64h-64zM64 128v192h64v-192h-64zM320 256v64h-192v64h128v192h64v-192h64v-128h-64zM0 640v64h64v-64h-64zM64 576v64h128v192h64v-128h128v-64h-128v-64h-192zM128 832v64h64v-64h-64z" />
    <glyph glyph-name="uni3056" unicode="&#x3056;" 
d="M192 0v64h128v-64h-128zM128 64v64h64v-64h-64zM64 128v192h64v-192h-64zM320 256v64h-192v64h128v192h64v-192h64v-128h-64zM0 640v64h64v-64h-64zM128 832v64h64v-64h-64zM256 832v64h64v-64h-64zM64 576v64h128v192h64v-128h64v128h64v64h64v-128h-64v-128h-128v-64
h-192zM320 896v64h64v-64h-64z" />
    <glyph glyph-name="uni3057" unicode="&#x3057;" 
d="M128 0v64h192v-64h-192zM320 64v64h64v-64h-64zM384 128v128h64v-128h-64zM64 64v768h64v-768h-64z" />
    <glyph glyph-name="uni3058" unicode="&#x3058;" 
d="M128 0v64h192v-64h-192zM320 64v64h64v-64h-64zM384 128v128h64v-128h-64zM256 512v128h64v-128h-64zM192 640v64h64v-64h-64zM384 576v128h64v-128h-64zM320 704v64h64v-64h-64zM64 64v768h64v-768h-64z" />
    <glyph glyph-name="uni3059" unicode="&#x3059;" 
d="M128 0v64h64v-64h-64zM192 64v64h64v-64h-64zM64 320v128h64v-128h-64zM256 128v128h-128v64h128v128h-128v64h128v128h-256v64h256v128h64v-64h128v-64h-128v-256h64v-192h-64v-128h-64zM192 832v64h64v-64h-64z" />
    <glyph glyph-name="uni305A" unicode="&#x305a;" 
d="M128 0v64h64v-64h-64zM192 64v64h64v-64h-64zM64 320v128h64v-128h-64zM192 832v64h64v-64h-64zM256 128v128h-128v64h128v128h-128v64h128v128h-256v64h256v128h64v-64h64v128h64v-192h-128v-256h64v-192h-64v-128h-64zM320 896v64h64v-64h-64z" />
    <glyph glyph-name="uni305B" unicode="&#x305b;" 
d="M128 0v64h256v-64h-256zM64 64v448h-64v64h64v256h64v-256h128v320h64v-256h128v-64h-128v-384h-64v64h-64v64h64v192h-128v-448h-64z" />
    <glyph glyph-name="uni305C" unicode="&#x305c;" 
d="M128 0v64h256v-64h-256zM384 704v128h64v-128h-64zM64 64v448h-64v64h64v256h64v-256h128v320h128v-64h-64v-192h128v-64h-128v-384h-64v64h-64v64h64v192h-128v-448h-64z" />
    <glyph glyph-name="uni305D" unicode="&#x305d;" 
d="M256 0v64h128v-64h-128zM192 64v64h64v-64h-64zM128 128v192h64v-192h-64zM0 448v64h64v-64h-64zM192 320v64h-128v64h128v64h128v-64h-64v-128h-64zM64 512v64h64v-64h-64zM320 512v64h128v-64h-128zM128 576v64h64v-64h-64zM192 640v64h64v-64h-64zM64 832v64h64v-64
h-64zM256 704v64h-128v64h128v64h128v-64h-64v-128h-64z" />
    <glyph glyph-name="uni305E" unicode="&#x305e;" 
d="M256 0v64h128v-64h-128zM192 64v64h64v-64h-64zM128 128v192h64v-192h-64zM0 448v64h64v-64h-64zM192 320v64h-128v64h128v64h128v-64h-64v-128h-64zM64 512v64h64v-64h-64zM320 512v64h128v-64h-128zM128 576v64h64v-64h-64zM192 640v64h64v-64h-64zM64 832v64h64v-64
h-64zM256 704v64h-128v64h128v64h64v-64h64v64h64v-128h-64v-64h-128zM320 896v64h64v-64h-64z" />
    <glyph glyph-name="uni305F" unicode="&#x305f;" 
d="M256 0v64h128v-64h-128zM192 64v64h64v-64h-64zM0 0v320h64v-320h-64zM192 448v64h64v-64h-64zM320 448v64h-64v64h128v-128h-64zM192 704v64h64v-64h-64zM64 320v256h-64v64h64v256h64v-192h64v-64h-64v-320h-64z" />
    <glyph glyph-name="uni3060" unicode="&#x3060;" 
d="M256 0v64h128v-64h-128zM192 64v64h64v-64h-64zM0 0v320h64v-320h-64zM192 448v64h64v-64h-64zM320 448v64h-64v64h128v-128h-64zM192 704v64h64v-64h-64zM64 320v256h-64v64h64v256h64v-192h64v-64h-64v-320h-64zM256 832v64h64v-64h-64zM320 704v128h64v64h64v-128h-64
v-64h-64zM320 896v64h64v-64h-64z" />
    <glyph glyph-name="uni3061" unicode="&#x3061;" 
d="M128 0v64h128v-64h-128zM256 64v64h64v-64h-64zM320 128v128h64v-128h-64zM64 256v64h64v-64h-64zM384 256v192h64v-192h-64zM256 448v64h128v-64h-128zM0 640v64h64v-64h-64zM256 704v64h64v-64h-64zM128 320v256h-64v64h64v256h64v-192h64v-64h-64v-192h64v-64h-64v-64
h-64z" />
    <glyph glyph-name="uni3062" unicode="&#x3062;" 
d="M128 0v64h128v-64h-128zM256 64v64h64v-64h-64zM320 128v128h64v-128h-64zM64 256v64h64v-64h-64zM384 256v192h64v-192h-64zM256 448v64h128v-64h-128zM0 640v64h64v-64h-64zM128 320v256h-64v64h64v256h64v-192h64v-64h-64v-192h64v-64h-64v-64h-64zM256 832v64h64v-64
h-64zM256 704v64h64v64h64v64h64v-128h-64v-64h-128zM320 896v64h64v-64h-64z" />
    <glyph glyph-name="uni3063" unicode="&#x3063;" 
d="M192 64v64h128v-64h-128zM320 128v64h64v-64h-64zM64 320v64h128v-64h-128zM384 192v192h64v-192h-64zM192 384v64h192v-64h-192z" />
    <glyph glyph-name="uni3064" unicode="&#x3064;" 
d="M128 64v64h128v-64h-128zM256 128v64h64v-64h-64zM320 192v128h64v-128h-64zM0 512v64h64v-64h-64zM64 576v64h64v-64h-64zM384 320v320h64v-320h-64zM128 640v64h64v-64h-64zM320 640v64h64v-64h-64zM192 704v64h128v-64h-128z" />
    <glyph glyph-name="uni3065" unicode="&#x3065;" 
d="M128 64v64h128v-64h-128zM256 128v64h64v-64h-64zM320 192v128h64v-128h-64zM0 512v64h64v-64h-64zM384 320v256h64v-256h-64zM64 576v64h64v-64h-64zM320 576v64h64v-64h-64zM128 640v64h192v-64h-192zM256 832v64h64v-64h-64zM320 704v128h64v64h64v-128h-64v-64h-64z
M320 896v64h64v-64h-64z" />
    <glyph glyph-name="uni3066" unicode="&#x3066;" 
d="M256 0v64h128v-64h-128zM192 64v64h64v-64h-64zM128 128v256h64v-256h-64zM192 384v128h64v-128h-64zM256 512v128h64v-128h-64zM64 640v64h128v-64h-128zM0 704v64h64v-64h-64zM320 640v64h-128v64h256v-64h-64v-64h-64z" />
    <glyph glyph-name="uni3067" unicode="&#x3067;" 
d="M256 0v64h128v-64h-128zM192 64v64h64v-64h-64zM128 128v256h64v-256h-64zM192 384v128h64v-128h-64zM320 384v128h64v-128h-64zM448 384v128h64v-128h-64zM384 512v64h64v-64h-64zM256 512v128h64v-128h-64zM64 640v64h128v-64h-128zM0 704v64h64v-64h-64zM320 640v64
h-128v64h256v-64h-64v-64h-64z" />
    <glyph glyph-name="uni3068" unicode="&#x3068;" 
d="M128 0v64h256v-64h-256zM64 64v64h64v-64h-64zM0 128v128h64v-128h-64zM64 256v128h64v-128h-64zM128 384v64h64v-64h-64zM192 448v64h64v-64h-64zM256 512v64h64v-64h-64zM320 576v64h64v-64h-64zM128 512v320h64v-320h-64z" />
    <glyph glyph-name="uni3069" unicode="&#x3069;" 
d="M128 0v64h256v-64h-256zM64 64v64h64v-64h-64zM0 128v128h64v-128h-64zM64 256v128h64v-128h-64zM128 384v64h64v-64h-64zM192 448v64h64v-64h-64zM256 512v64h64v-64h-64zM320 576v64h64v-64h-64zM128 512v320h64v-320h-64zM256 832v64h64v-64h-64zM320 704v128h64v64
h64v-128h-64v-64h-64zM320 896v64h64v-64h-64z" />
    <glyph glyph-name="uni306A" unicode="&#x306a;" 
d="M192 0v64h128v-64h-128zM128 64v128h64v-128h-64zM320 64v128h64v-64h64v-64h-128zM0 128v256h64v-256h-64zM192 192v64h64v256h64v-320h-128zM320 512v64h64v-64h-64zM384 576v64h64v-64h-64zM256 640v64h128v-64h-128zM192 768v64h64v-64h-64zM64 384v256h-64v64h64
v192h64v-128h64v-64h-64v-320h-64z" />
    <glyph glyph-name="uni306B" unicode="&#x306b;" 
d="M256 64v64h192v-64h-192zM192 128v128h64v-128h-64zM320 576v64h64v-64h-64zM192 640v64h64v-64h-64zM384 640v64h64v-64h-64zM0 0v768h64v-576h64v-64h-64v-128h-64zM256 704v64h128v-64h-128z" />
    <glyph glyph-name="uni306C" unicode="&#x306c;" 
d="M320 0v64h64v-64h-64zM448 0v64h64v-64h-64zM64 64v64h64v-64h-64zM384 64v64h64v-64h-64zM256 64v128h64v-128h-64zM128 128v256h64v192h64v-256h-64v-192h-64zM448 128v64h-128v64h128v448h64v-576h-64zM0 128v320h64v320h64v-128h64v-64h-64v-192h-64v-256h-64z
M256 576v64h-64v64h64v192h64v-128h128v-64h-128v-128h-64z" />
    <glyph glyph-name="uni306D" unicode="&#x306d;" 
d="M256 0v64h64v-64h-64zM384 0v64h64v-64h-64zM320 64v64h64v-64h-64zM192 64v128h64v-128h-64zM192 576v128h64v-128h-64zM384 128v64h-128v64h128v448h64v-576h-64zM256 704v64h128v-64h-128zM64 0v128h-64v128h64v256h-64v64h64v256h64v-256h64v-256h-64v-320h-64z" />
    <glyph glyph-name="uni306E" unicode="&#x306e;" 
d="M192 0v64h128v-64h-128zM64 64v64h64v-64h-64zM320 64v128h64v-128h-64zM128 128v128h64v-128h-64zM0 128v384h64v-384h-64zM64 512v128h64v-128h-64zM384 192v448h64v-448h-64zM320 640v64h64v-64h-64zM192 256v384h-64v64h64v64h128v-64h-64v-448h-64z" />
    <glyph glyph-name="uni306F" unicode="&#x306f;" 
d="M192 0v64h128v-64h-128zM128 64v128h64v-128h-64zM128 640v64h64v-64h-64zM0 0v832h64v-576h64v-64h-64v-192h-64zM320 64v128h-128v64h128v320h-128v64h128v256h64v-128h64v-64h-64v-576h64v-64h-128z" />
    <glyph glyph-name="uni3070" unicode="&#x3070;" 
d="M192 0v64h128v-64h-128zM128 64v128h64v-128h-64zM128 640v64h64v-64h-64zM0 0v832h64v-576h64v-64h-64v-192h-64zM320 64v128h-128v64h128v320h-128v64h128v256h64v-128h64v-64h-64v-576h64v-64h-128zM448 832v64h64v-64h-64zM256 896v64h64v-64h-64zM384 896v64h64v-64
h-64z" />
    <glyph glyph-name="uni3071" unicode="&#x3071;" 
d="M192 0v64h128v-64h-128zM128 64v128h64v-128h-64zM128 640v64h64v-64h-64zM0 0v832h64v-576h64v-64h-64v-192h-64zM320 64v128h-128v64h128v320h-128v64h128v192h64v-128h64v-64h-64v-512h64v-64h-128zM256 832v64h64v-64h-64zM384 832v64h64v-64h-64zM320 896v64h64v-64
h-64z" />
    <glyph glyph-name="uni3072" unicode="&#x3072;" 
d="M64 0v64h128v-64h-128zM192 64v128h64v-128h-64zM0 64v384h64v-384h-64zM384 448v64h64v-64h-64zM64 448v192h64v-192h-64zM0 640v64h64v-64h-64zM128 640v64h-64v64h64v64h64v-192h-64zM256 192v640h64v-192h64v-128h-64v-320h-64z" />
    <glyph glyph-name="uni3073" unicode="&#x3073;" 
d="M64 -64v64h128v-64h-128zM192 0v128h64v-128h-64zM0 0v384h64v-384h-64zM384 384v64h64v-64h-64zM64 384v192h64v-192h-64zM0 576v64h64v-64h-64zM256 128v512h64v-64h64v-128h-64v-320h-64zM128 576v64h-64v64h64v64h64v-192h-64zM256 768v64h64v-64h-64zM320 640v128
h64v64h64v-128h-64v-64h-64zM320 832v64h64v-64h-64z" />
    <glyph glyph-name="uni3074" unicode="&#x3074;" 
d="M64 -64v64h128v-64h-128zM192 0v128h64v-128h-64zM0 0v384h64v-384h-64zM384 384v64h64v-64h-64zM64 384v192h64v-192h-64zM0 576v64h64v-64h-64zM256 128v512h64v-64h64v-128h-64v-320h-64zM128 576v64h-64v64h64v64h64v-192h-64zM320 640v128h64v-128h-64zM256 768v64
h64v-64h-64zM384 768v64h64v-64h-64zM320 832v64h64v-64h-64z" />
    <glyph glyph-name="uni3075" unicode="&#x3075;" 
d="M128 0v64h128v-64h-128zM64 64v64h64v-64h-64zM256 64v192h64v-192h-64zM0 192v128h64v-128h-64zM384 128v192h64v-192h-64zM64 320v64h64v-64h-64zM192 256v128h64v-128h-64zM320 320v64h64v-64h-64zM128 384v192h64v-192h-64zM192 576v64h64v-64h-64zM256 704v64h64
v-64h-64zM128 768v64h128v-64h-128z" />
    <glyph glyph-name="uni3076" unicode="&#x3076;" 
d="M128 0v64h128v-64h-128zM64 64v64h64v-64h-64zM256 64v192h64v-192h-64zM0 192v128h64v-128h-64zM384 128v192h64v-192h-64zM64 320v64h64v-64h-64zM192 256v128h64v-128h-64zM320 320v64h64v-64h-64zM128 384v192h64v-192h-64zM192 576v64h64v-64h-64zM128 768v64h128
v-64h-128zM256 832v64h64v-64h-64zM256 704v64h64v64h64v64h64v-128h-64v-64h-128zM320 896v64h64v-64h-64z" />
    <glyph glyph-name="uni3077" unicode="&#x3077;" 
d="M128 0v64h128v-64h-128zM64 64v64h64v-64h-64zM256 64v192h64v-192h-64zM0 192v128h64v-128h-64zM384 128v192h64v-192h-64zM64 320v64h64v-64h-64zM192 256v128h64v-128h-64zM320 320v64h64v-64h-64zM128 384v192h64v-192h-64zM192 576v64h64v-64h-64zM256 704v64h64
v-64h-64zM128 768v64h128v-64h-128zM320 768v64h64v-64h-64zM256 832v64h64v-64h-64zM384 832v64h64v-64h-64zM320 896v64h64v-64h-64z" />
    <glyph glyph-name="uni3078" unicode="&#x3078;" 
d="M384 128v128h64v-128h-64zM320 256v128h64v-128h-64zM0 384v128h64v-128h-64zM256 384v128h64v-128h-64zM64 512v128h64v-128h-64zM192 512v128h64v-128h-64zM128 640v64h64v-64h-64z" />
    <glyph glyph-name="uni3079" unicode="&#x3079;" 
d="M384 128v128h64v-128h-64zM320 256v128h64v-128h-64zM0 384v128h64v-128h-64zM256 384v128h64v-128h-64zM64 512v128h64v-128h-64zM192 512v128h64v-128h-64zM128 640v64h64v-64h-64zM256 640v128h64v-128h-64zM192 768v64h64v-64h-64zM384 704v128h64v-128h-64zM320 832
v64h64v-64h-64z" />
    <glyph glyph-name="uni307A" unicode="&#x307a;" 
d="M384 128v128h64v-128h-64zM320 256v128h64v-128h-64zM0 320v128h64v-128h-64zM256 384v128h64v-128h-64zM64 448v128h64v-128h-64zM192 512v64h-64v128h64v-64h64v-128h-64zM320 704v64h64v-64h-64zM256 768v64h64v-64h-64zM384 768v64h64v-64h-64zM320 832v64h64v-64
h-64z" />
    <glyph glyph-name="uni307B" unicode="&#x307b;" 
d="M192 0v64h128v-64h-128zM128 64v128h64v-128h-64zM128 576v64h64v-64h-64zM0 0v832h64v-832h-64zM320 64v128h-128v64h128v256h-128v64h128v192h-192v64h320v-64h-64v-128h64v-64h-64v-384h64v-64h-64v-64h-64z" />
    <glyph glyph-name="uni307C" unicode="&#x307c;" 
d="M192 0v64h128v-64h-128zM128 64v128h64v-128h-64zM128 576v64h64v-64h-64zM0 0v832h64v-832h-64zM320 64v128h-128v64h128v256h-128v64h128v192h-192v64h128v64h64v-64h64v64h64v-128h-64v-128h64v-64h-64v-384h64v-64h-64v-64h-64zM192 896v64h64v-64h-64zM320 896v64
h64v-64h-64z" />
    <glyph glyph-name="uni307D" unicode="&#x307d;" 
d="M192 0v64h128v-64h-128zM128 64v128h64v-128h-64zM128 576v64h64v-64h-64zM0 0v832h64v-832h-64zM320 64v128h-128v64h128v256h-128v64h128v192h-192v64h192v64h64v-64h64v-64h-64v-128h64v-64h-64v-384h64v-64h-64v-64h-64zM448 832v64h64v-64h-64zM384 896v64h64v-64
h-64z" />
    <glyph glyph-name="uni307E" unicode="&#x307e;" 
d="M64 0v64h128v-64h-128zM384 64v64h64v-64h-64zM0 64v128h64v-128h-64zM0 448v64h64v-64h-64zM192 64v128h-128v64h128v128h-128v64h128v192h-192v64h192v192h64v-128h192v-64h-192v-192h128v-64h-128v-256h128v-64h-128v-64h-64z" />
    <glyph glyph-name="uni307F" unicode="&#x307f;" 
d="M192 0v64h64v-64h-64zM64 64v64h64v-64h-64zM256 64v128h64v-128h-64zM128 128v128h64v-128h-64zM0 128v256h64v-256h-64zM64 384v64h64v-64h-64zM320 192v256h-64v-192h-64v192h-64v64h64v192h64v-192h64v64h64v-128h64v-64h-64v-192h-64zM64 768v64h128v-64h-128z
M256 704v128h-64v64h128v-192h-64z" />
    <glyph glyph-name="uni3080" unicode="&#x3080;" 
d="M192 0v64h192v-64h-192zM384 64v256h64v-256h-64zM0 320v128h64v-128h-64zM384 448v128h64v-128h-64zM320 576v64h64v-64h-64zM256 704v64h128v-64h-128zM128 64v192h-64v64h64v128h-64v64h64v128h-64v64h64v192h64v-192h64v-64h-64v-576h-64z" />
    <glyph glyph-name="uni3081" unicode="&#x3081;" 
d="M256 0v64h64v-64h-64zM64 64v64h64v-64h-64zM320 64v64h64v-64h-64zM128 128v256h64v192h64v-256h-64v-192h-64zM384 128v448h64v-448h-64zM0 128v320h64v320h64v-128h64v-64h-64v-192h-64v-256h-64zM256 576v64h-64v64h64v192h64v-256h64v-64h-128z" />
    <glyph glyph-name="uni3082" unicode="&#x3082;" 
d="M192 0v64h128v-64h-128zM320 64v64h64v-64h-64zM384 128v192h64v-192h-64zM0 448v64h64v-64h-64zM320 576v64h64v-64h-64zM0 704v64h64v-64h-64zM128 64v320h-64v64h64v192h-64v64h64v192h64v-192h128v-64h-128v-192h128v-64h-128v-320h-64z" />
    <glyph glyph-name="uni3083" unicode="&#x3083;" 
d="M192 0v256h64v-256h-64zM320 192v64h64v-64h-64zM384 256v128h64v-128h-64zM128 256v64h-64v64h64v192h64v-192h64v-64h-64v-64h-64zM256 384v64h64v128h64v-192h-128z" />
    <glyph glyph-name="uni3084" unicode="&#x3084;" 
d="M128 0v320h64v-320h-64zM256 320v64h128v-64h-128zM384 384v192h64v-192h-64zM64 320v128h-64v64h64v128h64v-64h64v-64h-64v-192h-64zM320 576v64h64v-64h-64zM0 640v192h64v-192h-64zM192 576v256h64v-128h64v-64h-64v-64h-64z" />
    <glyph glyph-name="uni3085" unicode="&#x3085;" 
d="M192 0v64h64v-64h-64zM384 192v192h64v-192h-64zM64 128v384h64v-128h64v-128h-64v-128h-64zM256 64v64h-64v64h64v192h-64v64h64v64h64v-64h64v-64h-64v-192h64v-64h-64v-64h-64z" />
    <glyph glyph-name="uni3086" unicode="&#x3086;" 
d="M128 0v64h64v-64h-64zM128 256v64h64v-64h-64zM128 576v64h64v-64h-64zM384 256v384h64v-384h-64zM0 192v576h64v-192h64v-192h-64v-192h-64zM192 64v192h64v384h-64v64h64v128h64v-128h64v-64h-64v-384h64v-64h-128v-128h-64z" />
    <glyph glyph-name="uni3087" unicode="&#x3087;" 
d="M128 0v64h128v-64h-128zM384 0v64h64v-64h-64zM64 64v64h64v-64h-64zM256 64v64h-128v64h128v384h64v-128h128v-64h-128v-256h64v-64h-128z" />
    <glyph glyph-name="uni3088" unicode="&#x3088;" 
d="M320 0v128h64v-128h-64zM0 64v128h64v-128h-64zM64 0v64h128v128h-128v64h128v576h64v-192h128v-64h-128v-384h64v-64h-64v-128h-192zM128 832v64h64v-64h-64z" />
    <glyph glyph-name="uni3089" unicode="&#x3089;" 
d="M128 0v64h128v-64h-128zM256 64v64h64v-64h-64zM320 128v320h64v-320h-64zM192 448v64h128v-64h-128zM64 256v448h64v-256h64v-64h-64v-128h-64zM256 768v64h64v-64h-64zM128 832v64h128v-64h-128z" />
    <glyph glyph-name="uni308A" unicode="&#x308a;" 
d="M128 0v64h64v-64h-64zM192 64v64h64v-64h-64zM256 128v128h64v-128h-64zM192 640v128h64v-128h-64zM320 256v512h64v-512h-64zM64 320v512h64v-192h64v-128h-64v-192h-64zM256 768v64h64v-64h-64z" />
    <glyph glyph-name="uni308B" unicode="&#x308b;" 
d="M128 0v64h128v-64h-128zM64 64v64h64v-64h-64zM256 64v64h64v-64h-64zM128 128v64h128v-64h-128zM0 256v64h64v-64h-64zM64 320v128h64v-128h-64zM320 128v320h64v-320h-64zM128 448v128h64v-64h128v-64h-192zM192 576v128h64v-128h-64zM0 704v128h64v-64h128v-64h-192z
M256 704v64h-64v64h128v-128h-64z" />
    <glyph glyph-name="uni308C" unicode="&#x308c;" 
d="M0 256v64h64v-64h-64zM320 0v576h-64v64h64v64h64v-640h64v-64h-128zM128 0v320h-64v128h64v128h-128v64h128v256h64v-192h64v-64h-64v-64h64v-64h-64v-512h-64z" />
    <glyph glyph-name="uni308D" unicode="&#x308d;" 
d="M128 0v64h128v-64h-128zM256 64v64h64v-64h-64zM0 256v64h64v-64h-64zM64 320v128h64v-128h-64zM320 128v320h64v-320h-64zM128 448v128h64v-64h128v-64h-192zM192 576v128h64v-128h-64zM0 704v128h64v-64h128v-64h-192zM256 704v64h-64v64h128v-128h-64z" />
    <glyph glyph-name="uni308E" unicode="&#x308e;" 
d="M256 0v64h64v-64h-64zM0 128v64h64v-64h-64zM320 64v256h64v-256h-64zM256 320v64h64v-64h-64zM128 0v192h-64v64h64v64h-128v64h128v192h64v-128h64v-64h-64v-64h64v-64h-64v-256h-64z" />
    <glyph glyph-name="uni308F" unicode="&#x308f;" 
d="M256 0v64h64v-64h-64zM320 64v64h64v-64h-64zM0 256v64h64v-64h-64zM384 128v448h64v-448h-64zM256 576v64h128v-64h-128zM128 0v320h-64v128h64v128h-128v64h128v256h64v-192h64v-64h-64v-64h64v-64h-64v-512h-64z" />
    <glyph glyph-name="uni3092" unicode="&#x3092;" 
d="M192 0v64h256v-64h-256zM128 64v192h64v-192h-64zM192 256v64h64v-64h-64zM64 320v64h64v-64h-64zM320 256v64h-64v64h64v128h128v-64h-64v-192h-64zM128 384v192h64v-64h64v-64h-64v-64h-64zM256 512v64h64v-64h-64zM448 512v64h64v-64h-64zM64 704v64h64v-64h-64z
M320 768v64h64v-64h-64zM192 576v64h-64v64h64v192h64v-128h64v-64h-64v-128h-64z" />
    <glyph glyph-name="uni3093" unicode="&#x3093;" 
d="M384 0v64h64v-64h-64zM448 64v128h64v-128h-64zM64 0v256h64v-256h-64zM320 64v320h64v-320h-64zM256 384v64h64v-64h-64zM128 256v256h64v-128h64v-64h-64v-64h-64zM192 512v320h64v-320h-64z" />
    <glyph glyph-name="uni3094" unicode="&#x3094;" 
d="M128 0v64h64v-64h-64zM192 64v64h64v-64h-64zM256 128v128h64v-128h-64zM64 448v64h64v-64h-64zM128 512v64h64v-64h-64zM320 256v320h64v-320h-64zM192 576v64h128v-64h-128zM192 768v64h128v-64h-128zM128 832v64h64v-64h-64zM320 832v64h64v-64h-64zM384 704v128h64
v64h64v-128h-64v-64h-64zM384 896v64h64v-64h-64z" />
    <glyph glyph-name="uni3099" unicode="&#x3099;" 
d="M64 832v128h64v-128h-64zM192 832v128h64v-128h-64z" />
    <glyph glyph-name="uni309A" unicode="&#x309a;" 
d="M128 768v64h64v-64h-64zM64 832v64h64v-64h-64zM192 832v64h64v-64h-64zM128 896v64h64v-64h-64z" />
    <glyph glyph-name="uni309B" unicode="&#x309b;" 
d="M64 832v64h64v-64h-64zM128 704v128h64v64h64v-128h-64v-64h-64zM128 896v64h64v-64h-64z" />
    <glyph glyph-name="uni309C" unicode="&#x309c;" 
d="M128 768v64h64v-64h-64zM64 832v64h64v-64h-64zM192 832v64h64v-64h-64zM128 896v64h64v-64h-64z" />
    <glyph glyph-name="uni30A1" unicode="&#x30a1;" 
d="M64 0v128h64v-128h-64zM256 384v64h64v-64h-64zM128 128v384h64v-128h64v-64h-64v-192h-64zM320 448v128h-320v64h384v-192h-64z" />
    <glyph glyph-name="uni30A2" unicode="&#x30a2;" 
d="M64 0v64h64v-64h-64zM128 64v192h64v-192h-64zM320 512v64h64v-64h-64zM192 256v384h64v-128h64v-64h-64v-192h-64zM384 576v192h-384v64h448v-256h-64z" />
    <glyph glyph-name="uni30A3" unicode="&#x30a3;" 
d="M0 192v64h64v-64h-64zM64 256v64h64v-64h-64zM192 0v320h-64v64h64v64h64v-448h-64zM256 448v64h64v-64h-64zM320 512v128h64v-128h-64z" />
    <glyph glyph-name="uni30A4" unicode="&#x30a4;" 
d="M0 320v64h128v-64h-128zM128 384v64h64v-64h-64zM256 0v448h-64v64h64v128h64v-640h-64zM320 640v192h64v-192h-64z" />
    <glyph glyph-name="uni30A5" unicode="&#x30a5;" 
d="M128 0v64h64v-64h-64zM192 64v64h64v-64h-64zM256 128v128h64v-128h-64zM320 256v192h-256v-128h-64v192h192v128h64v-128h128v-256h-64z" />
    <glyph glyph-name="uni30A6" unicode="&#x30a6;" 
d="M128 0v64h64v-64h-64zM192 64v64h64v-64h-64zM256 128v128h64v-128h-64zM320 256v128h64v-128h-64zM384 384v256h-320v-192h-64v256h192v128h64v-128h192v-320h-64z" />
    <glyph glyph-name="uni30A7" unicode="&#x30a7;" 
d="M0 0v64h192v448h-192v64h384v-64h-128v-448h128v-64h-384z" />
    <glyph glyph-name="uni30A8" unicode="&#x30a8;" 
d="M0 0v64h192v640h-192v64h448v-64h-192v-640h192v-64h-448z" />
    <glyph glyph-name="uni30A9" unicode="&#x30a9;" 
d="M64 64v128h64v-128h-64zM128 192v192h64v-192h-64zM192 0v64h64v320h-64v128h-192v64h256v128h64v-128h64v-64h-64v-512h-128z" />
    <glyph glyph-name="uni30AA" unicode="&#x30aa;" 
d="M0 128v64h64v-64h-64zM64 192v64h64v-64h-64zM128 256v128h64v-128h-64zM128 0v64h128v320h-64v128h64v128h-256v64h256v128h64v-128h128v-64h-128v-640h-192z" />
    <glyph glyph-name="uni30AB" unicode="&#x30ab;" 
d="M0 0v64h64v-64h-64zM64 64v192h64v-192h-64zM256 0v64h128v576h-192v-384h-64v384h-128v64h128v128h64v-128h256v-704h-192z" />
    <glyph glyph-name="uni30AC" unicode="&#x30ac;" 
d="M0 0v64h64v-64h-64zM64 64v192h64v-192h-64zM256 0v64h128v576h-192v-384h-64v384h-128v64h128v128h64v-128h256v-704h-192zM256 832v128h64v-128h-64zM384 832v128h64v-128h-64z" />
    <glyph glyph-name="uni30AD" unicode="&#x30ad;" 
d="M256 0v320h-256v64h192v256h-192v64h128v128h64v-128h256v-64h-192v-256h192v-64h-128v-320h-64z" />
    <glyph glyph-name="uni30AE" unicode="&#x30ae;" 
d="M256 0v320h-256v64h192v256h-192v64h128v128h64v-128h256v-64h-192v-256h192v-64h-128v-320h-64zM256 832v128h64v-128h-64zM384 832v128h64v-128h-64z" />
    <glyph glyph-name="uni30AF" unicode="&#x30af;" 
d="M64 0v64h128v-64h-128zM192 64v64h64v-64h-64zM256 128v128h64v-128h-64zM320 256v128h64v-128h-64zM0 384v64h64v-64h-64zM64 448v128h64v-128h-64zM384 384v320h-192v-128h-64v256h64v-64h256v-384h-64z" />
    <glyph glyph-name="uni30B0" unicode="&#x30b0;" 
d="M64 0v64h128v-64h-128zM192 64v64h64v-64h-64zM256 128v128h64v-128h-64zM320 256v128h64v-128h-64zM0 384v64h64v-64h-64zM64 448v128h64v-128h-64zM384 384v320h-192v-128h-64v256h64v-64h256v-384h-64zM256 832v128h64v-128h-64zM384 832v128h64v-128h-64z" />
    <glyph glyph-name="uni30B1" unicode="&#x30b1;" 
d="M64 0v64h64v-64h-64zM128 64v64h64v-64h-64zM192 128v128h64v-128h-64zM0 384v128h64v-128h-64zM256 256v384h-128v-128h-64v320h64v-128h320v-64h-128v-384h-64z" />
    <glyph glyph-name="uni30B2" unicode="&#x30b2;" 
d="M64 0v64h64v-64h-64zM128 64v64h64v-64h-64zM192 128v128h64v-128h-64zM0 384v128h64v-128h-64zM256 256v384h-128v-128h-64v320h64v-128h320v-64h-128v-384h-64zM256 832v128h64v-128h-64zM384 832v128h64v-128h-64z" />
    <glyph glyph-name="uni30B3" unicode="&#x30b3;" 
d="M0 64v64h320v576h-320v64h384v-704h-384z" />
    <glyph glyph-name="uni30B4" unicode="&#x30b4;" 
d="M0 64v64h320v576h-320v64h384v-704h-384zM256 832v128h64v-128h-64zM384 832v128h64v-128h-64z" />
    <glyph glyph-name="uni30B5" unicode="&#x30b5;" 
d="M128 0v64h64v-64h-64zM192 64v64h64v-64h-64zM256 128v128h64v-128h-64zM320 256v320h-192v-256h-64v256h-64v64h64v192h64v-192h192v192h64v-192h64v-64h-64v-320h-64z" />
    <glyph glyph-name="uni30B6" unicode="&#x30b6;" 
d="M128 0v64h64v-64h-64zM192 64v64h64v-64h-64zM256 128v128h64v-128h-64zM320 256v320h-192v-256h-64v256h-64v64h64v192h64v-192h192v128h64v-128h64v-64h-64v-320h-64zM256 832v128h64v-128h-64zM384 832v128h64v-128h-64z" />
    <glyph glyph-name="uni30B7" unicode="&#x30b7;" 
d="M0 0v64h128v-64h-128zM128 64v64h64v-64h-64zM192 128v64h64v-64h-64zM256 192v128h64v-128h-64zM128 448v64h64v-64h-64zM320 320v192h64v-192h-64zM0 512v64h128v-64h-128zM128 704v64h64v-64h-64zM0 768v64h128v-64h-128zM384 512v320h64v-320h-64z" />
    <glyph glyph-name="uni30B8" unicode="&#x30b8;" 
d="M0 0v64h128v-64h-128zM128 64v64h64v-64h-64zM192 128v64h64v-64h-64zM256 192v128h64v-128h-64zM320 320v128h64v-128h-64zM128 448v64h64v-64h-64zM0 512v64h128v-64h-128zM128 704v64h64v-64h-64zM384 448v320h64v-320h-64zM0 768v64h128v-64h-128zM256 832v128h64
v-128h-64zM384 832v128h64v-128h-64z" />
    <glyph glyph-name="uni30B9" unicode="&#x30b9;" 
d="M0 0v64h64v-64h-64zM64 64v64h64v-64h-64zM384 0v192h64v-192h-64zM128 128v128h64v-128h-64zM320 192v128h64v-128h-64zM192 256v128h64v128h64v-192h-64v-64h-64zM320 512v128h64v-128h-64zM384 640v128h-384v64h448v-192h-64z" />
    <glyph glyph-name="uni30BA" unicode="&#x30ba;" 
d="M0 0v64h64v-64h-64zM64 64v64h64v-64h-64zM384 0v128h64v-128h-64zM128 128v128h64v-128h-64zM320 128v128h64v-128h-64zM192 256v128h64v-64h64v-64h-128zM256 384v192h64v-192h-64zM320 576v192h-320v64h256v128h64v-128h64v-256h-64zM384 832v128h64v-128h-64z" />
    <glyph glyph-name="uni30BB" unicode="&#x30bb;" 
d="M320 320v128h64v-128h-64zM384 448v192h-128v64h192v-256h-64zM128 0v576h-128v64h128v192h64v-192h64v-64h-64v-512h256v-64h-320z" />
    <glyph glyph-name="uni30BC" unicode="&#x30bc;" 
d="M320 320v128h64v-128h-64zM384 448v192h-128v64h192v-256h-64zM128 0v576h-128v64h128v192h64v-192h64v-64h-64v-512h256v-64h-320zM256 832v128h64v-128h-64zM384 832v128h64v-128h-64z" />
    <glyph glyph-name="uni30BD" unicode="&#x30bd;" 
d="M128 0v64h64v-64h-64zM192 64v64h64v-64h-64zM256 128v128h64v-128h-64zM320 256v128h64v-128h-64zM64 512v192h64v-192h-64zM0 704v128h64v-128h-64zM384 384v448h64v-448h-64z" />
    <glyph glyph-name="uni30BE" unicode="&#x30be;" 
d="M128 0v64h64v-64h-64zM192 64v64h64v-64h-64zM256 128v128h64v-128h-64zM320 256v128h64v-128h-64zM64 448v192h64v-192h-64zM0 640v128h64v-128h-64zM384 384v384h64v-384h-64zM256 832v128h64v-128h-64zM384 832v128h64v-128h-64z" />
    <glyph glyph-name="uni30BF" unicode="&#x30bf;" 
d="M64 0v64h128v-64h-128zM192 64v64h64v-64h-64zM256 128v128h64v-128h-64zM320 256v128h64v-128h-64zM0 384v64h64v-64h-64zM256 384v64h64v-64h-64zM192 448v64h64v-64h-64zM64 448v128h64v-128h-64zM384 384v320h-192v-128h-64v256h64v-64h256v-384h-64z" />
    <glyph glyph-name="uni30C0" unicode="&#x30c0;" 
d="M64 0v64h128v-64h-128zM192 64v64h64v-64h-64zM256 128v128h64v-128h-64zM320 256v128h64v-128h-64zM0 384v64h64v-64h-64zM256 384v64h64v-64h-64zM192 448v64h64v-64h-64zM64 448v128h64v-128h-64zM384 384v320h-192v-128h-64v256h64v-64h256v-384h-64zM256 832v128h64
v-128h-64zM384 832v128h64v-128h-64z" />
    <glyph glyph-name="uni30C1" unicode="&#x30c1;" 
d="M64 0v64h64v-64h-64zM128 64v128h64v-128h-64zM192 192v256h-192v64h192v192h-128v64h192v-256h192v-64h-192v-256h-64zM256 768v64h128v-64h-128z" />
    <glyph glyph-name="uni30C2" unicode="&#x30c2;" 
d="M64 0v64h64v-64h-64zM128 64v128h64v-128h-64zM192 192v256h-192v64h192v192h-128v64h192v-256h192v-64h-192v-256h-64zM256 768v64h64v128h64v-192h-128zM448 832v128h64v-128h-64z" />
    <glyph glyph-name="uni30C3" unicode="&#x30c3;" 
d="M128 0v64h64v-64h-64zM192 64v64h64v-64h-64zM256 128v128h64v-128h-64zM0 320v256h64v-256h-64zM128 320v256h64v-256h-64zM320 256v320h64v-320h-64z" />
    <glyph glyph-name="uni30C4" unicode="&#x30c4;" 
d="M128 0v64h64v-64h-64zM192 64v64h64v-64h-64zM256 128v128h64v-128h-64zM320 256v128h64v-128h-64zM64 448v192h64v-192h-64zM192 512v192h64v-192h-64zM0 640v128h64v-128h-64zM128 704v128h64v-128h-64zM384 384v448h64v-448h-64z" />
    <glyph glyph-name="uni30C5" unicode="&#x30c5;" 
d="M128 0v64h64v-64h-64zM192 64v64h64v-64h-64zM256 128v128h64v-128h-64zM320 256v128h64v-128h-64zM64 384v192h64v-192h-64zM192 448v192h64v-192h-64zM0 576v128h64v-128h-64zM128 640v128h64v-128h-64zM384 384v384h64v-384h-64zM256 832v128h64v-128h-64zM384 832
v128h64v-128h-64z" />
    <glyph glyph-name="uni30C6" unicode="&#x30c6;" 
d="M64 0v64h64v-64h-64zM128 64v128h64v-128h-64zM192 192v320h-192v64h448v-64h-192v-320h-64zM64 768v64h320v-64h-320z" />
    <glyph glyph-name="uni30C7" unicode="&#x30c7;" 
d="M64 0v64h64v-64h-64zM128 64v128h64v-128h-64zM192 192v320h-192v64h448v-64h-192v-320h-64zM64 768v64h192v128h64v-192h-256zM384 832v128h64v-128h-64z" />
    <glyph glyph-name="uni30C8" unicode="&#x30c8;" 
d="M384 384v64h64v-64h-64zM256 448v64h128v-64h-128zM64 0v832h64v-256h128v-64h-128v-512h-64z" />
    <glyph glyph-name="uni30C9" unicode="&#x30c9;" 
d="M384 320v64h64v-64h-64zM320 384v64h64v-64h-64zM192 448v64h128v-64h-128zM64 0v832h64v-256h64v-64h-64v-512h-64zM256 832v128h64v-128h-64zM384 832v128h64v-128h-64z" />
    <glyph glyph-name="uni30CA" unicode="&#x30ca;" 
d="M64 0v64h64v-64h-64zM128 64v192h64v-192h-64zM192 256v320h-192v64h192v192h64v-192h192v-64h-192v-320h-64z" />
    <glyph glyph-name="uni30CB" unicode="&#x30cb;" 
d="M0 128v64h448v-64h-448zM64 704v64h320v-64h-320z" />
    <glyph glyph-name="uni30CC" unicode="&#x30cc;" 
d="M64 0v64h64v-64h-64zM128 64v64h64v-64h-64zM192 128v128h64v-128h-64zM384 192v64h64v-64h-64zM256 256v192h64v-128h64v-64h-128zM192 448v64h64v-64h-64zM64 512v64h128v-64h-128zM320 448v256h-320v64h384v-320h-64z" />
    <glyph glyph-name="uni30CD" unicode="&#x30cd;" 
d="M0 256v64h64v-64h-64zM384 256v64h64v-64h-64zM64 320v64h64v-64h-64zM320 320v64h64v-64h-64zM192 0v384h-64v64h64v64h64v-64h64v-64h-64v-384h-64zM256 512v64h64v-64h-64zM320 576v64h64v-64h-64zM384 640v64h-384v64h192v128h64v-128h192v-128h-64z" />
    <glyph glyph-name="uni30CE" unicode="&#x30ce;" 
d="M0 0v64h64v-64h-64zM64 64v64h64v-64h-64zM128 128v64h64v-64h-64zM192 192v128h64v-128h-64zM256 320v192h64v-192h-64zM320 512v320h64v-320h-64z" />
    <glyph glyph-name="uni30CF" unicode="&#x30cf;" 
d="M0 0v128h64v-128h-64zM64 128v192h64v-192h-64zM384 0v448h64v-448h-64zM320 448v256h64v-256h-64zM128 320v512h64v-512h-64zM256 704v128h64v-128h-64z" />
    <glyph glyph-name="uni30D0" unicode="&#x30d0;" 
d="M0 64v64h64v-64h-64zM64 128v192h64v-192h-64zM384 64v448h64v-448h-64zM320 512v256h64v-256h-64zM128 320v512h64v-512h-64zM320 832v128h64v-128h-64zM448 832v128h64v-128h-64z" />
    <glyph glyph-name="uni30D1" unicode="&#x30d1;" 
d="M0 0v128h64v-128h-64zM64 128v192h64v-192h-64zM384 0v512h64v-512h-64zM128 320v512h64v-512h-64zM320 512v384h64v-64h64v-64h-64v-256h-64zM448 832v64h64v-64h-64zM384 896v64h64v-64h-64z" />
    <glyph glyph-name="uni30D2" unicode="&#x30d2;" 
d="M64 0v64h384v-64h-384zM192 640v64h64v-64h-64zM256 704v64h64v-64h-64zM0 64v768h64v-192h128v-64h-128v-512h-64zM320 768v64h64v-64h-64z" />
    <glyph glyph-name="uni30D3" unicode="&#x30d3;" 
d="M64 0v64h384v-64h-384zM192 576v64h64v-64h-64zM256 640v64h64v-64h-64zM320 704v64h64v-64h-64zM0 64v832h64v-320h128v-64h-128v-448h-64zM256 832v128h64v-128h-64zM384 832v128h64v-128h-64z" />
    <glyph glyph-name="uni30D4" unicode="&#x30d4;" 
d="M64 0v64h320v-64h-320zM192 576v64h64v-64h-64zM256 640v64h64v-64h-64zM320 768v64h64v-64h-64zM0 64v832h64v-320h128v-64h-128v-448h-64zM256 832v64h64v-64h-64zM384 832v64h64v-64h-64zM320 896v64h64v-64h-64z" />
    <glyph glyph-name="uni30D5" unicode="&#x30d5;" 
d="M64 0v64h64v-64h-64zM128 64v64h64v-64h-64zM192 128v128h64v-128h-64zM256 256v128h64v-128h-64zM320 384v192h64v-192h-64zM384 576v192h-384v64h448v-256h-64z" />
    <glyph glyph-name="uni30D6" unicode="&#x30d6;" 
d="M64 0v64h64v-64h-64zM128 64v64h64v-64h-64zM192 128v64h64v-64h-64zM256 192v128h64v-128h-64zM320 320v192h64v-192h-64zM384 512v192h-384v64h448v-256h-64zM256 832v128h64v-128h-64zM384 832v128h64v-128h-64z" />
    <glyph glyph-name="uni30D7" unicode="&#x30d7;" 
d="M64 0v64h64v-64h-64zM128 64v64h64v-64h-64zM192 128v64h64v-64h-64zM256 192v128h64v-128h-64zM320 320v192h64v-192h-64zM384 512v192h-384v64h320v64h64v-64h64v-256h-64zM256 832v64h64v-64h-64zM384 832v64h64v-64h-64zM320 896v64h64v-64h-64z" />
    <glyph glyph-name="uni30D8" unicode="&#x30d8;" 
d="M384 128v128h64v-128h-64zM320 256v128h64v-128h-64zM0 320v128h64v-128h-64zM256 384v128h64v-128h-64zM64 448v128h64v-128h-64zM192 512v64h-64v128h64v-64h64v-128h-64z" />
    <glyph glyph-name="uni30D9" unicode="&#x30d9;" 
d="M384 128v128h64v-128h-64zM320 256v128h64v-128h-64zM0 320v128h64v-128h-64zM256 384v128h64v-128h-64zM64 448v128h64v-128h-64zM192 512v64h-64v128h64v-64h64v-128h-64zM256 768v128h64v-128h-64zM384 768v128h64v-128h-64z" />
    <glyph glyph-name="uni30DA" unicode="&#x30da;" 
d="M384 128v128h64v-128h-64zM320 256v128h64v-128h-64zM0 320v128h64v-128h-64zM256 384v128h64v-128h-64zM64 448v128h64v-128h-64zM192 512v64h-64v128h64v-64h64v-128h-64zM320 704v64h64v-64h-64zM256 768v64h64v-64h-64zM384 768v64h64v-64h-64zM320 832v64h64v-64
h-64z" />
    <glyph glyph-name="uni30DB" unicode="&#x30db;" 
d="M0 128v192h64v-192h-64zM384 128v192h64v-192h-64zM64 320v256h64v-256h-64zM320 320v256h64v-256h-64zM192 0v704h-192v64h192v128h64v-128h192v-64h-192v-704h-64z" />
    <glyph glyph-name="uni30DC" unicode="&#x30dc;" 
d="M0 128v192h64v-192h-64zM384 128v192h64v-192h-64zM64 320v256h64v-256h-64zM320 320v256h64v-256h-64zM192 0v704h-192v64h192v128h64v64h64v-128h-64v-64h192v-64h-192v-704h-64zM384 832v128h64v-128h-64z" />
    <glyph glyph-name="uni30DD" unicode="&#x30dd;" 
d="M0 64v128h64v-128h-64zM384 64v128h64v-128h-64zM64 192v320h64v-320h-64zM320 192v320h64v-320h-64zM384 768v64h64v-64h-64zM192 0v640h-192v64h192v192h64v-192h192v-64h-192v-640h-64zM320 832v64h64v-64h-64zM448 832v64h64v-64h-64zM384 896v64h64v-64h-64z" />
    <glyph glyph-name="uni30DE" unicode="&#x30de;" 
d="M256 0v128h64v-128h-64zM192 128v192h-64v128h64v-64h64v64h64v-128h-64v-192h-64zM64 448v64h64v-64h-64zM320 448v128h64v-128h-64zM384 576v192h-384v64h448v-256h-64z" />
    <glyph glyph-name="uni30DF" unicode="&#x30df;" 
d="M384 0v64h64v-64h-64zM320 64v64h64v-64h-64zM192 128v64h128v-64h-128zM64 192v64h128v-64h-128zM320 384v64h64v-64h-64zM192 448v64h128v-64h-128zM64 512v64h128v-64h-128zM320 640v64h64v-64h-64zM192 704v64h128v-64h-128zM64 768v64h128v-64h-128z" />
    <glyph glyph-name="uni30E0" unicode="&#x30e0;" 
d="M192 128v64h64v-64h-64zM256 192v64h64v-64h-64zM0 0v64h64v256h64v-192h64v-64h-64v-64h-128zM384 0v256h-64v320h64v-256h64v-320h-64zM128 320v512h64v-512h-64z" />
    <glyph glyph-name="uni30E1" unicode="&#x30e1;" 
d="M0 64v64h64v-64h-64zM64 128v128h64v-128h-64zM320 192v128h64v-128h-64zM128 256v128h64v-128h-64zM256 320v64h-64v192h64v-128h64v-128h-64zM128 576v64h64v-64h-64zM64 640v64h64v-64h-64zM0 704v64h64v-64h-64zM256 576v256h64v-256h-64z" />
    <glyph glyph-name="uni30E2" unicode="&#x30e2;" 
d="M192 0v64h256v-64h-256zM128 64v384h-128v64h128v256h-128v64h448v-64h-256v-256h256v-64h-256v-384h-64z" />
    <glyph glyph-name="uni30E3" unicode="&#x30e3;" 
d="M192 0v256h64v-256h-64zM128 256v128h-128v64h128v64h128v-64h-64v-192h-64zM320 320v192h-64v64h128v-256h-64zM64 512v192h64v-192h-64z" />
    <glyph glyph-name="uni30E4" unicode="&#x30e4;" 
d="M256 0v192h64v-192h-64zM192 192v192h64v-192h-64zM320 256v128h64v-128h-64zM128 384v192h-128v64h128v64h64v-64h64v-64h-64v-192h-64zM384 384v256h-128v64h192v-320h-64zM64 704v128h64v-128h-64z" />
    <glyph glyph-name="uni30E5" unicode="&#x30e5;" 
d="M0 64v64h256v384h-192v64h256v-448h128v-64h-448z" />
    <glyph glyph-name="uni30E6" unicode="&#x30e6;" 
d="M0 0v64h256v640h-192v64h256v-704h128v-64h-448z" />
    <glyph glyph-name="uni30E7" unicode="&#x30e7;" 
d="M0 64v64h320v192h-320v64h320v128h-320v64h384v-512h-384z" />
    <glyph glyph-name="uni30E8" unicode="&#x30e8;" 
d="M0 64v64h320v320h-320v64h320v192h-320v64h384v-704h-384z" />
    <glyph glyph-name="uni30E9" unicode="&#x30e9;" 
d="M128 0v64h64v-64h-64zM192 64v64h64v-64h-64zM256 128v64h64v-64h-64zM320 192v128h64v-128h-64zM384 320v192h-384v64h448v-256h-64zM0 768v64h448v-64h-448z" />
    <glyph glyph-name="uni30EA" unicode="&#x30ea;" 
d="M128 0v64h64v-64h-64zM192 64v64h64v-64h-64zM256 128v128h64v-128h-64zM64 384v448h64v-448h-64zM320 256v576h64v-576h-64z" />
    <glyph glyph-name="uni30EB" unicode="&#x30eb;" 
d="M0 0v192h64v-192h-64zM320 128v128h64v-128h-64zM384 256v256h64v-256h-64zM64 192v640h64v-640h-64zM192 0v832h64v-704h64v-128h-128z" />
    <glyph glyph-name="uni30EC" unicode="&#x30ec;" 
d="M192 128v64h64v-64h-64zM256 192v64h64v-64h-64zM320 256v128h64v-128h-64zM384 384v192h64v-192h-64zM64 0v832h64v-704h64v-64h-64v-64h-64z" />
    <glyph glyph-name="uni30ED" unicode="&#x30ed;" 
d="M320 64v640h-256v-640h256zM0 0v768h384v-768h-384z" />
    <glyph glyph-name="uni30EE" unicode="&#x30ee;" 
d="M128 0v64h64v-64h-64zM192 64v64h64v-64h-64zM256 128v192h64v-192h-64zM320 320v256h-256v-192h-64v256h384v-320h-64z" />
    <glyph glyph-name="uni30EF" unicode="&#x30ef;" 
d="M128 0v64h64v-64h-64zM192 64v64h64v-64h-64zM256 128v128h64v-128h-64zM320 256v192h64v-192h-64zM384 448v320h-320v-256h-64v320h448v-384h-64z" />
    <glyph glyph-name="uni30F2" unicode="&#x30f2;" 
d="M128 0v64h64v-64h-64zM192 64v64h64v-64h-64zM256 128v128h64v-128h-64zM320 256v192h64v-192h-64zM384 448v128h-384v64h384v128h-384v64h448v-384h-64z" />
    <glyph glyph-name="uni30F3" unicode="&#x30f3;" 
d="M64 0v64h128v-64h-128zM192 64v64h64v-64h-64zM256 128v128h64v-128h-64zM320 256v128h64v-128h-64zM192 640v64h64v-64h-64zM384 384v320h64v-320h-64zM128 704v64h64v-64h-64zM64 768v64h64v-64h-64z" />
    <glyph glyph-name="uni30F4" unicode="&#x30f4;" 
d="M128 0v64h64v-64h-64zM192 64v64h64v-64h-64zM256 128v128h64v-128h-64zM320 256v128h64v-128h-64zM384 384v256h-320v-192h-64v256h192v128h64v-128h192v-320h-64zM256 832v128h64v-128h-64zM384 832v128h64v-128h-64z" />
    <glyph glyph-name="uni30F7" unicode="&#x30f7;" 
d="M128 0v64h64v-64h-64zM192 64v64h64v-64h-64zM256 128v128h64v-128h-64zM320 256v192h64v-192h-64zM384 448v256h-320v-192h-64v256h448v-320h-64zM256 832v128h64v-128h-64zM384 832v128h64v-128h-64z" />
    <glyph glyph-name="uni30FA" unicode="&#x30fa;" 
d="M128 0v64h64v-64h-64zM192 64v64h64v-64h-64zM256 128v128h64v-128h-64zM320 256v128h64v-128h-64zM384 384v128h-384v64h384v128h-384v64h448v-384h-64zM256 832v128h64v-128h-64zM384 832v128h64v-128h-64z" />
    <glyph glyph-name="uni30FB" unicode="&#x30fb;" 
d="M192 448v64h128v-64h-128z" />
    <glyph glyph-name="uni30FC" unicode="&#x30fc;" 
d="M0 448v64h448v-64h-448z" />
    <glyph glyph-name="uniFF01" unicode="&#xff01;" 
d="M192 0v128h128v-128h-128zM192 192v640h128v-640h-128z" />
    <glyph glyph-name="uniFF02" unicode="&#xff02;" 
d="M128 640v64h64v-64h-64zM320 640v64h64v-64h-64zM192 704v64h-64v128h128v-192h-64zM384 704v64h-64v128h128v-192h-64z" />
    <glyph glyph-name="uniFF07" unicode="&#xff07;" 
d="M192 576v64h64v-64h-64zM256 640v128h-64v128h192v-192h-64v-64h-64z" />
    <glyph glyph-name="uniFF08" unicode="&#xff08;" 
d="M384 0v64h-64v128h-64v512h64v128h64v64h64v-128h-64v-640h64v-128h-64z" />
    <glyph glyph-name="uniFF09" unicode="&#xff09;" 
d="M64 0v128h64v640h-64v128h64v-64h64v-128h64v-512h-64v-128h-64v-64h-64z" />
    <glyph glyph-name="uniFF0A" unicode="&#xff0a;" 
d="M64 256v64h64v-64h-64zM320 256v64h64v-64h-64zM64 512v64h64v-64h-64zM320 512v64h64v-64h-64zM192 192v128h-64v64h64v64h-64v64h64v128h64v-128h64v-64h-64v-64h64v-64h-64v-128h-64z" />
    <glyph glyph-name="uniFF0B" unicode="&#xff0b;" 
d="M192 192v192h-192v64h192v192h64v-192h192v-64h-192v-192h-64z" />
    <glyph glyph-name="uniFF0C" unicode="&#xff0c;" 
d="M64 0v64h64v-64h-64zM128 64v64h-64v128h128v-192h-64z" />
    <glyph glyph-name="uniFF0D" unicode="&#xff0d;" 
d="M0 384v64h448v-64h-448z" />
    <glyph glyph-name="uniFF0E" unicode="&#xff0e;" 
d="M64 0v128h128v-128h-128z" />
    <glyph glyph-name="uniFF10" unicode="&#xff10;" 
d="M320 128v64h64v512h-64v64h-64v-64h-64v-512h64v-64h64zM192 0v64h-64v64h-64v640h64v64h64v64h192v-64h64v-64h64v-640h-64v-64h-64v-64h-192z" />
    <glyph glyph-name="uniFF11" unicode="&#xff11;" 
d="M192 0v64h64v640h-128v64h64v64h128v64h64v-832h64v-64h-256z" />
    <glyph glyph-name="uniFF12" unicode="&#xff12;" 
d="M64 0v128h64v128h64v64h64v128h64v128h64v192h-64v64h-128v-64h-64v-128h128v-128h-192v320h64v64h256v-64h128v-384h-64v-64h-64v-64h-64v-64h-64v-128h192v64h64v-192h-448z" />
    <glyph glyph-name="uniFF13" unicode="&#xff13;" 
d="M64 0v64h64v64h128v128h64v192h-64v64h-64v-64h-128v64h64v64h64v64h64v64h64v64h-192v-64h-64v192h448v-128h-64v-64h-64v-64h-64v-64h64v-64h64v-64h64v-256h-64v-64h-64v-64h-128v-64h-192z" />
    <glyph glyph-name="uniFF14" unicode="&#xff14;" 
d="M320 256v320h-64v-128h-64v-128h-64v-64h192zM256 0v64h64v64h-256v256h64v128h64v128h64v128h64v128h128v-640h64v-128h-64v-64h64v-64h-256z" />
    <glyph glyph-name="uniFF15" unicode="&#xff15;" 
d="M64 0v64h64v64h128v64h64v256h-64v64h-64v-64h-128v448h384v-192h-64v64h-256v-192h256v-64h64v-64h64v-256h-64v-64h-64v-64h-128v-64h-192z" />
    <glyph glyph-name="uniFF16" unicode="&#xff16;" 
d="M320 128v64h64v320h-64v64h-64v-64h-64v-320h64v-64h64zM192 0v64h-64v64h-64v576h64v128h64v64h256v-64h-128v-64h-64v-128h192v-64h64v-448h-64v-64h-64v-64h-192z" />
    <glyph glyph-name="uniFF17" unicode="&#xff17;" 
d="M192 0v384h64v128h64v128h64v128h-256v-128h-64v256h448v-192h-64v-192h-64v-512h-192z" />
    <glyph glyph-name="uniFF18" unicode="&#xff18;" 
d="M320 128v64h64v128h-64v64h-128v-64h-64v-128h64v-64h128zM320 576v64h64v128h-64v64h-64v-64h-64v-128h64v-64h64zM192 0v64h-64v64h-64v320h64v128h-64v256h64v64h320v-64h64v-192h-64v-64h-64v-64h64v-64h64v-320h-64v-64h-64v-64h-192z" />
    <glyph glyph-name="uniFF19" unicode="&#xff19;" 
d="M320 320v64h64v320h-64v64h-64v-64h-64v-320h64v-64h64zM128 0v64h128v64h64v128h-192v64h-64v448h64v64h64v64h192v-64h64v-64h64v-576h-64v-128h-64v-64h-256z" />
    <glyph glyph-name="uniFF1A" unicode="&#xff1a;" 
d="M192 128v128h128v-128h-128zM192 640v128h128v-128h-128z" />
    <glyph glyph-name="uniFF1B" unicode="&#xff1b;" 
d="M64 0v64h64v-64h-64zM128 64v64h-64v128h128v-192h-64zM64 640v128h128v-128h-128z" />
    <glyph glyph-name="uniFF1C" unicode="&#xff1c;" 
d="M384 64v64h64v-64h-64zM320 128v64h64v-64h-64zM256 192v64h64v-64h-64zM192 256v64h64v-64h-64zM128 320v64h64v-64h-64zM64 384v128h64v-128h-64zM128 512v64h64v-64h-64zM192 576v64h64v-64h-64zM256 640v64h64v-64h-64zM320 704v64h64v-64h-64zM384 768v64h64v-64
h-64z" />
    <glyph glyph-name="uniFF1D" unicode="&#xff1d;" 
d="M64 256v64h384v-64h-384zM64 512v64h384v-64h-384z" />
    <glyph glyph-name="uniFF1E" unicode="&#xff1e;" 
d="M64 64v64h64v-64h-64zM128 128v64h64v-64h-64zM192 192v64h64v-64h-64zM256 256v64h64v-64h-64zM320 320v64h64v-64h-64zM384 384v128h64v-128h-64zM320 512v64h64v-64h-64zM256 576v64h64v-64h-64zM192 640v64h64v-64h-64zM128 704v64h64v-64h-64zM64 768v64h64v-64h-64
z" />
    <glyph glyph-name="uniFF1F" unicode="&#xff1f;" 
d="M192 0v128h128v-128h-128zM192 256v192h64v128h64v256h-128v-192h-128v192h64v64h256v-64h64v-256h-64v-64h-64v-256h-128z" />
    <glyph glyph-name="uniFF20" unicode="&#xff20;" 
d="M128 384v128h128v-128h-128z" />
    <glyph glyph-name="uniFF5E" unicode="&#xff5e;" 
d="M0 256v128h64v-128h-64zM256 256v64h-64v64h-128v64h192v-64h64v-64h128v-64h-192zM448 320v128h64v-128h-64z" />
    <glyph glyph-name="uniFF66" unicode="&#xff66;" 
d="M320 64v64h64v576h-64v64h-64v-64h-64v-576h64v-64h64zM192 0v64h-64v64h-64v576h64v64h64v64h192v-64h64v-64h64v-576h-64v-64h-64v-64h-192z" />
    <glyph glyph-name="uniFF67" unicode="&#xff67;" 
d="M128 0v64h64v576h-128v64h128v128h128v-768h64v-64h-256z" />
    <glyph glyph-name="uniFF68" unicode="&#xff68;" 
d="M64 0v192h64v128h64v64h64v64h64v64h64v192h-64v64h-64v-64h-64v-192h-128v192h64v64h64v64h192v-64h64v-64h64v-192h-64v-128h-64v-64h-64v-64h-64v-64h-64v-128h320v-64h-448z" />
    <glyph glyph-name="uniFF69" unicode="&#xff69;" 
d="M192 0v64h-64v64h-64v128h128v-128h64v-64h64v64h64v192h-64v64h-128v64h128v64h64v192h-64v64h-64v-64h-64v-128h-128v128h64v64h64v64h192v-64h64v-64h64v-192h-64v-64h-64v-64h64v-64h64v-192h-64v-64h-64v-64h-192z" />
    <glyph glyph-name="uniFF6A" unicode="&#xff6a;" 
d="M320 256v256h-64v-128h-64v-128h128zM320 0v192h-256v128h64v128h64v128h64v128h64v128h128v-576h64v-64h-64v-192h-128z" />
    <glyph glyph-name="uniFF6B" unicode="&#xff6b;" 
d="M192 0v64h-64v64h-64v128h128v-128h64v-64h64v64h64v320h-64v64h-64v-64h-64v-64h-128v448h448v-64h-320v-192h192v-64h64v-64h64v-320h-64v-64h-64v-64h-192z" />
    <glyph glyph-name="uniFF6C" unicode="&#xff6c;" 
d="M320 64v64h64v256h-64v64h-64v-64h-64v-256h64v-64h64zM192 0v64h-64v64h-64v576h64v64h64v64h192v-64h64v-64h64v-128h-128v128h-64v64h-64v-64h-64v-192h256v-64h64v-320h-64v-64h-64v-64h-192z" />
    <glyph glyph-name="uniFF6D" unicode="&#xff6d;" 
d="M192 0v320h64v192h64v128h64v128h-192v-192h-128v256h448v-192h-64v-128h-64v-192h-64v-320h-128z" />
    <glyph glyph-name="uniFF6E" unicode="&#xff6e;" 
d="M320 64v64h64v256h-64v64h-64v-64h-64v-256h64v-64h64zM320 512v64h64v128h-64v64h-64v-64h-64v-128h64v-64h64zM192 0v64h-64v64h-64v256h64v64h64v64h-64v64h-64v128h64v64h64v64h192v-64h64v-64h64v-128h-64v-64h-64v-64h64v-64h64v-256h-64v-64h-64v-64h-192z" />
    <glyph glyph-name="uniFF6F" unicode="&#xff6f;" 
d="M320 384v64h64v256h-64v64h-64v-64h-64v-256h64v-64h64zM192 0v64h-64v64h-64v128h128v-128h64v-64h64v64h64v192h-256v64h-64v320h64v64h64v64h192v-64h64v-64h64v-576h-64v-64h-64v-64h-192z" />
    <glyph glyph-name="uniFF71" unicode="&#xff71;" 
d="M320 64v320h-128v-320h128zM128 0v64h-64v320h64v64h256v-64h64v-320h-64v-64h-256z" />
    <glyph glyph-name="uniFF72" unicode="&#xff72;" 
d="M128 0v64h64v256h-64v64h64v64h128v-384h64v-64h-256z" />
    <glyph glyph-name="uniFF73" unicode="&#xff73;" 
d="M64 0v64h64v64h64v64h64v64h64v128h-128v-128h-128v128h64v64h256v-64h64v-128h-64v-64h-64v-64h-64v-64h192v-64h-384z" />
    <glyph glyph-name="uniFF74" unicode="&#xff74;" 
d="M128 0v64h-64v64h128v-64h128v128h-64v64h64v128h-128v-64h-128v64h64v64h256v-64h64v-128h-64v-64h64v-128h-64v-64h-256z" />
    <glyph glyph-name="uniFF75" unicode="&#xff75;" 
d="M256 128v128h-64v-128h64zM256 0v64h-192v192h64v64h64v64h64v64h128v-320h64v-64h-64v-64h-128z" />
    <glyph glyph-name="uniFF76" unicode="&#xff76;" 
d="M128 0v64h-64v64h128v-64h128v192h-128v-64h-128v256h320v-64h-192v-64h192v-64h64v-192h-64v-64h-256z" />
    <glyph glyph-name="uniFF77" unicode="&#xff77;" 
d="M320 64v128h-128v-128h128zM128 0v64h-64v320h64v64h256v-64h64v-64h-128v64h-128v-128h192v-64h64v-128h-64v-64h-256z" />
    <glyph glyph-name="uniFF78" unicode="&#xff78;" 
d="M192 0v128h64v128h64v128h-128v-64h-128v128h384v-192h-64v-128h-64v-128h-128z" />
    <glyph glyph-name="uniFF79" unicode="&#xff79;" 
d="M320 64v128h-128v-128h128zM320 256v128h-128v-128h128zM128 0v64h-64v128h64v64h-64v128h64v64h256v-64h64v-128h-64v-64h64v-128h-64v-64h-256z" />
    <glyph glyph-name="uniFF7A" unicode="&#xff7a;" 
d="M320 256v128h-128v-128h128zM128 0v64h-64v64h128v-64h128v128h-192v64h-64v128h64v64h256v-64h64v-320h-64v-64h-256z" />
    <glyph glyph-name="uniFF7B" unicode="&#xff7b;" 
d="M256 64v320h-64v-320h64zM128 0v64h-64v320h64v64h192v-64h64v-320h-64v-64h-192z" />
    <glyph glyph-name="uniFF7C" unicode="&#xff7c;" 
d="M128 0v64h64v256h-128v64h128v64h128v-384h64v-64h-256z" />
    <glyph glyph-name="uniFF7D" unicode="&#xff7d;" 
d="M64 0v128h64v64h64v64h64v128h-64v-128h-128v128h64v64h192v-64h64v-128h-64v-64h-64v-64h-64v-64h192v-64h-320z" />
    <glyph glyph-name="uniFF7E" unicode="&#xff7e;" 
d="M128 0v64h-64v128h64v-64h64v-64h64v128h-64v64h64v128h-64v-64h-64v-64h-64v128h64v64h192v-64h64v-128h-64v-64h64v-128h-64v-64h-192z" />
    <glyph glyph-name="uniFF7F" unicode="&#xff7f;" 
d="M256 128v128h-64v-64h-64v-64h128zM256 0v64h-192v192h64v64h64v64h64v64h64v-320h64v-64h-64v-64h-64z" />
    <glyph glyph-name="uniFF80" unicode="&#xff80;" 
d="M128 0v64h-64v64h128v-64h64v192h-64v-64h-128v256h256v-64h-128v-64h128v-64h64v-192h-64v-64h-192z" />
    <glyph glyph-name="uniFF81" unicode="&#xff81;" 
d="M256 64v128h-64v-128h64zM128 0v64h-64v320h64v64h192v-64h64v-64h-128v64h-64v-128h128v-64h64v-128h-64v-64h-192z" />
    <glyph glyph-name="uniFF82" unicode="&#xff82;" 
d="M192 0v128h64v192h64v64h-128v-64h-128v128h384v-128h-64v-192h-64v-128h-128z" />
    <glyph glyph-name="uniFF83" unicode="&#xff83;" 
d="M256 64v128h-64v-128h64zM256 256v128h-64v-128h64zM128 0v64h-64v128h64v64h-64v128h64v64h192v-64h64v-128h-64v-64h64v-128h-64v-64h-192z" />
    <glyph glyph-name="uniFF84" unicode="&#xff84;" 
d="M256 256v128h-64v-128h64zM128 0v64h-64v64h128v-64h64v128h-128v64h-64v128h64v64h192v-64h64v-320h-64v-64h-192z" />
    <glyph glyph-name="uniFF85" unicode="&#xff85;" 
d="M128 0v64h64v256h-128v64h128v64h128v-448h-192z" />
    <glyph glyph-name="uniFF86" unicode="&#xff86;" 
d="M256 0v64h-192v192h64v64h64v-128h-64v-64h128v192h-64v64h64v64h64v-320h64v-64h-64v-64h-64z" />
    <glyph glyph-name="uniFFE0" unicode="&#xffe0;" 
d="M64 0v128h64v-64h64v-64h-128zM192 64v64h64v-64h-64zM64 320v64h64v-64h-64zM192 320v64h64v-64h-64zM256 128v192h64v64h64v-128h-64v-128h-64zM128 384v128h64v-128h-64zM384 384v192h64v-192h-64zM192 512v192h64v-64h128v-64h-128v-64h-64zM256 704v64h-192v64h384
v64h64v-128h-192v-64h-64z" />
    <glyph glyph-name="uniFFE1" unicode="&#xffe1;" 
d="M128 0v64h-64v640h64v-64h64v-64h-64v-128h64v64h128v128h64v-64h64v-64h-64v-64h-128v-64h-128v-256h64v-64h192v128h64v-192h-320zM0 768v128h448v-64h-384v-64h-64z" />
    <glyph glyph-name="NULL" 
 />
    <glyph glyph-name="nonmarkingreturn" horiz-adv-x="192" 
 />
  </font>
</defs>
</svg>
